M48
; DRILL file {KiCad 5.1.9} date Fri Mar  5 10:38:57 2021
; FORMAT={-:-/ absolute / inch / decimal}
; #@! TF.CreationDate,2021-03-05T10:38:57+01:00
; #@! TF.GenerationSoftware,Kicad,Pcbnew,5.1.9
FMAT,2
INCH
T1C0.0098
T2C0.0118
T3C0.0256
T4C0.0394
T5C0.0531
T6C0.0787
T7C0.1181
T8C0.0394
T9C0.0492
%
G90
G05
T1
X3.3707Y-5.7661
X3.3972Y-5.7361
X3.4267Y-4.9531
X3.6811Y-5.3661
X3.7322Y-5.3161
X3.7372Y-5.3861
X3.7372Y-5.4261
X3.7372Y-5.4626
X3.7622Y-5.5911
X3.7928Y-5.5402
X3.8254Y-5.5379
X3.8622Y-5.5861
X3.8822Y-5.6111
X3.9322Y-5.4636
X3.9475Y-5.1158
X3.958Y-5.75
X3.97Y-6.1075
X3.9772Y-5.7011
X3.9869Y-4.9765
X3.9872Y-5.1161
X3.9922Y-5.7261
X4.0222Y-5.1461
X4.0347Y-5.4636
X4.0621Y-5.8312
X4.1022Y-5.2161
X4.1022Y-5.5236
X4.1272Y-5.1911
X4.1322Y-4.4511
X4.1322Y-5.2261
X4.1647Y-5.5611
X4.1772Y-5.2961
X4.1772Y-5.3361
X4.1822Y-5.0911
X4.185Y-5.4375
X4.1925Y-5.3825
X4.21Y-5.345
X4.21Y-5.455
X4.23Y-5.4275
X4.2431Y-4.5351
X4.255Y-5.5861
X4.2824Y-4.5351
X4.2875Y-5.3775
X4.3175Y-5.745
X4.335Y-5.3675
X4.362Y-5.226
X4.37Y-5.416
X4.37Y-5.486
X4.3756Y-5.1896
X4.4077Y-4.3067
X4.4125Y-5.5575
X4.4425Y-5.2225
X4.4525Y-5.56
X4.46Y-5.195
X4.4622Y-5.7461
X4.4775Y-5.225
X4.485Y-6.1075
X4.4922Y-5.7311
X4.5222Y-5.8661
X4.556Y-5.412
X4.5851Y-4.3441
X4.6425Y-5.445
X4.6675Y-5.42
X4.7225Y-5.3975
X4.765Y-5.085
X4.7725Y-5.1525
X5.0816Y-6.7467
X5.3372Y-6.5861
X5.3372Y-6.6261
X5.3388Y-6.8028
X5.3722Y-6.8361
X5.4322Y-6.3511
X5.5705Y-5.7559
X5.5705Y-5.8051
X5.6197Y-5.7559
X5.6197Y-5.8051
X5.9572Y-6.5861
X5.9572Y-6.6261
X5.9572Y-6.8361
X5.9772Y-4.3561
X5.9772Y-4.3961
X5.9772Y-4.4661
X5.9772Y-4.5061
X5.9997Y-6.8361
X6.3922Y-5.8061
X6.4172Y-5.3248
X6.7126Y-4.4357
X6.7647Y-4.5686
X6.9473Y-6.1173
X6.9548Y-4.9255
X6.9548Y-4.9747
X7.004Y-4.9255
X7.004Y-4.9747
X7.1572Y-5.6411
X7.1872Y-5.6161
X7.2406Y-5.4478
X7.2722Y-5.4261
X7.3602Y-4.3789
X7.3822Y-5.6211
X7.4217Y-5.8781
X7.4572Y-5.5761
X7.4575Y-6.1175
X7.7043Y-5.1083
X7.7122Y-4.9902
X7.7322Y-5.0787
X7.7872Y-5.0211
X7.8347Y-5.1461
X7.8922Y-4.9611
X7.9122Y-4.9311
X8.0322Y-5.1461
X8.1122Y-5.1761
X8.2172Y-5.2361
X8.3372Y-4.1961
X8.3372Y-4.2361
X8.3372Y-4.3161
X8.3372Y-4.3561
X8.6909Y-6.8504
X8.7572Y-6.3861
X8.7872Y-4.1961
X8.7872Y-4.2361
X8.7872Y-4.3161
X8.7872Y-4.3661
X8.9772Y-6.8961
X9.0172Y-6.8961
X9.0672Y-6.5161
X9.1075Y-4.2407
X9.1567Y-4.2407
X9.2272Y-4.9606
X9.2272Y-5.0197
X9.2272Y-5.0787
X9.2272Y-5.1772
X9.2272Y-5.2362
X9.2272Y-5.2953
X9.2476Y-5.2657
X9.2477Y-5.2067
X9.2481Y-4.9902
X9.2485Y-5.3248
X9.25Y-5.1083
X9.2502Y-5.0492
X9.3897Y-4.7486
X9.3898Y-4.6555
X9.4582Y-6.2422
X9.4772Y-5.2511
X9.4822Y-6.2661
X9.4852Y-5.1181
X9.4861Y-5.1772
X9.5022Y-5.4461
X9.5072Y-5.2861
X9.5079Y-5.1476
X9.5079Y-5.2067
X9.5177Y-4.7638
X9.5177Y-4.813
X9.5272Y-5.3189
X9.5272Y-5.4211
X9.5322Y-5.0861
X9.5358Y-6.8091
X9.5372Y-6.1611
X9.5625Y-4.2399
X9.5654Y-6.7796
X9.5669Y-4.7638
X9.5669Y-4.813
X9.5897Y-5.4461
X9.6028Y-6.2261
X9.6117Y-4.2399
X9.6358Y-4.6063
X9.6597Y-5.7036
X9.6659Y-5.577
X9.6659Y-5.6065
X9.6772Y-5.3986
X9.6897Y-5.7836
X9.7169Y-6.8579
X9.7272Y-5.2961
X9.7297Y-5.3911
X9.7747Y-5.8311
X9.8097Y-5.9411
X9.8297Y-5.5636
X9.8322Y-5.9711
X9.8372Y-5.8311
X9.8422Y-5.0036
X9.8422Y-5.0361
X9.872Y-5.1575
X9.872Y-5.1969
X9.872Y-5.2362
X9.8772Y-5.0036
X9.8772Y-5.0361
X9.8872Y-6.0311
X9.9072Y-6.0561
X9.9222Y-4.6111
X9.9311Y-5.128
X9.9606Y-5.2067
X9.9606Y-5.2461
X9.9606Y-5.2854
X9.9606Y-5.3248
X9.9606Y-5.3642
X9.9606Y-5.4035
X9.9705Y-5.1181
X9.9772Y-5.6311
X9.9902Y-6.1811
X10.0Y-5.2067
X10.0Y-5.2461
X10.0Y-5.3642
X10.0Y-5.4035
X10.0098Y-5.1181
X10.0147Y-5.6236
X10.0372Y-4.4361
X10.0394Y-5.2067
X10.0394Y-5.4035
X10.0492Y-5.1181
X10.0689Y-4.7011
X10.0787Y-5.2067
X10.0787Y-5.4035
X10.0886Y-5.1181
X10.1024Y-4.6759
X10.1172Y-4.5161
X10.1181Y-5.2067
X10.1181Y-5.2461
X10.1181Y-5.3642
X10.1181Y-5.4035
X10.128Y-5.1181
X10.1378Y-6.1417
X10.1397Y-4.4836
X10.1472Y-5.6611
X10.1476Y-5.876
X10.1497Y-4.6836
X10.1575Y-5.2067
X10.1575Y-5.2461
X10.1575Y-5.2854
X10.1575Y-5.3248
X10.1575Y-5.3642
X10.1673Y-5.1181
X10.187Y-6.1811
X10.1872Y-5.6611
X10.1872Y-5.9061
X10.1922Y-4.6436
X10.2067Y-5.1181
X10.2222Y-4.5161
X10.2372Y-5.8236
X10.2397Y-4.6086
X10.2422Y-5.7836
X10.2461Y-5.1772
X10.2461Y-5.2165
X10.2461Y-5.2559
X10.2461Y-5.2953
X10.2461Y-5.3346
X10.2461Y-5.374
X10.2461Y-5.4134
X10.2597Y-5.5861
X10.2772Y-5.0886
X10.2894Y-4.9333
X10.3022Y-5.0236
X10.3209Y-4.9624
X10.3472Y-5.0061
X10.3522Y-5.4786
X10.3542Y-6.1432
X10.3547Y-4.7411
X10.3547Y-4.9336
X10.4147Y-4.5711
X10.4363Y-4.8135
X10.4363Y-4.8627
X10.4429Y-6.1417
X10.4856Y-4.8135
X10.4856Y-4.8627
X10.5822Y-5.7836
X10.6372Y-6.1461
X10.6772Y-5.3711
X10.6822Y-5.2586
X10.6847Y-5.1386
X10.6847Y-5.2161
X10.6947Y-5.3336
X10.7022Y-5.1761
X10.7022Y-5.4186
X10.7072Y-5.2936
X10.7172Y-5.7836
X10.7518Y-5.5118
X10.7518Y-5.5512
X10.7622Y-5.9311
X10.7672Y-5.0061
X10.7872Y-5.9511
X10.7912Y-5.5118
X10.7912Y-5.5512
X10.8122Y-5.9711
X10.8372Y-5.9911
X10.8622Y-6.0111
X10.8661Y-5.2761
X10.8747Y-5.2336
X10.8797Y-5.1461
X10.8797Y-5.4436
X10.8822Y-5.1911
X10.8872Y-6.0311
X10.8922Y-5.4036
X10.9022Y-5.3186
X10.9072Y-5.3636
X10.9872Y-6.3611
X11.1472Y-6.7361
X11.1722Y-6.7611
X11.2247Y-5.3061
X11.6747Y-5.3011
X11.7772Y-6.8361
X11.8172Y-6.5961
X11.8172Y-6.6311
X11.8172Y-6.8361
X11.8472Y-4.3461
X11.8472Y-4.3861
X11.8472Y-4.4661
X11.8472Y-4.5061
X11.8697Y-5.4686
X11.8697Y-5.5436
X11.8722Y-5.3936
X11.8897Y-5.3561
X11.8897Y-5.4311
X11.8897Y-5.5061
X11.8922Y-5.5811
X11.9047Y-6.2861
X11.9997Y-5.1286
X11.9997Y-5.5636
X12.0416Y-5.5642
X12.1672Y-5.3711
X12.3638Y-4.9631
X12.3638Y-5.0123
X12.413Y-4.9631
X12.413Y-5.0123
X12.7447Y-5.1286
X12.7672Y-4.6261
X12.7697Y-5.2036
X12.7722Y-5.2786
X12.7722Y-5.3536
X12.7722Y-5.4286
X12.7722Y-5.5036
X12.792Y-6.098
X12.7922Y-5.2411
X12.7922Y-5.3161
X12.7947Y-5.1674
X12.7947Y-5.3911
X12.7947Y-5.4661
X12.7947Y-5.5411
X12.8733Y-5.1673
X12.8747Y-5.2411
X12.8747Y-5.3161
X12.8747Y-5.4286
X12.8747Y-5.5036
X12.8922Y-5.2786
X12.8947Y-5.2036
X12.8947Y-5.5411
X12.8972Y-5.4661
X13.0088Y-5.7211
X13.0522Y-5.6961
X13.0627Y-5.5166
X13.0872Y-5.6711
X13.1122Y-5.6461
X13.1172Y-5.5161
X13.1701Y-5.6961
X13.2522Y-5.8536
X13.2672Y-4.5261
X13.2672Y-4.5761
X13.29Y-5.6275
X13.2947Y-5.5336
X13.304Y-6.098
X13.3365Y-4.6877
X13.3561Y-4.6483
X14.0421Y-4.2661
X14.0772Y-4.2661
X14.1072Y-4.5461
X14.1372Y-4.5461
X14.3722Y-5.1011
X14.3997Y-5.0736
X14.6572Y-4.4661
X14.6685Y-4.9139
X14.6685Y-4.9546
X14.6748Y-6.4488
X14.6872Y-4.2661
X14.6872Y-4.4361
X14.7137Y-4.2397
X14.7172Y-6.4488
X14.7177Y-4.9139
X14.7177Y-4.9546
X14.7788Y-6.8578
X14.8072Y-6.8294
X14.8872Y-6.9061
X14.9272Y-6.8281
X14.9322Y-6.9061
X14.9467Y-5.491
X14.9467Y-5.5402
X14.9632Y-6.8281
X14.9959Y-5.491
X14.9959Y-5.5402
X15.0437Y-4.3461
X15.0649Y-5.7623
X15.0649Y-5.8115
X15.0872Y-4.3461
X15.1141Y-5.7623
X15.1141Y-5.8115
X15.1672Y-4.4707
X15.1922Y-6.7561
X15.1922Y-6.7961
X15.1949Y-4.4984
X15.2272Y-6.1961
X15.2672Y-5.4961
X15.2672Y-5.5361
X15.3072Y-5.3386
X15.3072Y-6.2761
X15.3447Y-5.3161
X15.6102Y-4.4342
X15.7612Y-4.9311
X15.7637Y-4.8811
X15.812Y-6.09
X15.8449Y-4.3123
X15.8499Y-4.4644
X15.8499Y-4.5136
X15.8772Y-4.28
X15.944Y-4.625
X15.993Y-4.745
X16.0358Y-5.7025
X16.042Y-4.703
X16.053Y-4.868
X16.0614Y-5.6769
X16.109Y-4.812
X16.1122Y-5.6511
X16.1381Y-5.6261
X16.1764Y-4.7569
X16.188Y-5.6761
X16.2089Y-4.7569
X16.2172Y-4.3961
X16.2197Y-4.3611
X16.2522Y-4.9611
X16.2522Y-4.9986
X16.2547Y-4.3611
X16.2547Y-4.3961
X16.2887Y-5.8346
X16.2922Y-4.9611
X16.2922Y-4.9986
X16.3272Y-5.6011
X16.342Y-6.09
X17.0222Y-6.5561
X17.0947Y-4.3736
X17.0947Y-4.4086
X17.0965Y-4.7638
X17.0965Y-4.8031
X17.1347Y-4.3736
X17.1347Y-4.4086
X17.1358Y-4.7638
X17.1358Y-4.8031
X17.4397Y-5.3086
X17.6772Y-4.3461
X17.6772Y-4.3861
X17.6772Y-4.4761
X17.6772Y-4.5161
X17.6972Y-5.5661
X17.7572Y-4.2461
X17.7572Y-4.2861
X18.28Y-6.078
X18.2972Y-5.6911
X18.4572Y-5.6061
X18.4676Y-5.8266
X18.5827Y-4.4017
X18.5872Y-5.3986
X18.5872Y-5.8261
X18.6147Y-4.8286
X18.622Y-4.4017
X18.6222Y-5.8211
X18.6247Y-5.3711
X18.7172Y-5.1861
X18.7172Y-5.3311
X18.7172Y-5.4361
X18.7797Y-5.8256
X18.7963Y-5.187
X18.8172Y-5.2236
X18.84Y-6.078
X19.1437Y-4.7496
X19.1437Y-4.7796
X19.1472Y-4.4861
X19.2421Y-4.9712
X19.3701Y-5.3543
X19.3972Y-5.8961
X19.3996Y-5.6594
X19.3996Y-5.6937
X19.4272Y-5.9261
X19.4675Y-6.709
X19.4783Y-5.6496
X19.494Y-5.372
X19.5044Y-6.7458
X19.6972Y-6.2361
X19.8872Y-6.4761
X19.8872Y-6.8561
X19.8872Y-6.8961
X19.9072Y-4.2061
X19.9072Y-4.2461
X19.9072Y-4.6261
X19.9172Y-6.4461
X19.9372Y-4.6561
T2
X3.9727Y-4.3067
X4.0127Y-4.3067
X4.3717Y-4.3067
X4.6153Y-4.2693
X4.6433Y-4.545
X4.6516Y-4.2693
X4.686Y-4.545
X5.1576Y-6.1857
X5.1576Y-6.225
X5.1576Y-6.5597
X5.1576Y-6.5991
X6.0122Y-6.7461
X6.0572Y-6.5461
X6.0572Y-6.5961
X6.0622Y-6.7461
X6.1189Y-4.2828
X6.1539Y-4.2828
X6.1767Y-6.428
X6.1767Y-6.4673
X6.5822Y-5.2111
X6.6122Y-5.1811
X6.7472Y-5.0461
X6.7618Y-4.3415
X6.7772Y-5.0161
X6.8012Y-4.3415
X6.998Y-4.5472
X7.0374Y-4.5472
X7.1358Y-4.3415
X7.1752Y-4.3415
X7.3228Y-4.4461
X7.3572Y-4.4461
X8.9172Y-6.8561
X8.9572Y-6.8561
X9.1172Y-4.3261
X9.1472Y-4.3561
X9.3685Y-6.5237
X9.3685Y-6.5631
X9.4882Y-4.3617
X9.5276Y-4.3617
X9.5654Y-6.4154
X9.5654Y-6.4548
X9.7372Y-6.2911
X9.7672Y-6.3211
X9.7822Y-4.2611
X9.8072Y-4.2361
X11.2022Y-6.7311
X11.2272Y-6.7561
X11.8647Y-6.7561
X11.905Y-6.326
X11.9097Y-6.7561
X11.9972Y-4.2861
X12.0042Y-6.4339
X12.0042Y-6.4732
X12.0272Y-4.3161
X12.7262Y-4.4417
X12.7656Y-4.4417
X12.9624Y-4.6877
X13.0018Y-4.6877
X13.1002Y-4.4417
X13.1396Y-4.4417
X15.0677Y-6.5066
X15.0677Y-6.546
X15.3027Y-6.5105
X15.3027Y-6.5499
X15.4232Y-4.3517
X15.4626Y-4.3517
X18.8087Y-4.8677
X18.8456Y-4.8677
X18.9567Y-4.4017
X18.9961Y-4.4017
X19.6117Y-6.4221
X19.6117Y-6.4615
T3
X3.8681Y-4.8425
X3.9181Y-4.8425
X3.9681Y-4.8425
X4.0181Y-4.8425
X4.0681Y-4.8425
X4.1181Y-4.8425
X4.1681Y-4.8425
X4.2181Y-4.8425
T4
X3.3366Y-4.6399
X3.3366Y-4.758
X3.3366Y-5.0689
X3.3366Y-5.187
X3.4547Y-4.6399
X3.4547Y-4.758
X3.4547Y-5.0689
X3.4547Y-5.187
X3.8228Y-6.4977
X3.8228Y-6.6158
X3.9409Y-6.4977
X3.9409Y-6.6158
X4.0591Y-6.4977
X4.0591Y-6.6158
X4.1772Y-6.4977
X4.1772Y-6.6158
X4.2953Y-6.4977
X4.2953Y-6.6158
X4.4134Y-6.4977
X4.4134Y-6.6158
X4.5315Y-6.4977
X4.5315Y-6.6158
X4.6496Y-6.4977
X4.6496Y-6.6158
X6.7904Y-6.5011
X6.7904Y-6.6193
X6.9085Y-6.5011
X6.9085Y-6.6193
X7.0266Y-6.5011
X7.0266Y-6.6193
X7.1447Y-6.5011
X7.1447Y-6.6193
X7.2628Y-6.5011
X7.2628Y-6.6193
X7.3809Y-6.5011
X7.3809Y-6.6193
X7.4991Y-6.5011
X7.4991Y-6.6193
X7.6172Y-6.5011
X7.6172Y-6.6193
X9.8425Y-6.8488
X9.9606Y-6.7717
X10.0787Y-6.7717
X10.1969Y-6.8488
X10.3839Y-6.8488
X10.502Y-6.7717
X10.6201Y-6.7717
X10.7382Y-6.8488
X12.6328Y-6.5011
X12.6328Y-6.6193
X12.7509Y-6.5011
X12.7509Y-6.6193
X12.8691Y-6.5011
X12.8691Y-6.6193
X12.9872Y-6.5011
X12.9872Y-6.6193
X13.1053Y-6.5011
X13.1053Y-6.6193
X13.2234Y-6.5011
X13.2234Y-6.6193
X13.3415Y-6.5011
X13.3415Y-6.6193
X13.4596Y-6.5011
X13.4596Y-6.6193
X15.6617Y-6.499
X15.6617Y-6.6171
X15.7798Y-6.499
X15.7798Y-6.6171
X15.867Y-4.801
X15.867Y-4.901
X15.867Y-5.001
X15.8979Y-6.499
X15.8979Y-6.6171
X16.0161Y-6.499
X16.0161Y-6.6171
X16.1342Y-6.499
X16.1342Y-6.6171
X16.2523Y-6.499
X16.2523Y-6.6171
X16.3704Y-6.499
X16.3704Y-6.6171
X16.4885Y-6.499
X16.4885Y-6.6171
X18.1354Y-6.498
X18.1354Y-6.6161
X18.2535Y-6.498
X18.2535Y-6.6161
X18.3716Y-6.498
X18.3716Y-6.6161
X18.4897Y-6.498
X18.4897Y-6.6161
X18.6078Y-6.498
X18.6078Y-6.6161
X18.7259Y-6.498
X18.7259Y-6.6161
X18.8441Y-6.498
X18.8441Y-6.6161
X18.9622Y-6.498
X18.9622Y-6.6161
X19.7457Y-5.374
X19.7457Y-5.7283
X19.8228Y-5.4921
X19.8228Y-5.6102
T5
X19.4291Y-5.5118
T6
X16.3878Y-4.7441
T7
X10.0591Y-5.3051
T8
X3.2185Y-4.6029
X3.2185Y-5.224
X3.5728Y-4.6029
X3.5728Y-5.224
X3.7047Y-6.4607
X4.7677Y-6.4607
X6.6723Y-6.4641
X7.7353Y-6.4641
X12.5147Y-6.4641
X13.5777Y-6.4641
X15.5436Y-6.462
X16.6066Y-6.462
X18.0173Y-6.461
X19.0803Y-6.461
T9
X2.9035Y-4.311
X2.9035Y-4.5472
X2.9035Y-6.5551
X2.9035Y-6.7913
X5.5354Y-6.5413
X5.7717Y-6.5413
X5.813Y-4.311
X5.813Y-4.5472
X8.4488Y-4.561
X8.685Y-4.561
X8.7461Y-6.5551
X8.7461Y-6.7913
X11.378Y-6.5413
X11.6142Y-6.5413
X11.6713Y-4.311
X11.6713Y-4.5472
X14.3071Y-4.561
X14.5433Y-4.561
X14.5846Y-6.5551
X14.5846Y-6.7913
X17.2205Y-6.5413
X17.4567Y-6.5413
X17.498Y-4.311
X17.498Y-4.5472
X20.0886Y-6.5551
X20.0886Y-6.7913
X20.0925Y-4.311
X20.0925Y-4.5472
T0
M30
