%TF.GenerationSoftware,KiCad,Pcbnew,5.1.9*%
%TF.CreationDate,2021-03-05T10:38:49+01:00*%
%TF.ProjectId,CellsBoard,43656c6c-7342-46f6-9172-642e6b696361,rev?*%
%TF.SameCoordinates,Original*%
%TF.FileFunction,Soldermask,Bot*%
%TF.FilePolarity,Negative*%
%FSLAX46Y46*%
G04 Gerber Fmt 4.6, Leading zero omitted, Abs format (unit mm)*
G04 Created by KiCad (PCBNEW 5.1.9) date 2021-03-05 10:38:49*
%MOMM*%
%LPD*%
G01*
G04 APERTURE LIST*
%ADD10O,1.700000X1.700000*%
%ADD11R,1.700000X1.700000*%
%ADD12C,1.250000*%
%ADD13O,1.500000X2.000000*%
%ADD14R,1.500000X2.000000*%
%ADD15C,1.200000*%
%ADD16O,1.000000X1.000000*%
%ADD17R,1.000000X1.000000*%
%ADD18O,2.000000X1.500000*%
%ADD19R,2.000000X1.500000*%
%ADD20C,1.500000*%
%ADD21C,1.000000*%
%ADD22R,2.850000X1.650000*%
%ADD23C,1.650000*%
G04 APERTURE END LIST*
D10*
X403021800Y-121945400D03*
X403021800Y-124485400D03*
D11*
X403021800Y-127025400D03*
D12*
X443400000Y-166150000D03*
X437400000Y-166150000D03*
X363400000Y-115850000D03*
X369400000Y-115850000D03*
X295000000Y-166150000D03*
X289000000Y-166150000D03*
X214600000Y-115850000D03*
X220600000Y-115850000D03*
X510250000Y-166500000D03*
X510250000Y-172500000D03*
X370450000Y-172500000D03*
X370450000Y-166500000D03*
X222150000Y-166500000D03*
X222150000Y-172500000D03*
X510350000Y-115500000D03*
X510350000Y-109500000D03*
X444450000Y-109500000D03*
X444450000Y-115500000D03*
X296450000Y-115500000D03*
X296450000Y-109500000D03*
X147650000Y-109500000D03*
X147650000Y-115500000D03*
X73750000Y-115500000D03*
X73750000Y-109500000D03*
X146600000Y-166150000D03*
X140600000Y-166150000D03*
X73750000Y-166500000D03*
X73750000Y-172500000D03*
D13*
X253000000Y-172000000D03*
D14*
X256000000Y-172000000D03*
D15*
X250000000Y-173960000D03*
X259000000Y-173960000D03*
D13*
X266750000Y-172000000D03*
D14*
X269750000Y-172000000D03*
D15*
X263750000Y-173960000D03*
X272750000Y-173960000D03*
G36*
G01*
X481025000Y-122214999D02*
X481025000Y-125065001D01*
G75*
G02*
X480775001Y-125315000I-249999J0D01*
G01*
X479924999Y-125315000D01*
G75*
G02*
X479675000Y-125065001I0J249999D01*
G01*
X479675000Y-122214999D01*
G75*
G02*
X479924999Y-121965000I249999J0D01*
G01*
X480775001Y-121965000D01*
G75*
G02*
X481025000Y-122214999I0J-249999D01*
G01*
G37*
G36*
G01*
X486825000Y-122214999D02*
X486825000Y-125065001D01*
G75*
G02*
X486575001Y-125315000I-249999J0D01*
G01*
X485724999Y-125315000D01*
G75*
G02*
X485475000Y-125065001I0J249999D01*
G01*
X485475000Y-122214999D01*
G75*
G02*
X485724999Y-121965000I249999J0D01*
G01*
X486575001Y-121965000D01*
G75*
G02*
X486825000Y-122214999I0J-249999D01*
G01*
G37*
G36*
G01*
X479475000Y-113227001D02*
X479475000Y-110376999D01*
G75*
G02*
X479724999Y-110127000I249999J0D01*
G01*
X480575001Y-110127000D01*
G75*
G02*
X480825000Y-110376999I0J-249999D01*
G01*
X480825000Y-113227001D01*
G75*
G02*
X480575001Y-113477000I-249999J0D01*
G01*
X479724999Y-113477000D01*
G75*
G02*
X479475000Y-113227001I0J249999D01*
G01*
G37*
G36*
G01*
X473675000Y-113227001D02*
X473675000Y-110376999D01*
G75*
G02*
X473924999Y-110127000I249999J0D01*
G01*
X474775001Y-110127000D01*
G75*
G02*
X475025000Y-110376999I0J-249999D01*
G01*
X475025000Y-113227001D01*
G75*
G02*
X474775001Y-113477000I-249999J0D01*
G01*
X473924999Y-113477000D01*
G75*
G02*
X473675000Y-113227001I0J249999D01*
G01*
G37*
G36*
G01*
X389725000Y-111957001D02*
X389725000Y-109106999D01*
G75*
G02*
X389974999Y-108857000I249999J0D01*
G01*
X390825001Y-108857000D01*
G75*
G02*
X391075000Y-109106999I0J-249999D01*
G01*
X391075000Y-111957001D01*
G75*
G02*
X390825001Y-112207000I-249999J0D01*
G01*
X389974999Y-112207000D01*
G75*
G02*
X389725000Y-111957001I0J249999D01*
G01*
G37*
G36*
G01*
X383925000Y-111957001D02*
X383925000Y-109106999D01*
G75*
G02*
X384174999Y-108857000I249999J0D01*
G01*
X385025001Y-108857000D01*
G75*
G02*
X385275000Y-109106999I0J-249999D01*
G01*
X385275000Y-111957001D01*
G75*
G02*
X385025001Y-112207000I-249999J0D01*
G01*
X384174999Y-112207000D01*
G75*
G02*
X383925000Y-111957001I0J249999D01*
G01*
G37*
G36*
G01*
X390112601Y-168391400D02*
X387262599Y-168391400D01*
G75*
G02*
X387012600Y-168141401I0J249999D01*
G01*
X387012600Y-167291399D01*
G75*
G02*
X387262599Y-167041400I249999J0D01*
G01*
X390112601Y-167041400D01*
G75*
G02*
X390362600Y-167291399I0J-249999D01*
G01*
X390362600Y-168141401D01*
G75*
G02*
X390112601Y-168391400I-249999J0D01*
G01*
G37*
G36*
G01*
X390112601Y-174191400D02*
X387262599Y-174191400D01*
G75*
G02*
X387012600Y-173941401I0J249999D01*
G01*
X387012600Y-173091399D01*
G75*
G02*
X387262599Y-172841400I249999J0D01*
G01*
X390112601Y-172841400D01*
G75*
G02*
X390362600Y-173091399I0J-249999D01*
G01*
X390362600Y-173941401D01*
G75*
G02*
X390112601Y-174191400I-249999J0D01*
G01*
G37*
G36*
G01*
X384145401Y-168293400D02*
X381295399Y-168293400D01*
G75*
G02*
X381045400Y-168043401I0J249999D01*
G01*
X381045400Y-167193399D01*
G75*
G02*
X381295399Y-166943400I249999J0D01*
G01*
X384145401Y-166943400D01*
G75*
G02*
X384395400Y-167193399I0J-249999D01*
G01*
X384395400Y-168043401D01*
G75*
G02*
X384145401Y-168293400I-249999J0D01*
G01*
G37*
G36*
G01*
X384145401Y-174093400D02*
X381295399Y-174093400D01*
G75*
G02*
X381045400Y-173843401I0J249999D01*
G01*
X381045400Y-172993399D01*
G75*
G02*
X381295399Y-172743400I249999J0D01*
G01*
X384145401Y-172743400D01*
G75*
G02*
X384395400Y-172993399I0J-249999D01*
G01*
X384395400Y-173843401D01*
G75*
G02*
X384145401Y-174093400I-249999J0D01*
G01*
G37*
G36*
G01*
X306332501Y-166445000D02*
X303482499Y-166445000D01*
G75*
G02*
X303232500Y-166195001I0J249999D01*
G01*
X303232500Y-165344999D01*
G75*
G02*
X303482499Y-165095000I249999J0D01*
G01*
X306332501Y-165095000D01*
G75*
G02*
X306582500Y-165344999I0J-249999D01*
G01*
X306582500Y-166195001D01*
G75*
G02*
X306332501Y-166445000I-249999J0D01*
G01*
G37*
G36*
G01*
X306332501Y-172245000D02*
X303482499Y-172245000D01*
G75*
G02*
X303232500Y-171995001I0J249999D01*
G01*
X303232500Y-171144999D01*
G75*
G02*
X303482499Y-170895000I249999J0D01*
G01*
X306332501Y-170895000D01*
G75*
G02*
X306582500Y-171144999I0J-249999D01*
G01*
X306582500Y-171995001D01*
G75*
G02*
X306332501Y-172245000I-249999J0D01*
G01*
G37*
G36*
G01*
X330721000Y-114243001D02*
X330721000Y-111392999D01*
G75*
G02*
X330970999Y-111143000I249999J0D01*
G01*
X331821001Y-111143000D01*
G75*
G02*
X332071000Y-111392999I0J-249999D01*
G01*
X332071000Y-114243001D01*
G75*
G02*
X331821001Y-114493000I-249999J0D01*
G01*
X330970999Y-114493000D01*
G75*
G02*
X330721000Y-114243001I0J249999D01*
G01*
G37*
G36*
G01*
X324921000Y-114243001D02*
X324921000Y-111392999D01*
G75*
G02*
X325170999Y-111143000I249999J0D01*
G01*
X326021001Y-111143000D01*
G75*
G02*
X326271000Y-111392999I0J-249999D01*
G01*
X326271000Y-114243001D01*
G75*
G02*
X326021001Y-114493000I-249999J0D01*
G01*
X325170999Y-114493000D01*
G75*
G02*
X324921000Y-114243001I0J249999D01*
G01*
G37*
G36*
G01*
X238975000Y-112211001D02*
X238975000Y-109360999D01*
G75*
G02*
X239224999Y-109111000I249999J0D01*
G01*
X240075001Y-109111000D01*
G75*
G02*
X240325000Y-109360999I0J-249999D01*
G01*
X240325000Y-112211001D01*
G75*
G02*
X240075001Y-112461000I-249999J0D01*
G01*
X239224999Y-112461000D01*
G75*
G02*
X238975000Y-112211001I0J249999D01*
G01*
G37*
G36*
G01*
X233175000Y-112211001D02*
X233175000Y-109360999D01*
G75*
G02*
X233424999Y-109111000I249999J0D01*
G01*
X234275001Y-109111000D01*
G75*
G02*
X234525000Y-109360999I0J-249999D01*
G01*
X234525000Y-112211001D01*
G75*
G02*
X234275001Y-112461000I-249999J0D01*
G01*
X233424999Y-112461000D01*
G75*
G02*
X233175000Y-112211001I0J249999D01*
G01*
G37*
G36*
G01*
X236534999Y-163677000D02*
X239385001Y-163677000D01*
G75*
G02*
X239635000Y-163926999I0J-249999D01*
G01*
X239635000Y-164777001D01*
G75*
G02*
X239385001Y-165027000I-249999J0D01*
G01*
X236534999Y-165027000D01*
G75*
G02*
X236285000Y-164777001I0J249999D01*
G01*
X236285000Y-163926999D01*
G75*
G02*
X236534999Y-163677000I249999J0D01*
G01*
G37*
G36*
G01*
X236534999Y-157877000D02*
X239385001Y-157877000D01*
G75*
G02*
X239635000Y-158126999I0J-249999D01*
G01*
X239635000Y-158977001D01*
G75*
G02*
X239385001Y-159227000I-249999J0D01*
G01*
X236534999Y-159227000D01*
G75*
G02*
X236285000Y-158977001I0J249999D01*
G01*
X236285000Y-158126999D01*
G75*
G02*
X236534999Y-157877000I249999J0D01*
G01*
G37*
G36*
G01*
X244385001Y-165977000D02*
X241534999Y-165977000D01*
G75*
G02*
X241285000Y-165727001I0J249999D01*
G01*
X241285000Y-164876999D01*
G75*
G02*
X241534999Y-164627000I249999J0D01*
G01*
X244385001Y-164627000D01*
G75*
G02*
X244635000Y-164876999I0J-249999D01*
G01*
X244635000Y-165727001D01*
G75*
G02*
X244385001Y-165977000I-249999J0D01*
G01*
G37*
G36*
G01*
X244385001Y-171777000D02*
X241534999Y-171777000D01*
G75*
G02*
X241285000Y-171527001I0J249999D01*
G01*
X241285000Y-170676999D01*
G75*
G02*
X241534999Y-170427000I249999J0D01*
G01*
X244385001Y-170427000D01*
G75*
G02*
X244635000Y-170676999I0J-249999D01*
G01*
X244635000Y-171527001D01*
G75*
G02*
X244385001Y-171777000I-249999J0D01*
G01*
G37*
G36*
G01*
X158314001Y-166295000D02*
X155463999Y-166295000D01*
G75*
G02*
X155214000Y-166045001I0J249999D01*
G01*
X155214000Y-165194999D01*
G75*
G02*
X155463999Y-164945000I249999J0D01*
G01*
X158314001Y-164945000D01*
G75*
G02*
X158564000Y-165194999I0J-249999D01*
G01*
X158564000Y-166045001D01*
G75*
G02*
X158314001Y-166295000I-249999J0D01*
G01*
G37*
G36*
G01*
X158314001Y-172095000D02*
X155463999Y-172095000D01*
G75*
G02*
X155214000Y-171845001I0J249999D01*
G01*
X155214000Y-170994999D01*
G75*
G02*
X155463999Y-170745000I249999J0D01*
G01*
X158314001Y-170745000D01*
G75*
G02*
X158564000Y-170994999I0J-249999D01*
G01*
X158564000Y-171845001D01*
G75*
G02*
X158314001Y-172095000I-249999J0D01*
G01*
G37*
G36*
G01*
X180775000Y-114074999D02*
X180775000Y-116925001D01*
G75*
G02*
X180525001Y-117175000I-249999J0D01*
G01*
X179674999Y-117175000D01*
G75*
G02*
X179425000Y-116925001I0J249999D01*
G01*
X179425000Y-114074999D01*
G75*
G02*
X179674999Y-113825000I249999J0D01*
G01*
X180525001Y-113825000D01*
G75*
G02*
X180775000Y-114074999I0J-249999D01*
G01*
G37*
G36*
G01*
X186575000Y-114074999D02*
X186575000Y-116925001D01*
G75*
G02*
X186325001Y-117175000I-249999J0D01*
G01*
X185474999Y-117175000D01*
G75*
G02*
X185225000Y-116925001I0J249999D01*
G01*
X185225000Y-114074999D01*
G75*
G02*
X185474999Y-113825000I249999J0D01*
G01*
X186325001Y-113825000D01*
G75*
G02*
X186575000Y-114074999I0J-249999D01*
G01*
G37*
G36*
G01*
X179225000Y-111699001D02*
X179225000Y-108848999D01*
G75*
G02*
X179474999Y-108599000I249999J0D01*
G01*
X180325001Y-108599000D01*
G75*
G02*
X180575000Y-108848999I0J-249999D01*
G01*
X180575000Y-111699001D01*
G75*
G02*
X180325001Y-111949000I-249999J0D01*
G01*
X179474999Y-111949000D01*
G75*
G02*
X179225000Y-111699001I0J249999D01*
G01*
G37*
G36*
G01*
X173425000Y-111699001D02*
X173425000Y-108848999D01*
G75*
G02*
X173674999Y-108599000I249999J0D01*
G01*
X174525001Y-108599000D01*
G75*
G02*
X174775000Y-108848999I0J-249999D01*
G01*
X174775000Y-111699001D01*
G75*
G02*
X174525001Y-111949000I-249999J0D01*
G01*
X173674999Y-111949000D01*
G75*
G02*
X173425000Y-111699001I0J249999D01*
G01*
G37*
G36*
G01*
X108610000Y-110814001D02*
X108610000Y-107963999D01*
G75*
G02*
X108859999Y-107714000I249999J0D01*
G01*
X109710001Y-107714000D01*
G75*
G02*
X109960000Y-107963999I0J-249999D01*
G01*
X109960000Y-110814001D01*
G75*
G02*
X109710001Y-111064000I-249999J0D01*
G01*
X108859999Y-111064000D01*
G75*
G02*
X108610000Y-110814001I0J249999D01*
G01*
G37*
G36*
G01*
X102810000Y-110814001D02*
X102810000Y-107963999D01*
G75*
G02*
X103059999Y-107714000I249999J0D01*
G01*
X103910001Y-107714000D01*
G75*
G02*
X104160000Y-107963999I0J-249999D01*
G01*
X104160000Y-110814001D01*
G75*
G02*
X103910001Y-111064000I-249999J0D01*
G01*
X103059999Y-111064000D01*
G75*
G02*
X102810000Y-110814001I0J249999D01*
G01*
G37*
G36*
G01*
X111049000Y-114016999D02*
X111049000Y-116867001D01*
G75*
G02*
X110799001Y-117117000I-249999J0D01*
G01*
X109948999Y-117117000D01*
G75*
G02*
X109699000Y-116867001I0J249999D01*
G01*
X109699000Y-114016999D01*
G75*
G02*
X109948999Y-113767000I249999J0D01*
G01*
X110799001Y-113767000D01*
G75*
G02*
X111049000Y-114016999I0J-249999D01*
G01*
G37*
G36*
G01*
X116849000Y-114016999D02*
X116849000Y-116867001D01*
G75*
G02*
X116599001Y-117117000I-249999J0D01*
G01*
X115748999Y-117117000D01*
G75*
G02*
X115499000Y-116867001I0J249999D01*
G01*
X115499000Y-114016999D01*
G75*
G02*
X115748999Y-113767000I249999J0D01*
G01*
X116599001Y-113767000D01*
G75*
G02*
X116849000Y-114016999I0J-249999D01*
G01*
G37*
G36*
G01*
X129577999Y-164591000D02*
X132428001Y-164591000D01*
G75*
G02*
X132678000Y-164840999I0J-249999D01*
G01*
X132678000Y-165691001D01*
G75*
G02*
X132428001Y-165941000I-249999J0D01*
G01*
X129577999Y-165941000D01*
G75*
G02*
X129328000Y-165691001I0J249999D01*
G01*
X129328000Y-164840999D01*
G75*
G02*
X129577999Y-164591000I249999J0D01*
G01*
G37*
G36*
G01*
X129577999Y-158791000D02*
X132428001Y-158791000D01*
G75*
G02*
X132678000Y-159040999I0J-249999D01*
G01*
X132678000Y-159891001D01*
G75*
G02*
X132428001Y-160141000I-249999J0D01*
G01*
X129577999Y-160141000D01*
G75*
G02*
X129328000Y-159891001I0J249999D01*
G01*
X129328000Y-159040999D01*
G75*
G02*
X129577999Y-158791000I249999J0D01*
G01*
G37*
D16*
X107140000Y-123000000D03*
X105870000Y-123000000D03*
X104600000Y-123000000D03*
X103330000Y-123000000D03*
X102060000Y-123000000D03*
X100790000Y-123000000D03*
X99520000Y-123000000D03*
D17*
X98250000Y-123000000D03*
G36*
G01*
X332271000Y-117642999D02*
X332271000Y-120493001D01*
G75*
G02*
X332021001Y-120743000I-249999J0D01*
G01*
X331170999Y-120743000D01*
G75*
G02*
X330921000Y-120493001I0J249999D01*
G01*
X330921000Y-117642999D01*
G75*
G02*
X331170999Y-117393000I249999J0D01*
G01*
X332021001Y-117393000D01*
G75*
G02*
X332271000Y-117642999I0J-249999D01*
G01*
G37*
G36*
G01*
X338071000Y-117642999D02*
X338071000Y-120493001D01*
G75*
G02*
X337821001Y-120743000I-249999J0D01*
G01*
X336970999Y-120743000D01*
G75*
G02*
X336721000Y-120493001I0J249999D01*
G01*
X336721000Y-117642999D01*
G75*
G02*
X336970999Y-117393000I249999J0D01*
G01*
X337821001Y-117393000D01*
G75*
G02*
X338071000Y-117642999I0J-249999D01*
G01*
G37*
G36*
G01*
X499563001Y-166146000D02*
X496712999Y-166146000D01*
G75*
G02*
X496463000Y-165896001I0J249999D01*
G01*
X496463000Y-165045999D01*
G75*
G02*
X496712999Y-164796000I249999J0D01*
G01*
X499563001Y-164796000D01*
G75*
G02*
X499813000Y-165045999I0J-249999D01*
G01*
X499813000Y-165896001D01*
G75*
G02*
X499563001Y-166146000I-249999J0D01*
G01*
G37*
G36*
G01*
X499563001Y-171946000D02*
X496712999Y-171946000D01*
G75*
G02*
X496463000Y-171696001I0J249999D01*
G01*
X496463000Y-170845999D01*
G75*
G02*
X496712999Y-170596000I249999J0D01*
G01*
X499563001Y-170596000D01*
G75*
G02*
X499813000Y-170845999I0J-249999D01*
G01*
X499813000Y-171696001D01*
G75*
G02*
X499563001Y-171946000I-249999J0D01*
G01*
G37*
D18*
X503500000Y-139500000D03*
D19*
X503500000Y-142500000D03*
D15*
X501540000Y-136500000D03*
X501540000Y-145500000D03*
D20*
X87750000Y-131750000D03*
X84750000Y-131750000D03*
X87750000Y-128750000D03*
G36*
G01*
X84000000Y-129250000D02*
X84000000Y-128250000D01*
G75*
G02*
X84250000Y-128000000I250000J0D01*
G01*
X85250000Y-128000000D01*
G75*
G02*
X85500000Y-128250000I0J-250000D01*
G01*
X85500000Y-129250000D01*
G75*
G02*
X85250000Y-129500000I-250000J0D01*
G01*
X84250000Y-129500000D01*
G75*
G02*
X84000000Y-129250000I0J250000D01*
G01*
G37*
D21*
X90750000Y-132690000D03*
X81750000Y-132690000D03*
D20*
X84750000Y-117853000D03*
X87750000Y-117853000D03*
X84750000Y-120853000D03*
G36*
G01*
X88500000Y-120353000D02*
X88500000Y-121353000D01*
G75*
G02*
X88250000Y-121603000I-250000J0D01*
G01*
X87250000Y-121603000D01*
G75*
G02*
X87000000Y-121353000I0J250000D01*
G01*
X87000000Y-120353000D01*
G75*
G02*
X87250000Y-120103000I250000J0D01*
G01*
X88250000Y-120103000D01*
G75*
G02*
X88500000Y-120353000I0J-250000D01*
G01*
G37*
D21*
X81750000Y-116913000D03*
X90750000Y-116913000D03*
D22*
X493500000Y-140000000D03*
D23*
X493500000Y-140000000D03*
D20*
X397807800Y-165075400D03*
X400807800Y-165075400D03*
X403807800Y-165075400D03*
X406807800Y-165075400D03*
X409807800Y-165075400D03*
X412807800Y-165075400D03*
X415807800Y-165075400D03*
X418807800Y-165075400D03*
X397807800Y-168075400D03*
X400807800Y-168075400D03*
X403807800Y-168075400D03*
X406807800Y-168075400D03*
X409807800Y-168075400D03*
X412807800Y-168075400D03*
X415807800Y-168075400D03*
G36*
G01*
X419557800Y-167575400D02*
X419557800Y-168575400D01*
G75*
G02*
X419307800Y-168825400I-250000J0D01*
G01*
X418307800Y-168825400D01*
G75*
G02*
X418057800Y-168575400I0J250000D01*
G01*
X418057800Y-167575400D01*
G75*
G02*
X418307800Y-167325400I250000J0D01*
G01*
X419307800Y-167325400D01*
G75*
G02*
X419557800Y-167575400I0J-250000D01*
G01*
G37*
D21*
X394807800Y-164135400D03*
X421807800Y-164135400D03*
X196476000Y-164189000D03*
X169476000Y-164189000D03*
G36*
G01*
X194226000Y-167629000D02*
X194226000Y-168629000D01*
G75*
G02*
X193976000Y-168879000I-250000J0D01*
G01*
X192976000Y-168879000D01*
G75*
G02*
X192726000Y-168629000I0J250000D01*
G01*
X192726000Y-167629000D01*
G75*
G02*
X192976000Y-167379000I250000J0D01*
G01*
X193976000Y-167379000D01*
G75*
G02*
X194226000Y-167629000I0J-250000D01*
G01*
G37*
D20*
X190476000Y-168129000D03*
X187476000Y-168129000D03*
X184476000Y-168129000D03*
X181476000Y-168129000D03*
X178476000Y-168129000D03*
X175476000Y-168129000D03*
X172476000Y-168129000D03*
X193476000Y-165129000D03*
X190476000Y-165129000D03*
X187476000Y-165129000D03*
X184476000Y-165129000D03*
X181476000Y-165129000D03*
X178476000Y-165129000D03*
X175476000Y-165129000D03*
X172476000Y-165129000D03*
X97100000Y-165040999D03*
X100100000Y-165040999D03*
X103100000Y-165040999D03*
X106100000Y-165040999D03*
X109100000Y-165040999D03*
X112100000Y-165040999D03*
X115100000Y-165040999D03*
X118100000Y-165040999D03*
X97100000Y-168040999D03*
X100100000Y-168040999D03*
X103100000Y-168040999D03*
X106100000Y-168040999D03*
X109100000Y-168040999D03*
X112100000Y-168040999D03*
X115100000Y-168040999D03*
G36*
G01*
X118850000Y-167540999D02*
X118850000Y-168540999D01*
G75*
G02*
X118600000Y-168790999I-250000J0D01*
G01*
X117600000Y-168790999D01*
G75*
G02*
X117350000Y-168540999I0J250000D01*
G01*
X117350000Y-167540999D01*
G75*
G02*
X117600000Y-167290999I250000J0D01*
G01*
X118600000Y-167290999D01*
G75*
G02*
X118850000Y-167540999I0J-250000D01*
G01*
G37*
D21*
X94100000Y-164100999D03*
X121100000Y-164100999D03*
X484639000Y-164110000D03*
X457639000Y-164110000D03*
G36*
G01*
X482389000Y-167550000D02*
X482389000Y-168550000D01*
G75*
G02*
X482139000Y-168800000I-250000J0D01*
G01*
X481139000Y-168800000D01*
G75*
G02*
X480889000Y-168550000I0J250000D01*
G01*
X480889000Y-167550000D01*
G75*
G02*
X481139000Y-167300000I250000J0D01*
G01*
X482139000Y-167300000D01*
G75*
G02*
X482389000Y-167550000I0J-250000D01*
G01*
G37*
D20*
X478639000Y-168050000D03*
X475639000Y-168050000D03*
X472639000Y-168050000D03*
X469639000Y-168050000D03*
X466639000Y-168050000D03*
X463639000Y-168050000D03*
X460639000Y-168050000D03*
X481639000Y-165050000D03*
X478639000Y-165050000D03*
X475639000Y-165050000D03*
X472639000Y-165050000D03*
X469639000Y-165050000D03*
X466639000Y-165050000D03*
X463639000Y-165050000D03*
X460639000Y-165050000D03*
D21*
X344874000Y-164189000D03*
X317874000Y-164189000D03*
G36*
G01*
X342624000Y-167629000D02*
X342624000Y-168629000D01*
G75*
G02*
X342374000Y-168879000I-250000J0D01*
G01*
X341374000Y-168879000D01*
G75*
G02*
X341124000Y-168629000I0J250000D01*
G01*
X341124000Y-167629000D01*
G75*
G02*
X341374000Y-167379000I250000J0D01*
G01*
X342374000Y-167379000D01*
G75*
G02*
X342624000Y-167629000I0J-250000D01*
G01*
G37*
D20*
X338874000Y-168129000D03*
X335874000Y-168129000D03*
X332874000Y-168129000D03*
X329874000Y-168129000D03*
X326874000Y-168129000D03*
X323874000Y-168129000D03*
X320874000Y-168129000D03*
X341874000Y-165129000D03*
X338874000Y-165129000D03*
X335874000Y-165129000D03*
X332874000Y-165129000D03*
X329874000Y-165129000D03*
X326874000Y-165129000D03*
X323874000Y-165129000D03*
X320874000Y-165129000D03*
M02*
