%TF.GenerationSoftware,KiCad,Pcbnew,5.1.9*%
%TF.CreationDate,2021-03-05T10:38:49+01:00*%
%TF.ProjectId,CellsBoard,43656c6c-7342-46f6-9172-642e6b696361,rev?*%
%TF.SameCoordinates,Original*%
%TF.FileFunction,Legend,Bot*%
%TF.FilePolarity,Positive*%
%FSLAX46Y46*%
G04 Gerber Fmt 4.6, Leading zero omitted, Abs format (unit mm)*
G04 Created by KiCad (PCBNEW 5.1.9) date 2021-03-05 10:38:49*
%MOMM*%
%LPD*%
G01*
G04 APERTURE LIST*
%ADD10C,0.200000*%
%ADD11C,0.100000*%
%ADD12C,0.120000*%
%ADD13C,0.152400*%
G04 APERTURE END LIST*
D10*
X128500000Y-110250000D02*
X128250000Y-110500000D01*
X128750000Y-110500000D02*
X128500000Y-110250000D01*
X128250000Y-110500000D02*
X128750000Y-110500000D01*
X127750000Y-110500000D02*
X125750000Y-110500000D01*
X125750000Y-110500000D02*
X125750000Y-107750000D01*
X129250000Y-107750000D02*
X129250000Y-110500000D01*
X125750000Y-107750000D02*
X129250000Y-107750000D01*
X79350000Y-169371539D02*
G75*
G03*
X78750000Y-169371539I-300000J-519615D01*
G01*
X86350000Y-169371539D02*
X85450000Y-169891154D01*
X80650000Y-166080642D02*
X79750000Y-166600258D01*
X78750000Y-172489230D02*
G75*
G03*
X79350000Y-172489230I300000J519615D01*
G01*
X86250000Y-173701666D02*
G75*
G03*
X85950000Y-173182051I-600000J0D01*
G01*
X80650000Y-172662435D02*
X79750000Y-173182051D01*
X80250000Y-171969615D02*
G75*
G03*
X80550000Y-171450000I-300000J519615D01*
G01*
X83550000Y-168678718D02*
X84450000Y-169198334D01*
X86950000Y-172489230D02*
X87850000Y-171969615D01*
X83249999Y-174740896D02*
G75*
G03*
X83550000Y-175260512I600001J0D01*
G01*
X85050001Y-166080642D02*
G75*
G03*
X84450000Y-166080642I-300001J-519616D01*
G01*
X85150000Y-170410769D02*
X85150000Y-171450000D01*
X79450000Y-168159103D02*
G75*
G03*
X79750000Y-168678718I600000J0D01*
G01*
X79750000Y-168678718D02*
X80650000Y-169198334D01*
X83250000Y-173701666D02*
X83250000Y-174740896D01*
X81650000Y-169891154D02*
G75*
G03*
X81350000Y-170410769I300000J-519615D01*
G01*
X88150000Y-171450000D02*
X88150000Y-170410769D01*
X82150000Y-168678718D02*
G75*
G03*
X82450000Y-168159103I-300000J519615D01*
G01*
X82450000Y-168159103D02*
X82450000Y-167119873D01*
X77850000Y-169891154D02*
G75*
G03*
X77550000Y-170410769I300000J-519615D01*
G01*
X83550000Y-166600258D02*
G75*
G03*
X83250000Y-167119873I300000J-519615D01*
G01*
X83550000Y-173182051D02*
G75*
G03*
X83250000Y-173701666I300000J-519615D01*
G01*
X86950000Y-169371539D02*
G75*
G03*
X86350000Y-169371539I-300000J-519615D01*
G01*
X82150000Y-166600258D02*
X81250000Y-166080642D01*
X85950000Y-166600258D02*
X85050000Y-166080642D01*
X84449999Y-169198334D02*
G75*
G03*
X85050000Y-169198334I300001J519616D01*
G01*
X85150000Y-171450000D02*
G75*
G03*
X85450000Y-171969615I600000J0D01*
G01*
X84050000Y-171969615D02*
G75*
G03*
X84350000Y-171450000I-300000J519615D01*
G01*
X88150000Y-170410769D02*
G75*
G03*
X87850000Y-169891154I-600000J0D01*
G01*
X84450000Y-172662435D02*
X83550000Y-173182051D01*
X81250001Y-166080642D02*
G75*
G03*
X80650000Y-166080642I-300001J-519616D01*
G01*
X87850000Y-169891154D02*
X86950000Y-169371539D01*
X86350000Y-172489230D02*
G75*
G03*
X86950000Y-172489230I300000J519615D01*
G01*
X80250000Y-169891154D02*
X79350000Y-169371539D01*
X78750000Y-169371539D02*
X77850000Y-169891154D01*
X84450000Y-166080642D02*
X83550000Y-166600258D01*
X83150000Y-169371539D02*
G75*
G03*
X82550000Y-169371539I-300000J-519615D01*
G01*
X77850000Y-171969615D02*
X78750000Y-172489230D01*
X79350000Y-172489230D02*
X80250000Y-171969615D01*
X81350000Y-171450000D02*
G75*
G03*
X81650000Y-171969615I600000J0D01*
G01*
X85950000Y-168678718D02*
G75*
G03*
X86250000Y-168159103I-300000J519615D01*
G01*
X85450000Y-169891154D02*
G75*
G03*
X85150000Y-170410769I300000J-519615D01*
G01*
X82450000Y-174740896D02*
X82450000Y-173701666D01*
X84350000Y-171450000D02*
X84350000Y-170410769D01*
D11*
G36*
X80375000Y-169950000D02*
G01*
X80525000Y-170300000D01*
X80525000Y-170825000D01*
X80550000Y-171500000D01*
X80325000Y-171950000D01*
X79275000Y-172500000D01*
X78850000Y-172525000D01*
X77775000Y-171925000D01*
X77575000Y-171500000D01*
X77550000Y-170350000D01*
X77725000Y-169975000D01*
X78725000Y-169400000D01*
X79075000Y-169300000D01*
X80375000Y-169950000D01*
G37*
X80375000Y-169950000D02*
X80525000Y-170300000D01*
X80525000Y-170825000D01*
X80550000Y-171500000D01*
X80325000Y-171950000D01*
X79275000Y-172500000D01*
X78850000Y-172525000D01*
X77775000Y-171925000D01*
X77575000Y-171500000D01*
X77550000Y-170350000D01*
X77725000Y-169975000D01*
X78725000Y-169400000D01*
X79075000Y-169300000D01*
X80375000Y-169950000D01*
D10*
X86250000Y-167119873D02*
G75*
G03*
X85950000Y-166600258I-600000J0D01*
G01*
X81650000Y-171969615D02*
X82550000Y-172489230D01*
X86250000Y-174740896D02*
X86250000Y-173701666D01*
X79449999Y-174740896D02*
G75*
G03*
X79750000Y-175260512I600001J0D01*
G01*
X81250000Y-175780127D02*
X82150000Y-175260512D01*
X84450000Y-175780127D02*
G75*
G03*
X85050000Y-175780127I300000J519615D01*
G01*
X81250001Y-172662435D02*
G75*
G03*
X80650000Y-172662435I-300001J-519616D01*
G01*
D11*
G36*
X86075000Y-166650000D02*
G01*
X86225000Y-167000000D01*
X86225000Y-167525000D01*
X86250000Y-168200000D01*
X86025000Y-168650000D01*
X84975000Y-169200000D01*
X84550000Y-169225000D01*
X83475000Y-168625000D01*
X83275000Y-168200000D01*
X83250000Y-167050000D01*
X83425000Y-166675000D01*
X84425000Y-166100000D01*
X84775000Y-166000000D01*
X86075000Y-166650000D01*
G37*
X86075000Y-166650000D02*
X86225000Y-167000000D01*
X86225000Y-167525000D01*
X86250000Y-168200000D01*
X86025000Y-168650000D01*
X84975000Y-169200000D01*
X84550000Y-169225000D01*
X83475000Y-168625000D01*
X83275000Y-168200000D01*
X83250000Y-167050000D01*
X83425000Y-166675000D01*
X84425000Y-166100000D01*
X84775000Y-166000000D01*
X86075000Y-166650000D01*
D10*
X82450000Y-173701666D02*
G75*
G03*
X82150000Y-173182051I-600000J0D01*
G01*
X79750000Y-175260512D02*
X80650000Y-175780127D01*
X85050000Y-175780127D02*
X85950000Y-175260512D01*
X77550000Y-171450000D02*
G75*
G03*
X77850000Y-171969615I600000J0D01*
G01*
X85050000Y-169198334D02*
X85950000Y-168678718D01*
X85950000Y-175260511D02*
G75*
G03*
X86250000Y-174740896I-300000J519615D01*
G01*
X87850000Y-171969615D02*
G75*
G03*
X88150000Y-171450000I-300000J519615D01*
G01*
D11*
G36*
X86075000Y-173250000D02*
G01*
X86225000Y-173600000D01*
X86225000Y-174125000D01*
X86250000Y-174800000D01*
X86025000Y-175250000D01*
X84975000Y-175800000D01*
X84550000Y-175825000D01*
X83475000Y-175225000D01*
X83275000Y-174800000D01*
X83250000Y-173650000D01*
X83425000Y-173275000D01*
X84425000Y-172700000D01*
X84775000Y-172600000D01*
X86075000Y-173250000D01*
G37*
X86075000Y-173250000D02*
X86225000Y-173600000D01*
X86225000Y-174125000D01*
X86250000Y-174800000D01*
X86025000Y-175250000D01*
X84975000Y-175800000D01*
X84550000Y-175825000D01*
X83475000Y-175225000D01*
X83275000Y-174800000D01*
X83250000Y-173650000D01*
X83425000Y-173275000D01*
X84425000Y-172700000D01*
X84775000Y-172600000D01*
X86075000Y-173250000D01*
D10*
X83250000Y-167119873D02*
X83250000Y-168159103D01*
X80550000Y-170410769D02*
G75*
G03*
X80250000Y-169891154I-600000J0D01*
G01*
X79450000Y-173701666D02*
X79450000Y-174740896D01*
X83250000Y-168159103D02*
G75*
G03*
X83550000Y-168678718I600000J0D01*
G01*
X82150000Y-175260511D02*
G75*
G03*
X82450000Y-174740896I-300000J519615D01*
G01*
X82450000Y-167119873D02*
G75*
G03*
X82150000Y-166600258I-600000J0D01*
G01*
X82150000Y-173182051D02*
X81250000Y-172662435D01*
X82550000Y-169371539D02*
X81650000Y-169891154D01*
X80550000Y-171450000D02*
X80550000Y-170410769D01*
X85050001Y-172662435D02*
G75*
G03*
X84450000Y-172662435I-300001J-519616D01*
G01*
X86250000Y-168159103D02*
X86250000Y-167119873D01*
X85950000Y-173182051D02*
X85050000Y-172662435D01*
X80649999Y-169198334D02*
G75*
G03*
X81250000Y-169198334I300001J519616D01*
G01*
X82550000Y-172489230D02*
G75*
G03*
X83150000Y-172489230I300000J519615D01*
G01*
X79450000Y-167119873D02*
X79450000Y-168159103D01*
X84350000Y-170410769D02*
G75*
G03*
X84050000Y-169891154I-600000J0D01*
G01*
X81250000Y-169198334D02*
X82150000Y-168678718D01*
X83550000Y-175260512D02*
X84450000Y-175780127D01*
X79750000Y-173182051D02*
G75*
G03*
X79450000Y-173701666I300000J-519615D01*
G01*
X80650000Y-175780127D02*
G75*
G03*
X81250000Y-175780127I300000J519615D01*
G01*
X77550000Y-170410769D02*
X77550000Y-171450000D01*
X85450000Y-171969615D02*
X86350000Y-172489230D01*
X79750000Y-166600258D02*
G75*
G03*
X79450000Y-167119873I300000J-519615D01*
G01*
D12*
X485302064Y-125350000D02*
X481197936Y-125350000D01*
X485302064Y-121930000D02*
X481197936Y-121930000D01*
X475197936Y-110092000D02*
X479302064Y-110092000D01*
X475197936Y-113512000D02*
X479302064Y-113512000D01*
X385447936Y-108822000D02*
X389552064Y-108822000D01*
X385447936Y-112242000D02*
X389552064Y-112242000D01*
X386977600Y-172668464D02*
X386977600Y-168564336D01*
X390397600Y-172668464D02*
X390397600Y-168564336D01*
X381010400Y-172570464D02*
X381010400Y-168466336D01*
X384430400Y-172570464D02*
X384430400Y-168466336D01*
X303197500Y-170722064D02*
X303197500Y-166617936D01*
X306617500Y-170722064D02*
X306617500Y-166617936D01*
X326443936Y-111108000D02*
X330548064Y-111108000D01*
X326443936Y-114528000D02*
X330548064Y-114528000D01*
X234697936Y-109076000D02*
X238802064Y-109076000D01*
X234697936Y-112496000D02*
X238802064Y-112496000D01*
X239670000Y-159399936D02*
X239670000Y-163504064D01*
X236250000Y-159399936D02*
X236250000Y-163504064D01*
X241250000Y-170254064D02*
X241250000Y-166149936D01*
X244670000Y-170254064D02*
X244670000Y-166149936D01*
X155179000Y-170572064D02*
X155179000Y-166467936D01*
X158599000Y-170572064D02*
X158599000Y-166467936D01*
X185052064Y-117210000D02*
X180947936Y-117210000D01*
X185052064Y-113790000D02*
X180947936Y-113790000D01*
X174947936Y-108564000D02*
X179052064Y-108564000D01*
X174947936Y-111984000D02*
X179052064Y-111984000D01*
X104332936Y-107679000D02*
X108437064Y-107679000D01*
X104332936Y-111099000D02*
X108437064Y-111099000D01*
X115326064Y-117152000D02*
X111221936Y-117152000D01*
X115326064Y-113732000D02*
X111221936Y-113732000D01*
X132713000Y-160313936D02*
X132713000Y-164418064D01*
X129293000Y-160313936D02*
X129293000Y-164418064D01*
X336548064Y-120778000D02*
X332443936Y-120778000D01*
X336548064Y-117358000D02*
X332443936Y-117358000D01*
X496428000Y-170423064D02*
X496428000Y-166318936D01*
X499848000Y-170423064D02*
X499848000Y-166318936D01*
D13*
X483722514Y-121507695D02*
X483993447Y-121120647D01*
X484186971Y-121507695D02*
X484186971Y-120694895D01*
X483877333Y-120694895D01*
X483799923Y-120733600D01*
X483761219Y-120772304D01*
X483722514Y-120849714D01*
X483722514Y-120965828D01*
X483761219Y-121043238D01*
X483799923Y-121081942D01*
X483877333Y-121120647D01*
X484186971Y-121120647D01*
X483025828Y-120965828D02*
X483025828Y-121507695D01*
X483219352Y-120656190D02*
X483412876Y-121236761D01*
X482909714Y-121236761D01*
X482483961Y-121043238D02*
X482561371Y-121004533D01*
X482600076Y-120965828D01*
X482638780Y-120888419D01*
X482638780Y-120849714D01*
X482600076Y-120772304D01*
X482561371Y-120733600D01*
X482483961Y-120694895D01*
X482329142Y-120694895D01*
X482251733Y-120733600D01*
X482213028Y-120772304D01*
X482174323Y-120849714D01*
X482174323Y-120888419D01*
X482213028Y-120965828D01*
X482251733Y-121004533D01*
X482329142Y-121043238D01*
X482483961Y-121043238D01*
X482561371Y-121081942D01*
X482600076Y-121120647D01*
X482638780Y-121198057D01*
X482638780Y-121352876D01*
X482600076Y-121430285D01*
X482561371Y-121468990D01*
X482483961Y-121507695D01*
X482329142Y-121507695D01*
X482251733Y-121468990D01*
X482213028Y-121430285D01*
X482174323Y-121352876D01*
X482174323Y-121198057D01*
X482213028Y-121120647D01*
X482251733Y-121081942D01*
X482329142Y-121043238D01*
X477822514Y-114669695D02*
X478093447Y-114282647D01*
X478286971Y-114669695D02*
X478286971Y-113856895D01*
X477977333Y-113856895D01*
X477899923Y-113895600D01*
X477861219Y-113934304D01*
X477822514Y-114011714D01*
X477822514Y-114127828D01*
X477861219Y-114205238D01*
X477899923Y-114243942D01*
X477977333Y-114282647D01*
X478286971Y-114282647D01*
X477125828Y-114127828D02*
X477125828Y-114669695D01*
X477319352Y-113818190D02*
X477512876Y-114398761D01*
X477009714Y-114398761D01*
X476777485Y-113856895D02*
X476235619Y-113856895D01*
X476583961Y-114669695D01*
X388072514Y-113399695D02*
X388343447Y-113012647D01*
X388536971Y-113399695D02*
X388536971Y-112586895D01*
X388227333Y-112586895D01*
X388149923Y-112625600D01*
X388111219Y-112664304D01*
X388072514Y-112741714D01*
X388072514Y-112857828D01*
X388111219Y-112935238D01*
X388149923Y-112973942D01*
X388227333Y-113012647D01*
X388536971Y-113012647D01*
X387375828Y-112857828D02*
X387375828Y-113399695D01*
X387569352Y-112548190D02*
X387762876Y-113128761D01*
X387259714Y-113128761D01*
X386601733Y-112586895D02*
X386756552Y-112586895D01*
X386833961Y-112625600D01*
X386872666Y-112664304D01*
X386950076Y-112780419D01*
X386988780Y-112935238D01*
X386988780Y-113244876D01*
X386950076Y-113322285D01*
X386911371Y-113360990D01*
X386833961Y-113399695D01*
X386679142Y-113399695D01*
X386601733Y-113360990D01*
X386563028Y-113322285D01*
X386524323Y-113244876D01*
X386524323Y-113051352D01*
X386563028Y-112973942D01*
X386601733Y-112935238D01*
X386679142Y-112896533D01*
X386833961Y-112896533D01*
X386911371Y-112935238D01*
X386950076Y-112973942D01*
X386988780Y-113051352D01*
X391555295Y-170043885D02*
X391168247Y-169772952D01*
X391555295Y-169579428D02*
X390742495Y-169579428D01*
X390742495Y-169889066D01*
X390781200Y-169966476D01*
X390819904Y-170005180D01*
X390897314Y-170043885D01*
X391013428Y-170043885D01*
X391090838Y-170005180D01*
X391129542Y-169966476D01*
X391168247Y-169889066D01*
X391168247Y-169579428D01*
X391013428Y-170740571D02*
X391555295Y-170740571D01*
X390703790Y-170547047D02*
X391284361Y-170353523D01*
X391284361Y-170856685D01*
X390742495Y-171553371D02*
X390742495Y-171166323D01*
X391129542Y-171127619D01*
X391090838Y-171166323D01*
X391052133Y-171243733D01*
X391052133Y-171437257D01*
X391090838Y-171514666D01*
X391129542Y-171553371D01*
X391206952Y-171592076D01*
X391400476Y-171592076D01*
X391477885Y-171553371D01*
X391516590Y-171514666D01*
X391555295Y-171437257D01*
X391555295Y-171243733D01*
X391516590Y-171166323D01*
X391477885Y-171127619D01*
X380838095Y-169945885D02*
X380451047Y-169674952D01*
X380838095Y-169481428D02*
X380025295Y-169481428D01*
X380025295Y-169791066D01*
X380064000Y-169868476D01*
X380102704Y-169907180D01*
X380180114Y-169945885D01*
X380296228Y-169945885D01*
X380373638Y-169907180D01*
X380412342Y-169868476D01*
X380451047Y-169791066D01*
X380451047Y-169481428D01*
X380296228Y-170642571D02*
X380838095Y-170642571D01*
X379986590Y-170449047D02*
X380567161Y-170255523D01*
X380567161Y-170758685D01*
X380296228Y-171416666D02*
X380838095Y-171416666D01*
X379986590Y-171223142D02*
X380567161Y-171029619D01*
X380567161Y-171532780D01*
X302775195Y-168097485D02*
X302388147Y-167826552D01*
X302775195Y-167633028D02*
X301962395Y-167633028D01*
X301962395Y-167942666D01*
X302001100Y-168020076D01*
X302039804Y-168058780D01*
X302117214Y-168097485D01*
X302233328Y-168097485D01*
X302310738Y-168058780D01*
X302349442Y-168020076D01*
X302388147Y-167942666D01*
X302388147Y-167633028D01*
X302233328Y-168794171D02*
X302775195Y-168794171D01*
X301923690Y-168600647D02*
X302504261Y-168407123D01*
X302504261Y-168910285D01*
X301962395Y-169142514D02*
X301962395Y-169645676D01*
X302272033Y-169374742D01*
X302272033Y-169490857D01*
X302310738Y-169568266D01*
X302349442Y-169606971D01*
X302426852Y-169645676D01*
X302620376Y-169645676D01*
X302697785Y-169606971D01*
X302736490Y-169568266D01*
X302775195Y-169490857D01*
X302775195Y-169258628D01*
X302736490Y-169181219D01*
X302697785Y-169142514D01*
X329068514Y-115685695D02*
X329339447Y-115298647D01*
X329532971Y-115685695D02*
X329532971Y-114872895D01*
X329223333Y-114872895D01*
X329145923Y-114911600D01*
X329107219Y-114950304D01*
X329068514Y-115027714D01*
X329068514Y-115143828D01*
X329107219Y-115221238D01*
X329145923Y-115259942D01*
X329223333Y-115298647D01*
X329532971Y-115298647D01*
X328371828Y-115143828D02*
X328371828Y-115685695D01*
X328565352Y-114834190D02*
X328758876Y-115414761D01*
X328255714Y-115414761D01*
X327520323Y-115685695D02*
X327984780Y-115685695D01*
X327752552Y-115685695D02*
X327752552Y-114872895D01*
X327829961Y-114989009D01*
X327907371Y-115066419D01*
X327984780Y-115105123D01*
X237322514Y-113653695D02*
X237593447Y-113266647D01*
X237786971Y-113653695D02*
X237786971Y-112840895D01*
X237477333Y-112840895D01*
X237399923Y-112879600D01*
X237361219Y-112918304D01*
X237322514Y-112995714D01*
X237322514Y-113111828D01*
X237361219Y-113189238D01*
X237399923Y-113227942D01*
X237477333Y-113266647D01*
X237786971Y-113266647D01*
X236625828Y-113111828D02*
X236625828Y-113653695D01*
X236819352Y-112802190D02*
X237012876Y-113382761D01*
X236509714Y-113382761D01*
X236045257Y-112840895D02*
X235967847Y-112840895D01*
X235890438Y-112879600D01*
X235851733Y-112918304D01*
X235813028Y-112995714D01*
X235774323Y-113150533D01*
X235774323Y-113344057D01*
X235813028Y-113498876D01*
X235851733Y-113576285D01*
X235890438Y-113614990D01*
X235967847Y-113653695D01*
X236045257Y-113653695D01*
X236122666Y-113614990D01*
X236161371Y-113576285D01*
X236200076Y-113498876D01*
X236238780Y-113344057D01*
X236238780Y-113150533D01*
X236200076Y-112995714D01*
X236161371Y-112918304D01*
X236122666Y-112879600D01*
X236045257Y-112840895D01*
X235827695Y-160979485D02*
X235440647Y-160708552D01*
X235827695Y-160515028D02*
X235014895Y-160515028D01*
X235014895Y-160824666D01*
X235053600Y-160902076D01*
X235092304Y-160940780D01*
X235169714Y-160979485D01*
X235285828Y-160979485D01*
X235363238Y-160940780D01*
X235401942Y-160902076D01*
X235440647Y-160824666D01*
X235440647Y-160515028D01*
X235014895Y-161250419D02*
X235014895Y-161753580D01*
X235324533Y-161482647D01*
X235324533Y-161598761D01*
X235363238Y-161676171D01*
X235401942Y-161714876D01*
X235479352Y-161753580D01*
X235672876Y-161753580D01*
X235750285Y-161714876D01*
X235788990Y-161676171D01*
X235827695Y-161598761D01*
X235827695Y-161366533D01*
X235788990Y-161289123D01*
X235750285Y-161250419D01*
X235827695Y-162140628D02*
X235827695Y-162295447D01*
X235788990Y-162372857D01*
X235750285Y-162411561D01*
X235634171Y-162488971D01*
X235479352Y-162527676D01*
X235169714Y-162527676D01*
X235092304Y-162488971D01*
X235053600Y-162450266D01*
X235014895Y-162372857D01*
X235014895Y-162218038D01*
X235053600Y-162140628D01*
X235092304Y-162101923D01*
X235169714Y-162063219D01*
X235363238Y-162063219D01*
X235440647Y-162101923D01*
X235479352Y-162140628D01*
X235518057Y-162218038D01*
X235518057Y-162372857D01*
X235479352Y-162450266D01*
X235440647Y-162488971D01*
X235363238Y-162527676D01*
X245827695Y-167629485D02*
X245440647Y-167358552D01*
X245827695Y-167165028D02*
X245014895Y-167165028D01*
X245014895Y-167474666D01*
X245053600Y-167552076D01*
X245092304Y-167590780D01*
X245169714Y-167629485D01*
X245285828Y-167629485D01*
X245363238Y-167590780D01*
X245401942Y-167552076D01*
X245440647Y-167474666D01*
X245440647Y-167165028D01*
X245014895Y-167900419D02*
X245014895Y-168403580D01*
X245324533Y-168132647D01*
X245324533Y-168248761D01*
X245363238Y-168326171D01*
X245401942Y-168364876D01*
X245479352Y-168403580D01*
X245672876Y-168403580D01*
X245750285Y-168364876D01*
X245788990Y-168326171D01*
X245827695Y-168248761D01*
X245827695Y-168016533D01*
X245788990Y-167939123D01*
X245750285Y-167900419D01*
X245363238Y-168868038D02*
X245324533Y-168790628D01*
X245285828Y-168751923D01*
X245208419Y-168713219D01*
X245169714Y-168713219D01*
X245092304Y-168751923D01*
X245053600Y-168790628D01*
X245014895Y-168868038D01*
X245014895Y-169022857D01*
X245053600Y-169100266D01*
X245092304Y-169138971D01*
X245169714Y-169177676D01*
X245208419Y-169177676D01*
X245285828Y-169138971D01*
X245324533Y-169100266D01*
X245363238Y-169022857D01*
X245363238Y-168868038D01*
X245401942Y-168790628D01*
X245440647Y-168751923D01*
X245518057Y-168713219D01*
X245672876Y-168713219D01*
X245750285Y-168751923D01*
X245788990Y-168790628D01*
X245827695Y-168868038D01*
X245827695Y-169022857D01*
X245788990Y-169100266D01*
X245750285Y-169138971D01*
X245672876Y-169177676D01*
X245518057Y-169177676D01*
X245440647Y-169138971D01*
X245401942Y-169100266D01*
X245363238Y-169022857D01*
X154021304Y-168992514D02*
X154408352Y-169263447D01*
X154021304Y-169456971D02*
X154834104Y-169456971D01*
X154834104Y-169147333D01*
X154795400Y-169069923D01*
X154756695Y-169031219D01*
X154679285Y-168992514D01*
X154563171Y-168992514D01*
X154485761Y-169031219D01*
X154447057Y-169069923D01*
X154408352Y-169147333D01*
X154408352Y-169456971D01*
X154834104Y-168721580D02*
X154834104Y-168218419D01*
X154524466Y-168489352D01*
X154524466Y-168373238D01*
X154485761Y-168295828D01*
X154447057Y-168257123D01*
X154369647Y-168218419D01*
X154176123Y-168218419D01*
X154098714Y-168257123D01*
X154060009Y-168295828D01*
X154021304Y-168373238D01*
X154021304Y-168605466D01*
X154060009Y-168682876D01*
X154098714Y-168721580D01*
X154834104Y-167947485D02*
X154834104Y-167405619D01*
X154021304Y-167753961D01*
X183472514Y-113367695D02*
X183743447Y-112980647D01*
X183936971Y-113367695D02*
X183936971Y-112554895D01*
X183627333Y-112554895D01*
X183549923Y-112593600D01*
X183511219Y-112632304D01*
X183472514Y-112709714D01*
X183472514Y-112825828D01*
X183511219Y-112903238D01*
X183549923Y-112941942D01*
X183627333Y-112980647D01*
X183936971Y-112980647D01*
X183201580Y-112554895D02*
X182698419Y-112554895D01*
X182969352Y-112864533D01*
X182853238Y-112864533D01*
X182775828Y-112903238D01*
X182737123Y-112941942D01*
X182698419Y-113019352D01*
X182698419Y-113212876D01*
X182737123Y-113290285D01*
X182775828Y-113328990D01*
X182853238Y-113367695D01*
X183085466Y-113367695D01*
X183162876Y-113328990D01*
X183201580Y-113290285D01*
X182001733Y-112554895D02*
X182156552Y-112554895D01*
X182233961Y-112593600D01*
X182272666Y-112632304D01*
X182350076Y-112748419D01*
X182388780Y-112903238D01*
X182388780Y-113212876D01*
X182350076Y-113290285D01*
X182311371Y-113328990D01*
X182233961Y-113367695D01*
X182079142Y-113367695D01*
X182001733Y-113328990D01*
X181963028Y-113290285D01*
X181924323Y-113212876D01*
X181924323Y-113019352D01*
X181963028Y-112941942D01*
X182001733Y-112903238D01*
X182079142Y-112864533D01*
X182233961Y-112864533D01*
X182311371Y-112903238D01*
X182350076Y-112941942D01*
X182388780Y-113019352D01*
X177572514Y-113141695D02*
X177843447Y-112754647D01*
X178036971Y-113141695D02*
X178036971Y-112328895D01*
X177727333Y-112328895D01*
X177649923Y-112367600D01*
X177611219Y-112406304D01*
X177572514Y-112483714D01*
X177572514Y-112599828D01*
X177611219Y-112677238D01*
X177649923Y-112715942D01*
X177727333Y-112754647D01*
X178036971Y-112754647D01*
X177301580Y-112328895D02*
X176798419Y-112328895D01*
X177069352Y-112638533D01*
X176953238Y-112638533D01*
X176875828Y-112677238D01*
X176837123Y-112715942D01*
X176798419Y-112793352D01*
X176798419Y-112986876D01*
X176837123Y-113064285D01*
X176875828Y-113102990D01*
X176953238Y-113141695D01*
X177185466Y-113141695D01*
X177262876Y-113102990D01*
X177301580Y-113064285D01*
X176063028Y-112328895D02*
X176450076Y-112328895D01*
X176488780Y-112715942D01*
X176450076Y-112677238D01*
X176372666Y-112638533D01*
X176179142Y-112638533D01*
X176101733Y-112677238D01*
X176063028Y-112715942D01*
X176024323Y-112793352D01*
X176024323Y-112986876D01*
X176063028Y-113064285D01*
X176101733Y-113102990D01*
X176179142Y-113141695D01*
X176372666Y-113141695D01*
X176450076Y-113102990D01*
X176488780Y-113064285D01*
X106957514Y-112256695D02*
X107228447Y-111869647D01*
X107421971Y-112256695D02*
X107421971Y-111443895D01*
X107112333Y-111443895D01*
X107034923Y-111482600D01*
X106996219Y-111521304D01*
X106957514Y-111598714D01*
X106957514Y-111714828D01*
X106996219Y-111792238D01*
X107034923Y-111830942D01*
X107112333Y-111869647D01*
X107421971Y-111869647D01*
X106686580Y-111443895D02*
X106183419Y-111443895D01*
X106454352Y-111753533D01*
X106338238Y-111753533D01*
X106260828Y-111792238D01*
X106222123Y-111830942D01*
X106183419Y-111908352D01*
X106183419Y-112101876D01*
X106222123Y-112179285D01*
X106260828Y-112217990D01*
X106338238Y-112256695D01*
X106570466Y-112256695D01*
X106647876Y-112217990D01*
X106686580Y-112179285D01*
X105486733Y-111714828D02*
X105486733Y-112256695D01*
X105680257Y-111405190D02*
X105873780Y-111985761D01*
X105370619Y-111985761D01*
X113746514Y-113309695D02*
X114017447Y-112922647D01*
X114210971Y-113309695D02*
X114210971Y-112496895D01*
X113901333Y-112496895D01*
X113823923Y-112535600D01*
X113785219Y-112574304D01*
X113746514Y-112651714D01*
X113746514Y-112767828D01*
X113785219Y-112845238D01*
X113823923Y-112883942D01*
X113901333Y-112922647D01*
X114210971Y-112922647D01*
X113475580Y-112496895D02*
X112972419Y-112496895D01*
X113243352Y-112806533D01*
X113127238Y-112806533D01*
X113049828Y-112845238D01*
X113011123Y-112883942D01*
X112972419Y-112961352D01*
X112972419Y-113154876D01*
X113011123Y-113232285D01*
X113049828Y-113270990D01*
X113127238Y-113309695D01*
X113359466Y-113309695D01*
X113436876Y-113270990D01*
X113475580Y-113232285D01*
X112701485Y-112496895D02*
X112198323Y-112496895D01*
X112469257Y-112806533D01*
X112353142Y-112806533D01*
X112275733Y-112845238D01*
X112237028Y-112883942D01*
X112198323Y-112961352D01*
X112198323Y-113154876D01*
X112237028Y-113232285D01*
X112275733Y-113270990D01*
X112353142Y-113309695D01*
X112585371Y-113309695D01*
X112662780Y-113270990D01*
X112701485Y-113232285D01*
X133870695Y-161893485D02*
X133483647Y-161622552D01*
X133870695Y-161429028D02*
X133057895Y-161429028D01*
X133057895Y-161738666D01*
X133096600Y-161816076D01*
X133135304Y-161854780D01*
X133212714Y-161893485D01*
X133328828Y-161893485D01*
X133406238Y-161854780D01*
X133444942Y-161816076D01*
X133483647Y-161738666D01*
X133483647Y-161429028D01*
X133057895Y-162164419D02*
X133057895Y-162667580D01*
X133367533Y-162396647D01*
X133367533Y-162512761D01*
X133406238Y-162590171D01*
X133444942Y-162628876D01*
X133522352Y-162667580D01*
X133715876Y-162667580D01*
X133793285Y-162628876D01*
X133831990Y-162590171D01*
X133870695Y-162512761D01*
X133870695Y-162280533D01*
X133831990Y-162203123D01*
X133793285Y-162164419D01*
X133135304Y-162977219D02*
X133096600Y-163015923D01*
X133057895Y-163093333D01*
X133057895Y-163286857D01*
X133096600Y-163364266D01*
X133135304Y-163402971D01*
X133212714Y-163441676D01*
X133290123Y-163441676D01*
X133406238Y-163402971D01*
X133870695Y-162938514D01*
X133870695Y-163441676D01*
X335018514Y-116815695D02*
X335289447Y-116428647D01*
X335482971Y-116815695D02*
X335482971Y-116002895D01*
X335173333Y-116002895D01*
X335095923Y-116041600D01*
X335057219Y-116080304D01*
X335018514Y-116157714D01*
X335018514Y-116273828D01*
X335057219Y-116351238D01*
X335095923Y-116389942D01*
X335173333Y-116428647D01*
X335482971Y-116428647D01*
X334244419Y-116815695D02*
X334708876Y-116815695D01*
X334476647Y-116815695D02*
X334476647Y-116002895D01*
X334554057Y-116119009D01*
X334631466Y-116196419D01*
X334708876Y-116235123D01*
X333470323Y-116815695D02*
X333934780Y-116815695D01*
X333702552Y-116815695D02*
X333702552Y-116002895D01*
X333779961Y-116119009D01*
X333857371Y-116196419D01*
X333934780Y-116235123D01*
X496005695Y-167848485D02*
X495618647Y-167577552D01*
X496005695Y-167384028D02*
X495192895Y-167384028D01*
X495192895Y-167693666D01*
X495231600Y-167771076D01*
X495270304Y-167809780D01*
X495347714Y-167848485D01*
X495463828Y-167848485D01*
X495541238Y-167809780D01*
X495579942Y-167771076D01*
X495618647Y-167693666D01*
X495618647Y-167384028D01*
X495463828Y-168545171D02*
X496005695Y-168545171D01*
X495154190Y-168351647D02*
X495734761Y-168158123D01*
X495734761Y-168661285D01*
X496005695Y-169009628D02*
X496005695Y-169164447D01*
X495966990Y-169241857D01*
X495928285Y-169280561D01*
X495812171Y-169357971D01*
X495657352Y-169396676D01*
X495347714Y-169396676D01*
X495270304Y-169357971D01*
X495231600Y-169319266D01*
X495192895Y-169241857D01*
X495192895Y-169087038D01*
X495231600Y-169009628D01*
X495270304Y-168970923D01*
X495347714Y-168932219D01*
X495541238Y-168932219D01*
X495618647Y-168970923D01*
X495657352Y-169009628D01*
X495696057Y-169087038D01*
X495696057Y-169241857D01*
X495657352Y-169319266D01*
X495618647Y-169357971D01*
X495541238Y-169396676D01*
M02*
