%TF.GenerationSoftware,KiCad,Pcbnew,5.1.9*%
%TF.CreationDate,2021-03-05T10:38:49+01:00*%
%TF.ProjectId,CellsBoard,43656c6c-7342-46f6-9172-642e6b696361,rev?*%
%TF.SameCoordinates,Original*%
%TF.FileFunction,Profile,NP*%
%FSLAX46Y46*%
G04 Gerber Fmt 4.6, Leading zero omitted, Abs format (unit mm)*
G04 Created by KiCad (PCBNEW 5.1.9) date 2021-03-05 10:38:49*
%MOMM*%
%LPD*%
G01*
G04 APERTURE LIST*
%TA.AperFunction,Profile*%
%ADD10C,0.200000*%
%TD*%
G04 APERTURE END LIST*
D10*
X458189500Y-176749420D02*
X421801500Y-176751500D01*
X318163500Y-176750500D02*
X196206500Y-176749500D01*
X69750000Y-176750000D02*
X94194000Y-176750000D01*
X460094500Y-174844420D02*
G75*
G02*
X458189500Y-176749420I-1905000J0D01*
G01*
X460106500Y-174272420D02*
G75*
G02*
X462011500Y-172367420I1905000J0D01*
G01*
X482903000Y-174843920D02*
X482903000Y-174272420D01*
X484808000Y-176748920D02*
G75*
G02*
X482903000Y-174843920I0J1905000D01*
G01*
X480998000Y-172367420D02*
X462011500Y-172367420D01*
X480998000Y-172367420D02*
G75*
G02*
X482903000Y-174272420I0J-1905000D01*
G01*
X460106500Y-174272420D02*
X460094500Y-174844420D01*
X397088000Y-174847000D02*
G75*
G02*
X395183000Y-176752000I-1905000J0D01*
G01*
X397100000Y-174275000D02*
G75*
G02*
X399005000Y-172370000I1905000J0D01*
G01*
X419896500Y-174846500D02*
X419896500Y-174275000D01*
X421801500Y-176751500D02*
G75*
G02*
X419896500Y-174846500I0J1905000D01*
G01*
X417991500Y-172370000D02*
X399005000Y-172370000D01*
X417991500Y-172370000D02*
G75*
G02*
X419896500Y-174275000I0J-1905000D01*
G01*
X397100000Y-174275000D02*
X397088000Y-174847000D01*
X320068500Y-174845500D02*
G75*
G02*
X318163500Y-176750500I-1905000J0D01*
G01*
X320080500Y-174273500D02*
G75*
G02*
X321985500Y-172368500I1905000J0D01*
G01*
X342877000Y-174845000D02*
X342877000Y-174273500D01*
X344782000Y-176750000D02*
G75*
G02*
X342877000Y-174845000I0J1905000D01*
G01*
X340972000Y-172368500D02*
X321985500Y-172368500D01*
X340972000Y-172368500D02*
G75*
G02*
X342877000Y-174273500I0J-1905000D01*
G01*
X320080500Y-174273500D02*
X320068500Y-174845500D01*
X96099000Y-174845000D02*
G75*
G02*
X94194000Y-176750000I-1905000J0D01*
G01*
X96100000Y-174280000D02*
G75*
G02*
X98005000Y-172375000I1905000J0D01*
G01*
X118905000Y-174845000D02*
X118910000Y-174280500D01*
X120810000Y-176750000D02*
G75*
G02*
X118905000Y-174845000I0J1905000D01*
G01*
X117005000Y-172375500D02*
X98005000Y-172375000D01*
X117005000Y-172375500D02*
G75*
G02*
X118910000Y-174280500I0J-1905000D01*
G01*
X96100000Y-174280000D02*
X96099000Y-174845000D01*
X171505000Y-174273000D02*
X171493000Y-174845000D01*
X171493000Y-174845000D02*
G75*
G02*
X169588000Y-176750000I-1905000J0D01*
G01*
X171505000Y-174273000D02*
G75*
G02*
X173410000Y-172368000I1905000J0D01*
G01*
X194301500Y-174844500D02*
X194301500Y-174273000D01*
X196206500Y-176749500D02*
G75*
G02*
X194301500Y-174844500I0J1905000D01*
G01*
X192396500Y-172368000D02*
G75*
G02*
X194301500Y-174273000I0J-1905000D01*
G01*
X192396500Y-172368000D02*
X173410000Y-172368000D01*
X445250000Y-163750000D02*
G75*
G02*
X445000000Y-164000000I-250000J0D01*
G01*
X435500000Y-163750000D02*
X435500000Y-163250000D01*
X435500000Y-163250000D02*
G75*
G02*
X435750000Y-163000000I250000J0D01*
G01*
X445000000Y-164000000D02*
X435750000Y-164000000D01*
X445250000Y-163750000D02*
X445250000Y-163250000D01*
X445000000Y-163000000D02*
G75*
G02*
X445250000Y-163250000I0J-250000D01*
G01*
X445000000Y-163000000D02*
X435750000Y-163000000D01*
X435750000Y-164000000D02*
G75*
G02*
X435500000Y-163750000I0J250000D01*
G01*
X371250000Y-118750000D02*
X371250000Y-118250000D01*
X361500000Y-118750000D02*
X361500000Y-118250000D01*
X371000000Y-119000000D02*
X361750000Y-119000000D01*
X361500000Y-118250000D02*
G75*
G02*
X361750000Y-118000000I250000J0D01*
G01*
X371000000Y-118000000D02*
G75*
G02*
X371250000Y-118250000I0J-250000D01*
G01*
X371000000Y-118000000D02*
X361750000Y-118000000D01*
X361750000Y-119000000D02*
G75*
G02*
X361500000Y-118750000I0J250000D01*
G01*
X371250000Y-118750000D02*
G75*
G02*
X371000000Y-119000000I-250000J0D01*
G01*
X296750000Y-163750000D02*
X296750000Y-163250000D01*
X287000000Y-163750000D02*
X287000000Y-163250000D01*
X296500000Y-164000000D02*
X287250000Y-164000000D01*
X287250000Y-164000000D02*
G75*
G02*
X287000000Y-163750000I0J250000D01*
G01*
X296750000Y-163750000D02*
G75*
G02*
X296500000Y-164000000I-250000J0D01*
G01*
X296500000Y-163000000D02*
X287250000Y-163000000D01*
X287000000Y-163250000D02*
G75*
G02*
X287250000Y-163000000I250000J0D01*
G01*
X296500000Y-163000000D02*
G75*
G02*
X296750000Y-163250000I0J-250000D01*
G01*
X222250000Y-118000000D02*
G75*
G02*
X222500000Y-118250000I0J-250000D01*
G01*
X212750000Y-118750000D02*
X212750000Y-118250000D01*
X222500000Y-118750000D02*
G75*
G02*
X222250000Y-119000000I-250000J0D01*
G01*
X222250000Y-119000000D02*
X213000000Y-119000000D01*
X222250000Y-118000000D02*
X213000000Y-118000000D01*
X212750000Y-118250000D02*
G75*
G02*
X213000000Y-118000000I250000J0D01*
G01*
X222500000Y-118750000D02*
X222500000Y-118250000D01*
X213000000Y-119000000D02*
G75*
G02*
X212750000Y-118750000I0J250000D01*
G01*
X69750000Y-174250000D02*
X71250000Y-174250000D01*
X69250000Y-174750000D02*
X69250000Y-176250000D01*
X69250000Y-174750000D02*
G75*
G02*
X69750000Y-174250000I500000J0D01*
G01*
X71750000Y-173750000D02*
G75*
G02*
X71250000Y-174250000I-500000J0D01*
G01*
X148250000Y-163000000D02*
G75*
G02*
X148500000Y-163250000I0J-250000D01*
G01*
X148250000Y-163000000D02*
X139000000Y-163000000D01*
X138750000Y-163250000D02*
G75*
G02*
X139000000Y-163000000I250000J0D01*
G01*
X148500000Y-163750000D02*
X148500000Y-163250000D01*
X139000000Y-164000000D02*
G75*
G02*
X138750000Y-163750000I0J250000D01*
G01*
X138750000Y-163750000D02*
X138750000Y-163250000D01*
X148500000Y-163750000D02*
G75*
G02*
X148250000Y-164000000I-250000J0D01*
G01*
X148250000Y-164000000D02*
X139000000Y-164000000D01*
X369500000Y-161000000D02*
X369500000Y-156500000D01*
X72750000Y-161250000D02*
X72750000Y-156750000D01*
X512500000Y-118500000D02*
X512500000Y-115000000D01*
X512750000Y-118750000D02*
G75*
G02*
X512500000Y-118500000I0J250000D01*
G01*
X514750000Y-114250000D02*
G75*
G02*
X514250000Y-114750000I-500000J0D01*
G01*
X514250000Y-118750000D02*
G75*
G02*
X514750000Y-119250000I0J-500000D01*
G01*
X514250000Y-114750000D02*
X512750000Y-114750000D01*
X512500000Y-115000000D02*
G75*
G02*
X512750000Y-114750000I250000J0D01*
G01*
X514250000Y-118750000D02*
X512750000Y-118750000D01*
X71500000Y-115000000D02*
X71500000Y-118750000D01*
X71250000Y-114750000D02*
G75*
G02*
X71500000Y-115000000I0J-250000D01*
G01*
X71500000Y-118750000D02*
G75*
G02*
X71250000Y-119000000I-250000J0D01*
G01*
X69750000Y-119000000D02*
X71250000Y-119000000D01*
X69750000Y-114750000D02*
X71250000Y-114750000D01*
X219750000Y-162000000D02*
G75*
G02*
X220250000Y-161500000I500000J0D01*
G01*
X220250000Y-156000000D02*
G75*
G02*
X219750000Y-155500000I0J500000D01*
G01*
X220750000Y-161000000D02*
X220750000Y-156500000D01*
X220750000Y-161000000D02*
G75*
G02*
X220250000Y-161500000I-500000J0D01*
G01*
X220250000Y-156000000D02*
G75*
G02*
X220750000Y-156500000I0J-500000D01*
G01*
X219500000Y-174250000D02*
X215750000Y-174250000D01*
X219750000Y-174000000D02*
G75*
G02*
X219500000Y-174250000I-250000J0D01*
G01*
X215750000Y-174250000D02*
G75*
G02*
X215500000Y-174000000I0J250000D01*
G01*
X368250000Y-174250000D02*
X364500000Y-174250000D01*
X368500000Y-174000000D02*
G75*
G02*
X368250000Y-174250000I-250000J0D01*
G01*
X364500000Y-174250000D02*
G75*
G02*
X364250000Y-174000000I0J250000D01*
G01*
X289500000Y-108000000D02*
G75*
G02*
X289750000Y-107750000I250000J0D01*
G01*
X289750000Y-107750000D02*
X294250000Y-107750000D01*
X294250000Y-107750000D02*
G75*
G02*
X294500000Y-108000000I0J-250000D01*
G01*
X438500000Y-107750000D02*
X442250000Y-107750000D01*
X438250000Y-108000000D02*
G75*
G02*
X438500000Y-107750000I250000J0D01*
G01*
X442250000Y-107750000D02*
G75*
G02*
X442500000Y-108000000I0J-250000D01*
G01*
X145500000Y-107750000D02*
G75*
G02*
X145750000Y-108000000I0J-250000D01*
G01*
X141500000Y-108000000D02*
G75*
G02*
X141750000Y-107750000I250000J0D01*
G01*
X141750000Y-107750000D02*
X145500000Y-107750000D01*
X368250000Y-152750000D02*
G75*
G02*
X368500000Y-153000000I0J-250000D01*
G01*
X364250000Y-153000000D02*
G75*
G02*
X364500000Y-152750000I250000J0D01*
G01*
X215500000Y-153000000D02*
G75*
G02*
X215750000Y-152750000I250000J0D01*
G01*
X219500000Y-152750000D02*
G75*
G02*
X219750000Y-153000000I0J-250000D01*
G01*
X71500000Y-152750000D02*
G75*
G02*
X71750000Y-153000000I0J-250000D01*
G01*
X141750000Y-129250000D02*
G75*
G02*
X141500000Y-129000000I0J250000D01*
G01*
X145750000Y-129000000D02*
G75*
G02*
X145500000Y-129250000I-250000J0D01*
G01*
X294500000Y-129000000D02*
G75*
G02*
X294250000Y-129250000I-250000J0D01*
G01*
X289750000Y-129250000D02*
G75*
G02*
X289500000Y-129000000I0J250000D01*
G01*
X442500000Y-129000000D02*
G75*
G02*
X442250000Y-129250000I-250000J0D01*
G01*
X438500000Y-129250000D02*
G75*
G02*
X438250000Y-129000000I0J250000D01*
G01*
X514250000Y-105250000D02*
G75*
G02*
X514750000Y-105750000I0J-500000D01*
G01*
X514750000Y-152250000D02*
G75*
G02*
X514250000Y-152750000I-500000J0D01*
G01*
X294250000Y-129250000D02*
X289750000Y-129250000D01*
X294500000Y-108000000D02*
X294500000Y-129000000D01*
X289500000Y-108000000D02*
X289500000Y-129000000D01*
X141500000Y-108000000D02*
X141500000Y-129000000D01*
X145750000Y-108000000D02*
X145750000Y-129000000D01*
X145500000Y-129250000D02*
X141750000Y-129250000D01*
X512250000Y-153000000D02*
G75*
G02*
X512500000Y-152750000I250000J0D01*
G01*
X512250000Y-176250000D02*
G75*
G02*
X511750000Y-176750000I-500000J0D01*
G01*
X438250000Y-108000000D02*
X438250000Y-129000000D01*
X442250000Y-129250000D02*
X438500000Y-129250000D01*
X442500000Y-108000000D02*
X442500000Y-129000000D01*
X364250000Y-174000000D02*
X364250000Y-153000000D01*
X364500000Y-152750000D02*
X368250000Y-152750000D01*
X368500000Y-174000000D02*
X368500000Y-162000000D01*
X368500000Y-155500000D02*
X368500000Y-153000000D01*
X369000000Y-156000000D02*
G75*
G02*
X369500000Y-156500000I0J-500000D01*
G01*
X369500000Y-161000000D02*
G75*
G02*
X369000000Y-161500000I-500000J0D01*
G01*
X369000000Y-156000000D02*
G75*
G02*
X368500000Y-155500000I0J500000D01*
G01*
X368500000Y-162000000D02*
G75*
G02*
X369000000Y-161500000I500000J0D01*
G01*
X219750000Y-155500000D02*
X219750000Y-153000000D01*
X71750000Y-162250000D02*
X71750000Y-173750000D01*
X71750000Y-162250000D02*
G75*
G02*
X72250000Y-161750000I500000J0D01*
G01*
X72250000Y-156250000D02*
G75*
G02*
X72750000Y-156750000I0J-500000D01*
G01*
X72250000Y-156250000D02*
G75*
G02*
X71750000Y-155750000I0J500000D01*
G01*
X69750000Y-176750000D02*
G75*
G02*
X69250000Y-176250000I0J500000D01*
G01*
X69750000Y-152750000D02*
G75*
G02*
X69250000Y-152250000I0J500000D01*
G01*
X69250000Y-119500000D02*
G75*
G02*
X69750000Y-119000000I500000J0D01*
G01*
X69250000Y-105750000D02*
G75*
G02*
X69750000Y-105250000I500000J0D01*
G01*
X69750000Y-114750000D02*
G75*
G02*
X69250000Y-114250000I0J500000D01*
G01*
X69250000Y-105750000D02*
X69250000Y-114250000D01*
X512500000Y-152750000D02*
X514250000Y-152750000D01*
X215500000Y-174000000D02*
X215500000Y-153000000D01*
X69750000Y-152750000D02*
X71500000Y-152750000D01*
X484808000Y-176748920D02*
X511750000Y-176750000D01*
X514750000Y-114250000D02*
X514750000Y-105750000D01*
X215750000Y-152750000D02*
X219500000Y-152750000D01*
X71750000Y-153000000D02*
X71750000Y-155750000D01*
X514250000Y-105250000D02*
X69750000Y-105250000D01*
X344782000Y-176750000D02*
X395183000Y-176752000D01*
X69250000Y-119500000D02*
X69250000Y-152250000D01*
X120810000Y-176750000D02*
X169588000Y-176750000D01*
X514750000Y-152250000D02*
X514750000Y-119250000D01*
X512250000Y-176250000D02*
X512250000Y-153000000D01*
X219750000Y-174000000D02*
X219750000Y-162000000D01*
X72750000Y-161250000D02*
G75*
G02*
X72250000Y-161750000I-500000J0D01*
G01*
M02*
