M48
; DRILL file {KiCad (5.1.6)-1} date 09/13/20 17:37:46
; FORMAT={-:-/ absolute / inch / decimal}
; #@! TF.CreationDate,2020-09-13T17:37:46+02:00
; #@! TF.GenerationSoftware,Kicad,Pcbnew,(5.1.6)-1
; #@! TF.FileFunction,Plated,1,2,PTH
FMAT,2
INCH
T1C0.0098
T2C0.0118
T3C0.0157
T4C0.0300
T5C0.0335
T6C0.0394
T7C0.0433
T8C0.0472
T9C0.0709
T10C0.1575
%
G90
G05
T1
X0.9941Y-3.8976
X0.9941Y-3.9469
X1.0236Y-3.248
X1.0433Y-3.8976
X1.0433Y-3.9469
X1.0925Y-3.3661
X1.0925Y-3.8484
X1.1122Y-3.4055
X1.1417Y-2.7461
X1.1713Y-3.2776
X1.2008Y-3.8976
X1.2224Y-3.3484
X1.3189Y-3.8878
X1.3287Y-2.7559
X1.3583Y-1.6732
X1.3681Y-1.8406
X1.3991Y-2.0753
X1.4469Y-2.5394
X1.4469Y-2.6181
X1.4469Y-2.7657
X1.4685Y-3.5512
X1.4705Y-3.5197
X1.4749Y-2.1373
X1.4764Y-3.4882
X1.4862Y-2.1752
X1.4961Y-2.3819
X1.4961Y-2.7657
X1.5059Y-3.6417
X1.5157Y-1.6732
X1.5256Y-1.8307
X1.5453Y-2.6181
X1.5729Y-3.3582
X1.5945Y-2.9429
X1.6043Y-2.6742
X1.624Y-2.6998
X1.624Y-2.7657
X1.6339Y-3.5925
X1.6516Y-2.5118
X1.6535Y-2.3622
X1.6634Y-1.7717
X1.7028Y-3.1693
X1.7028Y-3.2087
X1.7028Y-3.248
X1.7028Y-3.2874
X1.7126Y-3.6811
X1.7421Y-3.3858
X1.752Y-3.1693
X1.752Y-3.2087
X1.752Y-3.248
X1.752Y-3.2874
X1.7815Y-2.8445
X1.7913Y-3.7795
X1.8012Y-3.1693
X1.8012Y-3.2087
X1.8012Y-3.248
X1.8012Y-3.2874
X1.8012Y-3.4213
X1.8209Y-2.7362
X1.8307Y-3.3583
X1.8504Y-3.1693
X1.8504Y-3.2087
X1.8504Y-3.248
X1.8504Y-3.2874
X1.8543Y-3.3898
X1.8701Y-2.7756
X1.8996Y-3.1693
X1.8996Y-3.2087
X1.8996Y-3.248
X1.8996Y-3.2874
X2.0079Y-2.0768
X2.0079Y-2.815
X2.0177Y-2.6673
X2.0177Y-2.7559
X2.0472Y-2.6673
X2.0472Y-3.5039
X2.0472Y-2.7559
X2.0571Y-2.5984
X2.0965Y-3.5531
X2.1014Y-3.4498
X2.1063Y-2.372
X2.1358Y-2.4016
X2.1654Y-2.4213
X2.1752Y-1.7224
X2.1752Y-1.9488
X2.1949Y-1.8209
X2.2146Y-1.6142
X2.2244Y-2.0177
X2.2244Y-2.1752
X2.2244Y-2.6083
X2.252Y-2.2835
X2.2539Y-2.3524
X2.2835Y-2.3819
X2.2835Y-3.5531
X2.2933Y-2.5295
X2.3031Y-1.565
X2.313Y-3.5827
X2.313Y-3.6122
X2.313Y-3.6713
X2.3228Y-1.5945
X2.3524Y-2.3228
X2.3622Y-2.1457
X2.3747Y-2.1751
X2.3819Y-2.5197
X2.3819Y-3.4941
X2.3819Y-3.5827
X2.3819Y-3.6122
X2.3917Y-3.7106
X2.4232Y-3.5236
X2.4449Y-2.3228
X2.4508Y-2.1949
X2.4606Y-2.4803
X2.4803Y-2.3031
X2.4803Y-3.1102
X2.4902Y-2.1457
X2.5Y-2.4016
X2.5Y-2.4803
X2.5Y-3.3858
X2.5Y-3.4252
X2.5Y-3.4547
X2.5098Y-2.2736
X2.5394Y-2.3031
X2.5394Y-2.4803
X2.5492Y-3.5236
X2.5689Y-2.2441
X2.5689Y-2.4311
X2.5886Y-2.4803
X2.5968Y-3.3445
X2.5984Y-2.3819
X2.6022Y-3.3155
X2.6083Y-3.2382
X2.6083Y-3.3858
X2.6476Y-2.9921
X2.6476Y-3.4252
X2.6673Y-3.4547
X2.6772Y-2.8346
X2.7067Y-3.0413
X2.7362Y-3.1988
X2.7362Y-3.2382
X2.7461Y-2.3425
X2.7461Y-3.2874
X2.749Y-2.1457
X2.749Y-2.3819
X2.7559Y-3.0217
X2.7756Y-2.4016
X2.7854Y-3.5335
X2.787Y-3.0194
X2.8002Y-2.3228
X2.8143Y-3.008
X2.815Y-2.6673
X2.815Y-3.563
X2.8248Y-2.3031
X2.8346Y-2.1457
X2.8386Y-3.0413
X2.8445Y-3.3071
X2.8445Y-3.376
X2.8524Y-3.496
X2.8543Y-3.1594
X2.8543Y-3.5335
X2.8543Y-3.5925
X2.8563Y-2.7067
X2.8642Y-2.2638
X2.874Y-2.1457
X2.8771Y-3.3628
X2.8878Y-2.7067
X2.9035Y-3.376
X2.9134Y-2.2835
X2.9134Y-2.5295
X2.9154Y-2.3996
X2.9193Y-2.7067
X2.9232Y-2.6378
X2.9232Y-3.1791
X2.9528Y-3.5138
X2.9724Y-2.5394
X2.9724Y-3.4843
X2.9823Y-2.1516
X3.002Y-2.4016
X3.0118Y-3.0709
X3.0197Y-2.3228
X3.0413Y-2.5394
X3.0433Y-2.4016
X3.0709Y-2.2835
X3.0807Y-2.6378
X3.0807Y-3.2776
X3.0922Y-3.1185
X3.0965Y-2.7717
X3.1004Y-2.5394
X3.1004Y-3.1988
X3.1102Y-2.4311
X3.1102Y-3.3957
X3.1201Y-2.2835
X3.1496Y-2.9823
X3.1594Y-2.3228
X3.1594Y-2.3524
X3.1791Y-2.3976
X3.2185Y-3.4449
X3.2423Y-2.3228
X3.2677Y-2.874
X3.3563Y-2.2146
X3.3563Y-2.8445
X3.376Y-2.0669
X3.3858Y-3.1398
X3.3878Y-2.3524
X3.3878Y-2.5374
X3.4055Y-3.2776
X3.4193Y-2.3524
X3.4193Y-2.5059
X3.435Y-3.3071
X3.4508Y-2.3524
X3.4508Y-2.5335
X3.4547Y-2.1063
X3.4646Y-3.3366
X3.4823Y-2.3524
X3.4823Y-2.5059
X3.4941Y-3.1398
X3.4941Y-3.3661
X3.5167Y-2.7067
X3.5236Y-1.8406
X3.5236Y-2.3917
X3.5236Y-4.2618
X3.5423Y-2.7264
X3.5423Y-3.0807
X3.5531Y-2.3425
X3.563Y-3.3957
X3.565Y-2.5374
X3.5679Y-2.7067
X3.5679Y-3.1004
X3.5925Y-2.7264
X3.5935Y-3.0807
X3.5965Y-2.5059
X3.6191Y-3.1004
X3.628Y-2.3425
X3.628Y-2.5335
X3.6447Y-3.0807
X3.6516Y-2.3228
X3.6516Y-3.8976
X3.6594Y-2.5059
X3.6703Y-3.1004
X3.6959Y-3.0807
X3.7008Y-2.1949
X3.7215Y-3.1004
X3.7402Y-2.2933
X3.7421Y-2.3543
X3.7421Y-2.5374
X3.747Y-2.7559
X3.7598Y-2.2638
X3.7598Y-3.1594
X3.7697Y-1.811
X3.7697Y-1.9685
X3.7736Y-2.3228
X3.7736Y-2.5059
X3.7795Y-2.7559
X3.7894Y-3.1594
X3.7992Y-3.2776
X3.7992Y-3.3169
X3.7992Y-3.6811
X3.8051Y-2.5335
X3.8091Y-2.7559
X3.8189Y-3.1594
X3.8287Y-4.2224
X3.8366Y-2.3425
X3.8366Y-2.5059
X3.8425Y-2.2579
X3.8484Y-3.0354
X3.8484Y-3.1693
X3.8583Y-2.9232
X3.8583Y-3.6713
X3.8853Y-3.4424
X3.8873Y-1.7318
X3.937Y-1.7323
X3.937Y-1.8996
X3.9567Y-2.9232
X3.9567Y-2.8642
X3.9764Y-3.3957
X3.9862Y-3.0709
X4.0256Y-3.8976
X4.0354Y-1.8996
X4.0354Y-3.8484
X4.0376Y-3.4132
X4.0404Y-3.9616
X4.065Y-2.815
X4.1954Y-2.8445
X4.498Y-2.9232
X4.5374Y-2.7756
X4.5768Y-3.248
X4.5768Y-3.7303
X4.5866Y-3.3465
X4.5866Y-3.435
X4.5965Y-2.9331
X4.5965Y-3.8386
X4.6063Y-3.9764
X4.626Y-3.9173
X4.7343Y-3.3465
X4.7343Y-3.435
X4.7539Y-3.8386
X4.7721Y-3.2958
X4.7918Y-2.8558
X4.8524Y-3.4843
X4.9409Y-2.8346
X4.9902Y-3.3661
X5.0197Y-1.5256
X5.0197Y-1.5748
X5.0197Y-1.624
X5.0197Y-1.7028
X5.0197Y-1.752
X5.0197Y-1.8012
X5.0579Y-3.435
X5.0689Y-1.5256
X5.0689Y-1.5748
X5.0689Y-1.752
X5.0689Y-1.8012
X5.1181Y-1.5256
X5.1181Y-1.8012
X5.1673Y-1.5256
X5.1673Y-1.8012
X5.2165Y-1.5256
X5.2165Y-1.8012
X5.2362Y-3.189
X5.2657Y-1.5256
X5.2657Y-1.5748
X5.2657Y-1.752
X5.2657Y-1.8012
X5.315Y-1.5256
X5.315Y-1.5748
X5.315Y-1.624
X5.315Y-1.7028
X5.315Y-1.752
X5.315Y-1.8012
X5.4528Y-2.5394
T2
X2.6772Y-2.3917
T3
X1.0138Y-1.9094
T4
X4.7614Y-3.1398
X4.8614Y-3.1398
X4.9614Y-3.1398
X5.0614Y-3.1398
X1.1894Y-3.0512
X1.2894Y-3.0512
X1.3894Y-3.0512
T5
X4.0807Y-1.687
X4.0807Y-2.4862
X4.5807Y-1.5366
X4.5807Y-2.6366
T6
X5.4921Y-3.8386
X5.4921Y-3.9567
X5.2559Y-2.8839
X5.2559Y-3.002
X5.374Y-2.8839
X5.374Y-3.002
X4.0748Y-3.5531
X4.1748Y-3.5531
X4.4748Y-3.5531
X4.6748Y-3.5531
X2.5197Y-1.6437
X2.5197Y-1.7618
X2.6378Y-1.6437
X2.6378Y-1.7618
X2.7559Y-1.6437
X2.7559Y-1.7618
X2.874Y-1.6437
X2.874Y-1.7618
X2.9921Y-1.6437
X2.9921Y-1.7618
X3.1102Y-1.6437
X3.1102Y-1.7618
X4.813Y-4.0453
X4.813Y-4.1634
X1.0827Y-2.372
X1.0827Y-2.4902
X1.0827Y-2.6083
X1.2008Y-2.372
X1.2008Y-2.4902
X1.2008Y-2.6083
X1.1909Y-1.6831
X1.1909Y-1.8012
X1.1909Y-1.9193
X1.1909Y-2.0374
X3.5236Y-1.6142
X3.5236Y-1.7323
X3.6417Y-1.6142
X3.6417Y-1.7323
X1.752Y-1.7028
X1.752Y-1.8209
X1.752Y-1.939
X1.8701Y-1.7028
X1.8701Y-1.8209
X1.8701Y-1.939
X5.4921Y-3.3563
X5.4921Y-3.4744
X4.813Y-4.0453
X4.813Y-4.1634
X4.9311Y-4.0453
X4.9311Y-4.1634
X3.5236Y-2.0472
X3.5236Y-2.1654
X3.6417Y-2.0472
X3.6417Y-2.1654
T7
X2.5Y-1.9882
X2.6Y-1.9882
X2.9Y-1.9882
X3.2Y-1.9882
T8
X2.2343Y-3.0413
X2.2343Y-3.1398
X2.2343Y-3.2382
X2.2343Y-3.3366
X2.3327Y-3.0413
X2.3327Y-3.1398
X2.3327Y-3.2382
X2.3327Y-3.3366
T9
X5.0709Y-2.1063
X5.0709Y-2.3307
X5.2953Y-2.1063
X5.2953Y-2.3307
T10
X5.1673Y-1.6634
T0
M30
