M48
; DRILL file {KiCad (5.1.6)-1} date 09/13/20 17:37:46
; FORMAT={-:-/ absolute / inch / decimal}
; #@! TF.CreationDate,2020-09-13T17:37:46+02:00
; #@! TF.GenerationSoftware,Kicad,Pcbnew,(5.1.6)-1
; #@! TF.FileFunction,NonPlated,1,2,NPTH
FMAT,2
INCH
T1C0.0394
T2C0.0512
T3C0.0709
T4C0.1181
%
G90
G05
T1
X4.9681Y-4.2815
X5.5693Y-3.7205
X5.5693Y-4.0748
X5.411Y-3.1201
X1.2378Y-2.2539
X1.2378Y-2.7264
X1.2681Y-1.565
X1.2681Y-2.1555
X3.4055Y-1.5772
X3.7598Y-1.5772
X1.9071Y-1.5846
X1.9071Y-2.0571
X5.5693Y-3.2382
X5.5693Y-3.5925
X4.9681Y-3.9272
X3.4055Y-2.2024
X3.7598Y-2.2024
X5.411Y-2.7657
X2.4016Y-1.6067
X3.2283Y-1.6067
X4.8902Y-3.9272
X4.8902Y-4.2815
T2
X2.1815Y-3.189
T3
X4.9618Y-2.4283
T4
X1.8898Y-2.4114
X4.6752Y-2.126
X1.2106Y-4.1043
X5.2362Y-4.1732
T0
M30
