G04 #@! TF.GenerationSoftware,KiCad,Pcbnew,(5.1.6)-1*
G04 #@! TF.CreationDate,2020-09-13T17:37:44+02:00*
G04 #@! TF.ProjectId,MainBoard,4d61696e-426f-4617-9264-2e6b69636164,rev?*
G04 #@! TF.SameCoordinates,Original*
G04 #@! TF.FileFunction,Paste,Top*
G04 #@! TF.FilePolarity,Positive*
%FSLAX46Y46*%
G04 Gerber Fmt 4.6, Leading zero omitted, Abs format (unit mm)*
G04 Created by KiCad (PCBNEW (5.1.6)-1) date 2020-09-13 17:37:44*
%MOMM*%
%LPD*%
G01*
G04 APERTURE LIST*
G04 #@! TA.AperFunction,Profile*
%ADD10C,0.153000*%
G04 #@! TD*
G04 #@! TA.AperFunction,Profile*
%ADD11C,0.200000*%
G04 #@! TD*
%ADD12R,0.300000X1.400000*%
%ADD13R,0.450000X1.450000*%
%ADD14R,1.220000X0.400000*%
%ADD15R,0.900000X0.300000*%
%ADD16R,3.810000X1.620000*%
%ADD17R,8.510000X7.870000*%
%ADD18R,1.300000X0.750000*%
%ADD19R,0.400000X1.220000*%
%ADD20R,0.400000X0.650000*%
%ADD21R,0.450000X0.600000*%
%ADD22R,0.450000X0.700000*%
%ADD23R,0.650000X1.220000*%
%ADD24R,2.600000X1.500000*%
%ADD25R,1.450000X0.450000*%
%ADD26R,1.500000X2.000000*%
%ADD27R,3.800000X2.000000*%
%ADD28R,0.450000X1.500000*%
%ADD29R,0.450000X0.900000*%
%ADD30R,0.900000X0.450000*%
%ADD31R,0.400000X1.100000*%
%ADD32C,0.153000*%
%ADD33R,0.400000X0.750000*%
%ADD34R,0.800000X0.750000*%
G04 APERTURE END LIST*
D10*
X51050000Y-94250000D02*
G75*
G03*
X51050000Y-94250000I-1050000J0D01*
G01*
D11*
X68500000Y-110250000D02*
X25750000Y-110250000D01*
X76000000Y-110250000D02*
G75*
G02*
X75500000Y-109750000I0J500000D01*
G01*
X69000000Y-109750000D02*
G75*
G02*
X68500000Y-110250000I-500000J0D01*
G01*
X69000000Y-109750000D02*
G75*
G02*
X75500000Y-109750000I3250000J0D01*
G01*
X23250000Y-39500000D02*
G75*
G02*
X25750000Y-37000000I2500000J0D01*
G01*
X25750000Y-110250000D02*
G75*
G02*
X23250000Y-107750000I0J2500000D01*
G01*
X23250000Y-107750000D02*
X23250000Y-39500000D01*
X142250000Y-37000000D02*
X25750000Y-37000000D01*
X142250000Y-110250000D02*
X76000000Y-110250000D01*
X142250000Y-37000000D02*
G75*
G02*
X144750000Y-39500000I0J-2500000D01*
G01*
X144750000Y-107750000D02*
G75*
G02*
X142250000Y-110250000I-2500000J0D01*
G01*
X144750000Y-39500000D02*
X144750000Y-107750000D01*
G36*
G01*
X68750000Y-85900000D02*
X67425000Y-85900000D01*
G75*
G02*
X67350000Y-85825000I0J75000D01*
G01*
X67350000Y-85675000D01*
G75*
G02*
X67425000Y-85600000I75000J0D01*
G01*
X68750000Y-85600000D01*
G75*
G02*
X68825000Y-85675000I0J-75000D01*
G01*
X68825000Y-85825000D01*
G75*
G02*
X68750000Y-85900000I-75000J0D01*
G01*
G37*
G36*
G01*
X68750000Y-85400000D02*
X67425000Y-85400000D01*
G75*
G02*
X67350000Y-85325000I0J75000D01*
G01*
X67350000Y-85175000D01*
G75*
G02*
X67425000Y-85100000I75000J0D01*
G01*
X68750000Y-85100000D01*
G75*
G02*
X68825000Y-85175000I0J-75000D01*
G01*
X68825000Y-85325000D01*
G75*
G02*
X68750000Y-85400000I-75000J0D01*
G01*
G37*
G36*
G01*
X68750000Y-84900000D02*
X67425000Y-84900000D01*
G75*
G02*
X67350000Y-84825000I0J75000D01*
G01*
X67350000Y-84675000D01*
G75*
G02*
X67425000Y-84600000I75000J0D01*
G01*
X68750000Y-84600000D01*
G75*
G02*
X68825000Y-84675000I0J-75000D01*
G01*
X68825000Y-84825000D01*
G75*
G02*
X68750000Y-84900000I-75000J0D01*
G01*
G37*
G36*
G01*
X68750000Y-84400000D02*
X67425000Y-84400000D01*
G75*
G02*
X67350000Y-84325000I0J75000D01*
G01*
X67350000Y-84175000D01*
G75*
G02*
X67425000Y-84100000I75000J0D01*
G01*
X68750000Y-84100000D01*
G75*
G02*
X68825000Y-84175000I0J-75000D01*
G01*
X68825000Y-84325000D01*
G75*
G02*
X68750000Y-84400000I-75000J0D01*
G01*
G37*
G36*
G01*
X68750000Y-83900000D02*
X67425000Y-83900000D01*
G75*
G02*
X67350000Y-83825000I0J75000D01*
G01*
X67350000Y-83675000D01*
G75*
G02*
X67425000Y-83600000I75000J0D01*
G01*
X68750000Y-83600000D01*
G75*
G02*
X68825000Y-83675000I0J-75000D01*
G01*
X68825000Y-83825000D01*
G75*
G02*
X68750000Y-83900000I-75000J0D01*
G01*
G37*
G36*
G01*
X68750000Y-83400000D02*
X67425000Y-83400000D01*
G75*
G02*
X67350000Y-83325000I0J75000D01*
G01*
X67350000Y-83175000D01*
G75*
G02*
X67425000Y-83100000I75000J0D01*
G01*
X68750000Y-83100000D01*
G75*
G02*
X68825000Y-83175000I0J-75000D01*
G01*
X68825000Y-83325000D01*
G75*
G02*
X68750000Y-83400000I-75000J0D01*
G01*
G37*
G36*
G01*
X68750000Y-82900000D02*
X67425000Y-82900000D01*
G75*
G02*
X67350000Y-82825000I0J75000D01*
G01*
X67350000Y-82675000D01*
G75*
G02*
X67425000Y-82600000I75000J0D01*
G01*
X68750000Y-82600000D01*
G75*
G02*
X68825000Y-82675000I0J-75000D01*
G01*
X68825000Y-82825000D01*
G75*
G02*
X68750000Y-82900000I-75000J0D01*
G01*
G37*
G36*
G01*
X68750000Y-82400000D02*
X67425000Y-82400000D01*
G75*
G02*
X67350000Y-82325000I0J75000D01*
G01*
X67350000Y-82175000D01*
G75*
G02*
X67425000Y-82100000I75000J0D01*
G01*
X68750000Y-82100000D01*
G75*
G02*
X68825000Y-82175000I0J-75000D01*
G01*
X68825000Y-82325000D01*
G75*
G02*
X68750000Y-82400000I-75000J0D01*
G01*
G37*
G36*
G01*
X68750000Y-81900000D02*
X67425000Y-81900000D01*
G75*
G02*
X67350000Y-81825000I0J75000D01*
G01*
X67350000Y-81675000D01*
G75*
G02*
X67425000Y-81600000I75000J0D01*
G01*
X68750000Y-81600000D01*
G75*
G02*
X68825000Y-81675000I0J-75000D01*
G01*
X68825000Y-81825000D01*
G75*
G02*
X68750000Y-81900000I-75000J0D01*
G01*
G37*
G36*
G01*
X68750000Y-81400000D02*
X67425000Y-81400000D01*
G75*
G02*
X67350000Y-81325000I0J75000D01*
G01*
X67350000Y-81175000D01*
G75*
G02*
X67425000Y-81100000I75000J0D01*
G01*
X68750000Y-81100000D01*
G75*
G02*
X68825000Y-81175000I0J-75000D01*
G01*
X68825000Y-81325000D01*
G75*
G02*
X68750000Y-81400000I-75000J0D01*
G01*
G37*
G36*
G01*
X68750000Y-80900000D02*
X67425000Y-80900000D01*
G75*
G02*
X67350000Y-80825000I0J75000D01*
G01*
X67350000Y-80675000D01*
G75*
G02*
X67425000Y-80600000I75000J0D01*
G01*
X68750000Y-80600000D01*
G75*
G02*
X68825000Y-80675000I0J-75000D01*
G01*
X68825000Y-80825000D01*
G75*
G02*
X68750000Y-80900000I-75000J0D01*
G01*
G37*
G36*
G01*
X68750000Y-80400000D02*
X67425000Y-80400000D01*
G75*
G02*
X67350000Y-80325000I0J75000D01*
G01*
X67350000Y-80175000D01*
G75*
G02*
X67425000Y-80100000I75000J0D01*
G01*
X68750000Y-80100000D01*
G75*
G02*
X68825000Y-80175000I0J-75000D01*
G01*
X68825000Y-80325000D01*
G75*
G02*
X68750000Y-80400000I-75000J0D01*
G01*
G37*
G36*
G01*
X69575000Y-79575000D02*
X69425000Y-79575000D01*
G75*
G02*
X69350000Y-79500000I0J75000D01*
G01*
X69350000Y-78175000D01*
G75*
G02*
X69425000Y-78100000I75000J0D01*
G01*
X69575000Y-78100000D01*
G75*
G02*
X69650000Y-78175000I0J-75000D01*
G01*
X69650000Y-79500000D01*
G75*
G02*
X69575000Y-79575000I-75000J0D01*
G01*
G37*
G36*
G01*
X70075000Y-79575000D02*
X69925000Y-79575000D01*
G75*
G02*
X69850000Y-79500000I0J75000D01*
G01*
X69850000Y-78175000D01*
G75*
G02*
X69925000Y-78100000I75000J0D01*
G01*
X70075000Y-78100000D01*
G75*
G02*
X70150000Y-78175000I0J-75000D01*
G01*
X70150000Y-79500000D01*
G75*
G02*
X70075000Y-79575000I-75000J0D01*
G01*
G37*
G36*
G01*
X70575000Y-79575000D02*
X70425000Y-79575000D01*
G75*
G02*
X70350000Y-79500000I0J75000D01*
G01*
X70350000Y-78175000D01*
G75*
G02*
X70425000Y-78100000I75000J0D01*
G01*
X70575000Y-78100000D01*
G75*
G02*
X70650000Y-78175000I0J-75000D01*
G01*
X70650000Y-79500000D01*
G75*
G02*
X70575000Y-79575000I-75000J0D01*
G01*
G37*
G36*
G01*
X71075000Y-79575000D02*
X70925000Y-79575000D01*
G75*
G02*
X70850000Y-79500000I0J75000D01*
G01*
X70850000Y-78175000D01*
G75*
G02*
X70925000Y-78100000I75000J0D01*
G01*
X71075000Y-78100000D01*
G75*
G02*
X71150000Y-78175000I0J-75000D01*
G01*
X71150000Y-79500000D01*
G75*
G02*
X71075000Y-79575000I-75000J0D01*
G01*
G37*
G36*
G01*
X71575000Y-79575000D02*
X71425000Y-79575000D01*
G75*
G02*
X71350000Y-79500000I0J75000D01*
G01*
X71350000Y-78175000D01*
G75*
G02*
X71425000Y-78100000I75000J0D01*
G01*
X71575000Y-78100000D01*
G75*
G02*
X71650000Y-78175000I0J-75000D01*
G01*
X71650000Y-79500000D01*
G75*
G02*
X71575000Y-79575000I-75000J0D01*
G01*
G37*
G36*
G01*
X72075000Y-79575000D02*
X71925000Y-79575000D01*
G75*
G02*
X71850000Y-79500000I0J75000D01*
G01*
X71850000Y-78175000D01*
G75*
G02*
X71925000Y-78100000I75000J0D01*
G01*
X72075000Y-78100000D01*
G75*
G02*
X72150000Y-78175000I0J-75000D01*
G01*
X72150000Y-79500000D01*
G75*
G02*
X72075000Y-79575000I-75000J0D01*
G01*
G37*
G36*
G01*
X72575000Y-79575000D02*
X72425000Y-79575000D01*
G75*
G02*
X72350000Y-79500000I0J75000D01*
G01*
X72350000Y-78175000D01*
G75*
G02*
X72425000Y-78100000I75000J0D01*
G01*
X72575000Y-78100000D01*
G75*
G02*
X72650000Y-78175000I0J-75000D01*
G01*
X72650000Y-79500000D01*
G75*
G02*
X72575000Y-79575000I-75000J0D01*
G01*
G37*
G36*
G01*
X73075000Y-79575000D02*
X72925000Y-79575000D01*
G75*
G02*
X72850000Y-79500000I0J75000D01*
G01*
X72850000Y-78175000D01*
G75*
G02*
X72925000Y-78100000I75000J0D01*
G01*
X73075000Y-78100000D01*
G75*
G02*
X73150000Y-78175000I0J-75000D01*
G01*
X73150000Y-79500000D01*
G75*
G02*
X73075000Y-79575000I-75000J0D01*
G01*
G37*
G36*
G01*
X73575000Y-79575000D02*
X73425000Y-79575000D01*
G75*
G02*
X73350000Y-79500000I0J75000D01*
G01*
X73350000Y-78175000D01*
G75*
G02*
X73425000Y-78100000I75000J0D01*
G01*
X73575000Y-78100000D01*
G75*
G02*
X73650000Y-78175000I0J-75000D01*
G01*
X73650000Y-79500000D01*
G75*
G02*
X73575000Y-79575000I-75000J0D01*
G01*
G37*
G36*
G01*
X74075000Y-79575000D02*
X73925000Y-79575000D01*
G75*
G02*
X73850000Y-79500000I0J75000D01*
G01*
X73850000Y-78175000D01*
G75*
G02*
X73925000Y-78100000I75000J0D01*
G01*
X74075000Y-78100000D01*
G75*
G02*
X74150000Y-78175000I0J-75000D01*
G01*
X74150000Y-79500000D01*
G75*
G02*
X74075000Y-79575000I-75000J0D01*
G01*
G37*
G36*
G01*
X74575000Y-79575000D02*
X74425000Y-79575000D01*
G75*
G02*
X74350000Y-79500000I0J75000D01*
G01*
X74350000Y-78175000D01*
G75*
G02*
X74425000Y-78100000I75000J0D01*
G01*
X74575000Y-78100000D01*
G75*
G02*
X74650000Y-78175000I0J-75000D01*
G01*
X74650000Y-79500000D01*
G75*
G02*
X74575000Y-79575000I-75000J0D01*
G01*
G37*
G36*
G01*
X75075000Y-79575000D02*
X74925000Y-79575000D01*
G75*
G02*
X74850000Y-79500000I0J75000D01*
G01*
X74850000Y-78175000D01*
G75*
G02*
X74925000Y-78100000I75000J0D01*
G01*
X75075000Y-78100000D01*
G75*
G02*
X75150000Y-78175000I0J-75000D01*
G01*
X75150000Y-79500000D01*
G75*
G02*
X75075000Y-79575000I-75000J0D01*
G01*
G37*
G36*
G01*
X77075000Y-80400000D02*
X75750000Y-80400000D01*
G75*
G02*
X75675000Y-80325000I0J75000D01*
G01*
X75675000Y-80175000D01*
G75*
G02*
X75750000Y-80100000I75000J0D01*
G01*
X77075000Y-80100000D01*
G75*
G02*
X77150000Y-80175000I0J-75000D01*
G01*
X77150000Y-80325000D01*
G75*
G02*
X77075000Y-80400000I-75000J0D01*
G01*
G37*
G36*
G01*
X77075000Y-80900000D02*
X75750000Y-80900000D01*
G75*
G02*
X75675000Y-80825000I0J75000D01*
G01*
X75675000Y-80675000D01*
G75*
G02*
X75750000Y-80600000I75000J0D01*
G01*
X77075000Y-80600000D01*
G75*
G02*
X77150000Y-80675000I0J-75000D01*
G01*
X77150000Y-80825000D01*
G75*
G02*
X77075000Y-80900000I-75000J0D01*
G01*
G37*
G36*
G01*
X77075000Y-81400000D02*
X75750000Y-81400000D01*
G75*
G02*
X75675000Y-81325000I0J75000D01*
G01*
X75675000Y-81175000D01*
G75*
G02*
X75750000Y-81100000I75000J0D01*
G01*
X77075000Y-81100000D01*
G75*
G02*
X77150000Y-81175000I0J-75000D01*
G01*
X77150000Y-81325000D01*
G75*
G02*
X77075000Y-81400000I-75000J0D01*
G01*
G37*
G36*
G01*
X77075000Y-81900000D02*
X75750000Y-81900000D01*
G75*
G02*
X75675000Y-81825000I0J75000D01*
G01*
X75675000Y-81675000D01*
G75*
G02*
X75750000Y-81600000I75000J0D01*
G01*
X77075000Y-81600000D01*
G75*
G02*
X77150000Y-81675000I0J-75000D01*
G01*
X77150000Y-81825000D01*
G75*
G02*
X77075000Y-81900000I-75000J0D01*
G01*
G37*
G36*
G01*
X77075000Y-82400000D02*
X75750000Y-82400000D01*
G75*
G02*
X75675000Y-82325000I0J75000D01*
G01*
X75675000Y-82175000D01*
G75*
G02*
X75750000Y-82100000I75000J0D01*
G01*
X77075000Y-82100000D01*
G75*
G02*
X77150000Y-82175000I0J-75000D01*
G01*
X77150000Y-82325000D01*
G75*
G02*
X77075000Y-82400000I-75000J0D01*
G01*
G37*
G36*
G01*
X77075000Y-82900000D02*
X75750000Y-82900000D01*
G75*
G02*
X75675000Y-82825000I0J75000D01*
G01*
X75675000Y-82675000D01*
G75*
G02*
X75750000Y-82600000I75000J0D01*
G01*
X77075000Y-82600000D01*
G75*
G02*
X77150000Y-82675000I0J-75000D01*
G01*
X77150000Y-82825000D01*
G75*
G02*
X77075000Y-82900000I-75000J0D01*
G01*
G37*
G36*
G01*
X77075000Y-83400000D02*
X75750000Y-83400000D01*
G75*
G02*
X75675000Y-83325000I0J75000D01*
G01*
X75675000Y-83175000D01*
G75*
G02*
X75750000Y-83100000I75000J0D01*
G01*
X77075000Y-83100000D01*
G75*
G02*
X77150000Y-83175000I0J-75000D01*
G01*
X77150000Y-83325000D01*
G75*
G02*
X77075000Y-83400000I-75000J0D01*
G01*
G37*
G36*
G01*
X77075000Y-83900000D02*
X75750000Y-83900000D01*
G75*
G02*
X75675000Y-83825000I0J75000D01*
G01*
X75675000Y-83675000D01*
G75*
G02*
X75750000Y-83600000I75000J0D01*
G01*
X77075000Y-83600000D01*
G75*
G02*
X77150000Y-83675000I0J-75000D01*
G01*
X77150000Y-83825000D01*
G75*
G02*
X77075000Y-83900000I-75000J0D01*
G01*
G37*
G36*
G01*
X77075000Y-84400000D02*
X75750000Y-84400000D01*
G75*
G02*
X75675000Y-84325000I0J75000D01*
G01*
X75675000Y-84175000D01*
G75*
G02*
X75750000Y-84100000I75000J0D01*
G01*
X77075000Y-84100000D01*
G75*
G02*
X77150000Y-84175000I0J-75000D01*
G01*
X77150000Y-84325000D01*
G75*
G02*
X77075000Y-84400000I-75000J0D01*
G01*
G37*
G36*
G01*
X77075000Y-84900000D02*
X75750000Y-84900000D01*
G75*
G02*
X75675000Y-84825000I0J75000D01*
G01*
X75675000Y-84675000D01*
G75*
G02*
X75750000Y-84600000I75000J0D01*
G01*
X77075000Y-84600000D01*
G75*
G02*
X77150000Y-84675000I0J-75000D01*
G01*
X77150000Y-84825000D01*
G75*
G02*
X77075000Y-84900000I-75000J0D01*
G01*
G37*
G36*
G01*
X77075000Y-85400000D02*
X75750000Y-85400000D01*
G75*
G02*
X75675000Y-85325000I0J75000D01*
G01*
X75675000Y-85175000D01*
G75*
G02*
X75750000Y-85100000I75000J0D01*
G01*
X77075000Y-85100000D01*
G75*
G02*
X77150000Y-85175000I0J-75000D01*
G01*
X77150000Y-85325000D01*
G75*
G02*
X77075000Y-85400000I-75000J0D01*
G01*
G37*
G36*
G01*
X77075000Y-85900000D02*
X75750000Y-85900000D01*
G75*
G02*
X75675000Y-85825000I0J75000D01*
G01*
X75675000Y-85675000D01*
G75*
G02*
X75750000Y-85600000I75000J0D01*
G01*
X77075000Y-85600000D01*
G75*
G02*
X77150000Y-85675000I0J-75000D01*
G01*
X77150000Y-85825000D01*
G75*
G02*
X77075000Y-85900000I-75000J0D01*
G01*
G37*
G36*
G01*
X75075000Y-87900000D02*
X74925000Y-87900000D01*
G75*
G02*
X74850000Y-87825000I0J75000D01*
G01*
X74850000Y-86500000D01*
G75*
G02*
X74925000Y-86425000I75000J0D01*
G01*
X75075000Y-86425000D01*
G75*
G02*
X75150000Y-86500000I0J-75000D01*
G01*
X75150000Y-87825000D01*
G75*
G02*
X75075000Y-87900000I-75000J0D01*
G01*
G37*
G36*
G01*
X74575000Y-87900000D02*
X74425000Y-87900000D01*
G75*
G02*
X74350000Y-87825000I0J75000D01*
G01*
X74350000Y-86500000D01*
G75*
G02*
X74425000Y-86425000I75000J0D01*
G01*
X74575000Y-86425000D01*
G75*
G02*
X74650000Y-86500000I0J-75000D01*
G01*
X74650000Y-87825000D01*
G75*
G02*
X74575000Y-87900000I-75000J0D01*
G01*
G37*
G36*
G01*
X74075000Y-87900000D02*
X73925000Y-87900000D01*
G75*
G02*
X73850000Y-87825000I0J75000D01*
G01*
X73850000Y-86500000D01*
G75*
G02*
X73925000Y-86425000I75000J0D01*
G01*
X74075000Y-86425000D01*
G75*
G02*
X74150000Y-86500000I0J-75000D01*
G01*
X74150000Y-87825000D01*
G75*
G02*
X74075000Y-87900000I-75000J0D01*
G01*
G37*
G36*
G01*
X73575000Y-87900000D02*
X73425000Y-87900000D01*
G75*
G02*
X73350000Y-87825000I0J75000D01*
G01*
X73350000Y-86500000D01*
G75*
G02*
X73425000Y-86425000I75000J0D01*
G01*
X73575000Y-86425000D01*
G75*
G02*
X73650000Y-86500000I0J-75000D01*
G01*
X73650000Y-87825000D01*
G75*
G02*
X73575000Y-87900000I-75000J0D01*
G01*
G37*
G36*
G01*
X73075000Y-87900000D02*
X72925000Y-87900000D01*
G75*
G02*
X72850000Y-87825000I0J75000D01*
G01*
X72850000Y-86500000D01*
G75*
G02*
X72925000Y-86425000I75000J0D01*
G01*
X73075000Y-86425000D01*
G75*
G02*
X73150000Y-86500000I0J-75000D01*
G01*
X73150000Y-87825000D01*
G75*
G02*
X73075000Y-87900000I-75000J0D01*
G01*
G37*
G36*
G01*
X72575000Y-87900000D02*
X72425000Y-87900000D01*
G75*
G02*
X72350000Y-87825000I0J75000D01*
G01*
X72350000Y-86500000D01*
G75*
G02*
X72425000Y-86425000I75000J0D01*
G01*
X72575000Y-86425000D01*
G75*
G02*
X72650000Y-86500000I0J-75000D01*
G01*
X72650000Y-87825000D01*
G75*
G02*
X72575000Y-87900000I-75000J0D01*
G01*
G37*
G36*
G01*
X72075000Y-87900000D02*
X71925000Y-87900000D01*
G75*
G02*
X71850000Y-87825000I0J75000D01*
G01*
X71850000Y-86500000D01*
G75*
G02*
X71925000Y-86425000I75000J0D01*
G01*
X72075000Y-86425000D01*
G75*
G02*
X72150000Y-86500000I0J-75000D01*
G01*
X72150000Y-87825000D01*
G75*
G02*
X72075000Y-87900000I-75000J0D01*
G01*
G37*
G36*
G01*
X71575000Y-87900000D02*
X71425000Y-87900000D01*
G75*
G02*
X71350000Y-87825000I0J75000D01*
G01*
X71350000Y-86500000D01*
G75*
G02*
X71425000Y-86425000I75000J0D01*
G01*
X71575000Y-86425000D01*
G75*
G02*
X71650000Y-86500000I0J-75000D01*
G01*
X71650000Y-87825000D01*
G75*
G02*
X71575000Y-87900000I-75000J0D01*
G01*
G37*
G36*
G01*
X71075000Y-87900000D02*
X70925000Y-87900000D01*
G75*
G02*
X70850000Y-87825000I0J75000D01*
G01*
X70850000Y-86500000D01*
G75*
G02*
X70925000Y-86425000I75000J0D01*
G01*
X71075000Y-86425000D01*
G75*
G02*
X71150000Y-86500000I0J-75000D01*
G01*
X71150000Y-87825000D01*
G75*
G02*
X71075000Y-87900000I-75000J0D01*
G01*
G37*
G36*
G01*
X70575000Y-87900000D02*
X70425000Y-87900000D01*
G75*
G02*
X70350000Y-87825000I0J75000D01*
G01*
X70350000Y-86500000D01*
G75*
G02*
X70425000Y-86425000I75000J0D01*
G01*
X70575000Y-86425000D01*
G75*
G02*
X70650000Y-86500000I0J-75000D01*
G01*
X70650000Y-87825000D01*
G75*
G02*
X70575000Y-87900000I-75000J0D01*
G01*
G37*
G36*
G01*
X70075000Y-87900000D02*
X69925000Y-87900000D01*
G75*
G02*
X69850000Y-87825000I0J75000D01*
G01*
X69850000Y-86500000D01*
G75*
G02*
X69925000Y-86425000I75000J0D01*
G01*
X70075000Y-86425000D01*
G75*
G02*
X70150000Y-86500000I0J-75000D01*
G01*
X70150000Y-87825000D01*
G75*
G02*
X70075000Y-87900000I-75000J0D01*
G01*
G37*
G36*
G01*
X69575000Y-87900000D02*
X69425000Y-87900000D01*
G75*
G02*
X69350000Y-87825000I0J75000D01*
G01*
X69350000Y-86500000D01*
G75*
G02*
X69425000Y-86425000I75000J0D01*
G01*
X69575000Y-86425000D01*
G75*
G02*
X69650000Y-86500000I0J-75000D01*
G01*
X69650000Y-87825000D01*
G75*
G02*
X69575000Y-87900000I-75000J0D01*
G01*
G37*
D12*
X63000000Y-59800000D03*
X63500000Y-59800000D03*
X64000000Y-59800000D03*
X64500000Y-59800000D03*
X65000000Y-59800000D03*
X65000000Y-64200000D03*
X64500000Y-64200000D03*
X64000000Y-64200000D03*
X63500000Y-64200000D03*
X63000000Y-64200000D03*
D13*
X54950000Y-46200000D03*
X54300000Y-46200000D03*
X53650000Y-46200000D03*
X53000000Y-46200000D03*
X52350000Y-46200000D03*
X51700000Y-46200000D03*
X51050000Y-46200000D03*
X51050000Y-40300000D03*
X51700000Y-40300000D03*
X52350000Y-40300000D03*
X53000000Y-40300000D03*
X53650000Y-40300000D03*
X54300000Y-40300000D03*
X54950000Y-40300000D03*
G36*
G01*
X118150000Y-82493750D02*
X118150000Y-83006250D01*
G75*
G02*
X117931250Y-83225000I-218750J0D01*
G01*
X117493750Y-83225000D01*
G75*
G02*
X117275000Y-83006250I0J218750D01*
G01*
X117275000Y-82493750D01*
G75*
G02*
X117493750Y-82275000I218750J0D01*
G01*
X117931250Y-82275000D01*
G75*
G02*
X118150000Y-82493750I0J-218750D01*
G01*
G37*
G36*
G01*
X119725000Y-82493750D02*
X119725000Y-83006250D01*
G75*
G02*
X119506250Y-83225000I-218750J0D01*
G01*
X119068750Y-83225000D01*
G75*
G02*
X118850000Y-83006250I0J218750D01*
G01*
X118850000Y-82493750D01*
G75*
G02*
X119068750Y-82275000I218750J0D01*
G01*
X119506250Y-82275000D01*
G75*
G02*
X119725000Y-82493750I0J-218750D01*
G01*
G37*
G36*
G01*
X38400000Y-71993750D02*
X38400000Y-72506250D01*
G75*
G02*
X38181250Y-72725000I-218750J0D01*
G01*
X37743750Y-72725000D01*
G75*
G02*
X37525000Y-72506250I0J218750D01*
G01*
X37525000Y-71993750D01*
G75*
G02*
X37743750Y-71775000I218750J0D01*
G01*
X38181250Y-71775000D01*
G75*
G02*
X38400000Y-71993750I0J-218750D01*
G01*
G37*
G36*
G01*
X39975000Y-71993750D02*
X39975000Y-72506250D01*
G75*
G02*
X39756250Y-72725000I-218750J0D01*
G01*
X39318750Y-72725000D01*
G75*
G02*
X39100000Y-72506250I0J218750D01*
G01*
X39100000Y-71993750D01*
G75*
G02*
X39318750Y-71775000I218750J0D01*
G01*
X39756250Y-71775000D01*
G75*
G02*
X39975000Y-71993750I0J-218750D01*
G01*
G37*
X74050000Y-56550000D03*
X74700000Y-56550000D03*
X75350000Y-56550000D03*
X76000000Y-56550000D03*
X76650000Y-56550000D03*
X77300000Y-56550000D03*
X77950000Y-56550000D03*
X77950000Y-62450000D03*
X77300000Y-62450000D03*
X76650000Y-62450000D03*
X76000000Y-62450000D03*
X75350000Y-62450000D03*
X74700000Y-62450000D03*
X74050000Y-62450000D03*
G36*
G01*
X101993750Y-104350000D02*
X102506250Y-104350000D01*
G75*
G02*
X102725000Y-104568750I0J-218750D01*
G01*
X102725000Y-105006250D01*
G75*
G02*
X102506250Y-105225000I-218750J0D01*
G01*
X101993750Y-105225000D01*
G75*
G02*
X101775000Y-105006250I0J218750D01*
G01*
X101775000Y-104568750D01*
G75*
G02*
X101993750Y-104350000I218750J0D01*
G01*
G37*
G36*
G01*
X101993750Y-102775000D02*
X102506250Y-102775000D01*
G75*
G02*
X102725000Y-102993750I0J-218750D01*
G01*
X102725000Y-103431250D01*
G75*
G02*
X102506250Y-103650000I-218750J0D01*
G01*
X101993750Y-103650000D01*
G75*
G02*
X101775000Y-103431250I0J218750D01*
G01*
X101775000Y-102993750D01*
G75*
G02*
X101993750Y-102775000I218750J0D01*
G01*
G37*
G36*
G01*
X34756250Y-53150000D02*
X34243750Y-53150000D01*
G75*
G02*
X34025000Y-52931250I0J218750D01*
G01*
X34025000Y-52493750D01*
G75*
G02*
X34243750Y-52275000I218750J0D01*
G01*
X34756250Y-52275000D01*
G75*
G02*
X34975000Y-52493750I0J-218750D01*
G01*
X34975000Y-52931250D01*
G75*
G02*
X34756250Y-53150000I-218750J0D01*
G01*
G37*
G36*
G01*
X34756250Y-54725000D02*
X34243750Y-54725000D01*
G75*
G02*
X34025000Y-54506250I0J218750D01*
G01*
X34025000Y-54068750D01*
G75*
G02*
X34243750Y-53850000I218750J0D01*
G01*
X34756250Y-53850000D01*
G75*
G02*
X34975000Y-54068750I0J-218750D01*
G01*
X34975000Y-54506250D01*
G75*
G02*
X34756250Y-54725000I-218750J0D01*
G01*
G37*
G36*
G01*
X36756250Y-53150000D02*
X36243750Y-53150000D01*
G75*
G02*
X36025000Y-52931250I0J218750D01*
G01*
X36025000Y-52493750D01*
G75*
G02*
X36243750Y-52275000I218750J0D01*
G01*
X36756250Y-52275000D01*
G75*
G02*
X36975000Y-52493750I0J-218750D01*
G01*
X36975000Y-52931250D01*
G75*
G02*
X36756250Y-53150000I-218750J0D01*
G01*
G37*
G36*
G01*
X36756250Y-54725000D02*
X36243750Y-54725000D01*
G75*
G02*
X36025000Y-54506250I0J218750D01*
G01*
X36025000Y-54068750D01*
G75*
G02*
X36243750Y-53850000I218750J0D01*
G01*
X36756250Y-53850000D01*
G75*
G02*
X36975000Y-54068750I0J-218750D01*
G01*
X36975000Y-54506250D01*
G75*
G02*
X36756250Y-54725000I-218750J0D01*
G01*
G37*
G36*
G01*
X40756250Y-53150000D02*
X40243750Y-53150000D01*
G75*
G02*
X40025000Y-52931250I0J218750D01*
G01*
X40025000Y-52493750D01*
G75*
G02*
X40243750Y-52275000I218750J0D01*
G01*
X40756250Y-52275000D01*
G75*
G02*
X40975000Y-52493750I0J-218750D01*
G01*
X40975000Y-52931250D01*
G75*
G02*
X40756250Y-53150000I-218750J0D01*
G01*
G37*
G36*
G01*
X40756250Y-54725000D02*
X40243750Y-54725000D01*
G75*
G02*
X40025000Y-54506250I0J218750D01*
G01*
X40025000Y-54068750D01*
G75*
G02*
X40243750Y-53850000I218750J0D01*
G01*
X40756250Y-53850000D01*
G75*
G02*
X40975000Y-54068750I0J-218750D01*
G01*
X40975000Y-54506250D01*
G75*
G02*
X40756250Y-54725000I-218750J0D01*
G01*
G37*
G36*
G01*
X36243750Y-41100000D02*
X36756250Y-41100000D01*
G75*
G02*
X36975000Y-41318750I0J-218750D01*
G01*
X36975000Y-41756250D01*
G75*
G02*
X36756250Y-41975000I-218750J0D01*
G01*
X36243750Y-41975000D01*
G75*
G02*
X36025000Y-41756250I0J218750D01*
G01*
X36025000Y-41318750D01*
G75*
G02*
X36243750Y-41100000I218750J0D01*
G01*
G37*
G36*
G01*
X36243750Y-39525000D02*
X36756250Y-39525000D01*
G75*
G02*
X36975000Y-39743750I0J-218750D01*
G01*
X36975000Y-40181250D01*
G75*
G02*
X36756250Y-40400000I-218750J0D01*
G01*
X36243750Y-40400000D01*
G75*
G02*
X36025000Y-40181250I0J218750D01*
G01*
X36025000Y-39743750D01*
G75*
G02*
X36243750Y-39525000I218750J0D01*
G01*
G37*
G36*
G01*
X36756250Y-43900000D02*
X36243750Y-43900000D01*
G75*
G02*
X36025000Y-43681250I0J218750D01*
G01*
X36025000Y-43243750D01*
G75*
G02*
X36243750Y-43025000I218750J0D01*
G01*
X36756250Y-43025000D01*
G75*
G02*
X36975000Y-43243750I0J-218750D01*
G01*
X36975000Y-43681250D01*
G75*
G02*
X36756250Y-43900000I-218750J0D01*
G01*
G37*
G36*
G01*
X36756250Y-45475000D02*
X36243750Y-45475000D01*
G75*
G02*
X36025000Y-45256250I0J218750D01*
G01*
X36025000Y-44818750D01*
G75*
G02*
X36243750Y-44600000I218750J0D01*
G01*
X36756250Y-44600000D01*
G75*
G02*
X36975000Y-44818750I0J-218750D01*
G01*
X36975000Y-45256250D01*
G75*
G02*
X36756250Y-45475000I-218750J0D01*
G01*
G37*
D14*
X36440000Y-49720000D03*
X36440000Y-49080000D03*
X36440000Y-48420000D03*
X36440000Y-47780000D03*
X39060000Y-47780000D03*
X39060000Y-48420000D03*
X39060000Y-49080000D03*
X39060000Y-49720000D03*
D15*
X91900000Y-106500000D03*
X96100000Y-106500000D03*
X91900000Y-106000000D03*
X96100000Y-106000000D03*
X91900000Y-105500000D03*
X96100000Y-105500000D03*
X91900000Y-105000000D03*
X96100000Y-105000000D03*
X91900000Y-104500000D03*
X96100000Y-104500000D03*
X91900000Y-104000000D03*
X96100000Y-104000000D03*
X91900000Y-103500000D03*
X96100000Y-103500000D03*
X91900000Y-103000000D03*
X96100000Y-103000000D03*
G36*
G01*
X95993750Y-100600000D02*
X96506250Y-100600000D01*
G75*
G02*
X96725000Y-100818750I0J-218750D01*
G01*
X96725000Y-101256250D01*
G75*
G02*
X96506250Y-101475000I-218750J0D01*
G01*
X95993750Y-101475000D01*
G75*
G02*
X95775000Y-101256250I0J218750D01*
G01*
X95775000Y-100818750D01*
G75*
G02*
X95993750Y-100600000I218750J0D01*
G01*
G37*
G36*
G01*
X95993750Y-99025000D02*
X96506250Y-99025000D01*
G75*
G02*
X96725000Y-99243750I0J-218750D01*
G01*
X96725000Y-99681250D01*
G75*
G02*
X96506250Y-99900000I-218750J0D01*
G01*
X95993750Y-99900000D01*
G75*
G02*
X95775000Y-99681250I0J218750D01*
G01*
X95775000Y-99243750D01*
G75*
G02*
X95993750Y-99025000I218750J0D01*
G01*
G37*
G36*
G01*
X38756250Y-43900000D02*
X38243750Y-43900000D01*
G75*
G02*
X38025000Y-43681250I0J218750D01*
G01*
X38025000Y-43243750D01*
G75*
G02*
X38243750Y-43025000I218750J0D01*
G01*
X38756250Y-43025000D01*
G75*
G02*
X38975000Y-43243750I0J-218750D01*
G01*
X38975000Y-43681250D01*
G75*
G02*
X38756250Y-43900000I-218750J0D01*
G01*
G37*
G36*
G01*
X38756250Y-45475000D02*
X38243750Y-45475000D01*
G75*
G02*
X38025000Y-45256250I0J218750D01*
G01*
X38025000Y-44818750D01*
G75*
G02*
X38243750Y-44600000I218750J0D01*
G01*
X38756250Y-44600000D01*
G75*
G02*
X38975000Y-44818750I0J-218750D01*
G01*
X38975000Y-45256250D01*
G75*
G02*
X38756250Y-45475000I-218750J0D01*
G01*
G37*
G36*
G01*
X129756250Y-72150000D02*
X129243750Y-72150000D01*
G75*
G02*
X129025000Y-71931250I0J218750D01*
G01*
X129025000Y-71493750D01*
G75*
G02*
X129243750Y-71275000I218750J0D01*
G01*
X129756250Y-71275000D01*
G75*
G02*
X129975000Y-71493750I0J-218750D01*
G01*
X129975000Y-71931250D01*
G75*
G02*
X129756250Y-72150000I-218750J0D01*
G01*
G37*
G36*
G01*
X129756250Y-73725000D02*
X129243750Y-73725000D01*
G75*
G02*
X129025000Y-73506250I0J218750D01*
G01*
X129025000Y-73068750D01*
G75*
G02*
X129243750Y-72850000I218750J0D01*
G01*
X129756250Y-72850000D01*
G75*
G02*
X129975000Y-73068750I0J-218750D01*
G01*
X129975000Y-73506250D01*
G75*
G02*
X129756250Y-73725000I-218750J0D01*
G01*
G37*
G36*
G01*
X34756250Y-43900000D02*
X34243750Y-43900000D01*
G75*
G02*
X34025000Y-43681250I0J218750D01*
G01*
X34025000Y-43243750D01*
G75*
G02*
X34243750Y-43025000I218750J0D01*
G01*
X34756250Y-43025000D01*
G75*
G02*
X34975000Y-43243750I0J-218750D01*
G01*
X34975000Y-43681250D01*
G75*
G02*
X34756250Y-43900000I-218750J0D01*
G01*
G37*
G36*
G01*
X34756250Y-45475000D02*
X34243750Y-45475000D01*
G75*
G02*
X34025000Y-45256250I0J218750D01*
G01*
X34025000Y-44818750D01*
G75*
G02*
X34243750Y-44600000I218750J0D01*
G01*
X34756250Y-44600000D01*
G75*
G02*
X34975000Y-44818750I0J-218750D01*
G01*
X34975000Y-45256250D01*
G75*
G02*
X34756250Y-45475000I-218750J0D01*
G01*
G37*
G36*
G01*
X38243750Y-41100000D02*
X38756250Y-41100000D01*
G75*
G02*
X38975000Y-41318750I0J-218750D01*
G01*
X38975000Y-41756250D01*
G75*
G02*
X38756250Y-41975000I-218750J0D01*
G01*
X38243750Y-41975000D01*
G75*
G02*
X38025000Y-41756250I0J218750D01*
G01*
X38025000Y-41318750D01*
G75*
G02*
X38243750Y-41100000I218750J0D01*
G01*
G37*
G36*
G01*
X38243750Y-39525000D02*
X38756250Y-39525000D01*
G75*
G02*
X38975000Y-39743750I0J-218750D01*
G01*
X38975000Y-40181250D01*
G75*
G02*
X38756250Y-40400000I-218750J0D01*
G01*
X38243750Y-40400000D01*
G75*
G02*
X38025000Y-40181250I0J218750D01*
G01*
X38025000Y-39743750D01*
G75*
G02*
X38243750Y-39525000I218750J0D01*
G01*
G37*
G36*
G01*
X41900000Y-57243750D02*
X41900000Y-57756250D01*
G75*
G02*
X41681250Y-57975000I-218750J0D01*
G01*
X41243750Y-57975000D01*
G75*
G02*
X41025000Y-57756250I0J218750D01*
G01*
X41025000Y-57243750D01*
G75*
G02*
X41243750Y-57025000I218750J0D01*
G01*
X41681250Y-57025000D01*
G75*
G02*
X41900000Y-57243750I0J-218750D01*
G01*
G37*
G36*
G01*
X43475000Y-57243750D02*
X43475000Y-57756250D01*
G75*
G02*
X43256250Y-57975000I-218750J0D01*
G01*
X42818750Y-57975000D01*
G75*
G02*
X42600000Y-57756250I0J218750D01*
G01*
X42600000Y-57243750D01*
G75*
G02*
X42818750Y-57025000I218750J0D01*
G01*
X43256250Y-57025000D01*
G75*
G02*
X43475000Y-57243750I0J-218750D01*
G01*
G37*
G36*
G01*
X81350000Y-78256250D02*
X81350000Y-77743750D01*
G75*
G02*
X81568750Y-77525000I218750J0D01*
G01*
X82006250Y-77525000D01*
G75*
G02*
X82225000Y-77743750I0J-218750D01*
G01*
X82225000Y-78256250D01*
G75*
G02*
X82006250Y-78475000I-218750J0D01*
G01*
X81568750Y-78475000D01*
G75*
G02*
X81350000Y-78256250I0J218750D01*
G01*
G37*
G36*
G01*
X79775000Y-78256250D02*
X79775000Y-77743750D01*
G75*
G02*
X79993750Y-77525000I218750J0D01*
G01*
X80431250Y-77525000D01*
G75*
G02*
X80650000Y-77743750I0J-218750D01*
G01*
X80650000Y-78256250D01*
G75*
G02*
X80431250Y-78475000I-218750J0D01*
G01*
X79993750Y-78475000D01*
G75*
G02*
X79775000Y-78256250I0J218750D01*
G01*
G37*
G36*
G01*
X100350000Y-106256250D02*
X100350000Y-105743750D01*
G75*
G02*
X100568750Y-105525000I218750J0D01*
G01*
X101006250Y-105525000D01*
G75*
G02*
X101225000Y-105743750I0J-218750D01*
G01*
X101225000Y-106256250D01*
G75*
G02*
X101006250Y-106475000I-218750J0D01*
G01*
X100568750Y-106475000D01*
G75*
G02*
X100350000Y-106256250I0J218750D01*
G01*
G37*
G36*
G01*
X98775000Y-106256250D02*
X98775000Y-105743750D01*
G75*
G02*
X98993750Y-105525000I218750J0D01*
G01*
X99431250Y-105525000D01*
G75*
G02*
X99650000Y-105743750I0J-218750D01*
G01*
X99650000Y-106256250D01*
G75*
G02*
X99431250Y-106475000I-218750J0D01*
G01*
X98993750Y-106475000D01*
G75*
G02*
X98775000Y-106256250I0J218750D01*
G01*
G37*
G36*
G01*
X135900000Y-64243750D02*
X135900000Y-64756250D01*
G75*
G02*
X135681250Y-64975000I-218750J0D01*
G01*
X135243750Y-64975000D01*
G75*
G02*
X135025000Y-64756250I0J218750D01*
G01*
X135025000Y-64243750D01*
G75*
G02*
X135243750Y-64025000I218750J0D01*
G01*
X135681250Y-64025000D01*
G75*
G02*
X135900000Y-64243750I0J-218750D01*
G01*
G37*
G36*
G01*
X137475000Y-64243750D02*
X137475000Y-64756250D01*
G75*
G02*
X137256250Y-64975000I-218750J0D01*
G01*
X136818750Y-64975000D01*
G75*
G02*
X136600000Y-64756250I0J218750D01*
G01*
X136600000Y-64243750D01*
G75*
G02*
X136818750Y-64025000I218750J0D01*
G01*
X137256250Y-64025000D01*
G75*
G02*
X137475000Y-64243750I0J-218750D01*
G01*
G37*
G36*
G01*
X132600000Y-82506250D02*
X132600000Y-81993750D01*
G75*
G02*
X132818750Y-81775000I218750J0D01*
G01*
X133256250Y-81775000D01*
G75*
G02*
X133475000Y-81993750I0J-218750D01*
G01*
X133475000Y-82506250D01*
G75*
G02*
X133256250Y-82725000I-218750J0D01*
G01*
X132818750Y-82725000D01*
G75*
G02*
X132600000Y-82506250I0J218750D01*
G01*
G37*
G36*
G01*
X131025000Y-82506250D02*
X131025000Y-81993750D01*
G75*
G02*
X131243750Y-81775000I218750J0D01*
G01*
X131681250Y-81775000D01*
G75*
G02*
X131900000Y-81993750I0J-218750D01*
G01*
X131900000Y-82506250D01*
G75*
G02*
X131681250Y-82725000I-218750J0D01*
G01*
X131243750Y-82725000D01*
G75*
G02*
X131025000Y-82506250I0J218750D01*
G01*
G37*
G36*
G01*
X131243750Y-92600000D02*
X131756250Y-92600000D01*
G75*
G02*
X131975000Y-92818750I0J-218750D01*
G01*
X131975000Y-93256250D01*
G75*
G02*
X131756250Y-93475000I-218750J0D01*
G01*
X131243750Y-93475000D01*
G75*
G02*
X131025000Y-93256250I0J218750D01*
G01*
X131025000Y-92818750D01*
G75*
G02*
X131243750Y-92600000I218750J0D01*
G01*
G37*
G36*
G01*
X131243750Y-91025000D02*
X131756250Y-91025000D01*
G75*
G02*
X131975000Y-91243750I0J-218750D01*
G01*
X131975000Y-91681250D01*
G75*
G02*
X131756250Y-91900000I-218750J0D01*
G01*
X131243750Y-91900000D01*
G75*
G02*
X131025000Y-91681250I0J218750D01*
G01*
X131025000Y-91243750D01*
G75*
G02*
X131243750Y-91025000I218750J0D01*
G01*
G37*
G36*
G01*
X128756250Y-85150000D02*
X128243750Y-85150000D01*
G75*
G02*
X128025000Y-84931250I0J218750D01*
G01*
X128025000Y-84493750D01*
G75*
G02*
X128243750Y-84275000I218750J0D01*
G01*
X128756250Y-84275000D01*
G75*
G02*
X128975000Y-84493750I0J-218750D01*
G01*
X128975000Y-84931250D01*
G75*
G02*
X128756250Y-85150000I-218750J0D01*
G01*
G37*
G36*
G01*
X128756250Y-86725000D02*
X128243750Y-86725000D01*
G75*
G02*
X128025000Y-86506250I0J218750D01*
G01*
X128025000Y-86068750D01*
G75*
G02*
X128243750Y-85850000I218750J0D01*
G01*
X128756250Y-85850000D01*
G75*
G02*
X128975000Y-86068750I0J-218750D01*
G01*
X128975000Y-86506250D01*
G75*
G02*
X128756250Y-86725000I-218750J0D01*
G01*
G37*
G36*
G01*
X34243750Y-41100000D02*
X34756250Y-41100000D01*
G75*
G02*
X34975000Y-41318750I0J-218750D01*
G01*
X34975000Y-41756250D01*
G75*
G02*
X34756250Y-41975000I-218750J0D01*
G01*
X34243750Y-41975000D01*
G75*
G02*
X34025000Y-41756250I0J218750D01*
G01*
X34025000Y-41318750D01*
G75*
G02*
X34243750Y-41100000I218750J0D01*
G01*
G37*
G36*
G01*
X34243750Y-39525000D02*
X34756250Y-39525000D01*
G75*
G02*
X34975000Y-39743750I0J-218750D01*
G01*
X34975000Y-40181250D01*
G75*
G02*
X34756250Y-40400000I-218750J0D01*
G01*
X34243750Y-40400000D01*
G75*
G02*
X34025000Y-40181250I0J218750D01*
G01*
X34025000Y-39743750D01*
G75*
G02*
X34243750Y-39525000I218750J0D01*
G01*
G37*
G36*
G01*
X123456250Y-93800000D02*
X122543750Y-93800000D01*
G75*
G02*
X122300000Y-93556250I0J243750D01*
G01*
X122300000Y-93068750D01*
G75*
G02*
X122543750Y-92825000I243750J0D01*
G01*
X123456250Y-92825000D01*
G75*
G02*
X123700000Y-93068750I0J-243750D01*
G01*
X123700000Y-93556250D01*
G75*
G02*
X123456250Y-93800000I-243750J0D01*
G01*
G37*
G36*
G01*
X123456250Y-95675000D02*
X122543750Y-95675000D01*
G75*
G02*
X122300000Y-95431250I0J243750D01*
G01*
X122300000Y-94943750D01*
G75*
G02*
X122543750Y-94700000I243750J0D01*
G01*
X123456250Y-94700000D01*
G75*
G02*
X123700000Y-94943750I0J-243750D01*
G01*
X123700000Y-95431250D01*
G75*
G02*
X123456250Y-95675000I-243750J0D01*
G01*
G37*
G36*
G01*
X38756250Y-53150000D02*
X38243750Y-53150000D01*
G75*
G02*
X38025000Y-52931250I0J218750D01*
G01*
X38025000Y-52493750D01*
G75*
G02*
X38243750Y-52275000I218750J0D01*
G01*
X38756250Y-52275000D01*
G75*
G02*
X38975000Y-52493750I0J-218750D01*
G01*
X38975000Y-52931250D01*
G75*
G02*
X38756250Y-53150000I-218750J0D01*
G01*
G37*
G36*
G01*
X38756250Y-54725000D02*
X38243750Y-54725000D01*
G75*
G02*
X38025000Y-54506250I0J218750D01*
G01*
X38025000Y-54068750D01*
G75*
G02*
X38243750Y-53850000I218750J0D01*
G01*
X38756250Y-53850000D01*
G75*
G02*
X38975000Y-54068750I0J-218750D01*
G01*
X38975000Y-54506250D01*
G75*
G02*
X38756250Y-54725000I-218750J0D01*
G01*
G37*
G36*
G01*
X101993750Y-108350000D02*
X102506250Y-108350000D01*
G75*
G02*
X102725000Y-108568750I0J-218750D01*
G01*
X102725000Y-109006250D01*
G75*
G02*
X102506250Y-109225000I-218750J0D01*
G01*
X101993750Y-109225000D01*
G75*
G02*
X101775000Y-109006250I0J218750D01*
G01*
X101775000Y-108568750D01*
G75*
G02*
X101993750Y-108350000I218750J0D01*
G01*
G37*
G36*
G01*
X101993750Y-106775000D02*
X102506250Y-106775000D01*
G75*
G02*
X102725000Y-106993750I0J-218750D01*
G01*
X102725000Y-107431250D01*
G75*
G02*
X102506250Y-107650000I-218750J0D01*
G01*
X101993750Y-107650000D01*
G75*
G02*
X101775000Y-107431250I0J218750D01*
G01*
X101775000Y-106993750D01*
G75*
G02*
X101993750Y-106775000I218750J0D01*
G01*
G37*
G36*
G01*
X98243750Y-100600000D02*
X98756250Y-100600000D01*
G75*
G02*
X98975000Y-100818750I0J-218750D01*
G01*
X98975000Y-101256250D01*
G75*
G02*
X98756250Y-101475000I-218750J0D01*
G01*
X98243750Y-101475000D01*
G75*
G02*
X98025000Y-101256250I0J218750D01*
G01*
X98025000Y-100818750D01*
G75*
G02*
X98243750Y-100600000I218750J0D01*
G01*
G37*
G36*
G01*
X98243750Y-99025000D02*
X98756250Y-99025000D01*
G75*
G02*
X98975000Y-99243750I0J-218750D01*
G01*
X98975000Y-99681250D01*
G75*
G02*
X98756250Y-99900000I-218750J0D01*
G01*
X98243750Y-99900000D01*
G75*
G02*
X98025000Y-99681250I0J218750D01*
G01*
X98025000Y-99243750D01*
G75*
G02*
X98243750Y-99025000I218750J0D01*
G01*
G37*
D16*
X123250000Y-44750000D03*
X123250000Y-39670000D03*
D17*
X131190000Y-42210000D03*
G36*
G01*
X140475000Y-63875000D02*
X140475000Y-65125000D01*
G75*
G02*
X140225000Y-65375000I-250000J0D01*
G01*
X139475000Y-65375000D01*
G75*
G02*
X139225000Y-65125000I0J250000D01*
G01*
X139225000Y-63875000D01*
G75*
G02*
X139475000Y-63625000I250000J0D01*
G01*
X140225000Y-63625000D01*
G75*
G02*
X140475000Y-63875000I0J-250000D01*
G01*
G37*
G36*
G01*
X143275000Y-63875000D02*
X143275000Y-65125000D01*
G75*
G02*
X143025000Y-65375000I-250000J0D01*
G01*
X142275000Y-65375000D01*
G75*
G02*
X142025000Y-65125000I0J250000D01*
G01*
X142025000Y-63875000D01*
G75*
G02*
X142275000Y-63625000I250000J0D01*
G01*
X143025000Y-63625000D01*
G75*
G02*
X143275000Y-63875000I0J-250000D01*
G01*
G37*
G36*
G01*
X133775000Y-85875000D02*
X133775000Y-84625000D01*
G75*
G02*
X134025000Y-84375000I250000J0D01*
G01*
X134775000Y-84375000D01*
G75*
G02*
X135025000Y-84625000I0J-250000D01*
G01*
X135025000Y-85875000D01*
G75*
G02*
X134775000Y-86125000I-250000J0D01*
G01*
X134025000Y-86125000D01*
G75*
G02*
X133775000Y-85875000I0J250000D01*
G01*
G37*
G36*
G01*
X130975000Y-85875000D02*
X130975000Y-84625000D01*
G75*
G02*
X131225000Y-84375000I250000J0D01*
G01*
X131975000Y-84375000D01*
G75*
G02*
X132225000Y-84625000I0J-250000D01*
G01*
X132225000Y-85875000D01*
G75*
G02*
X131975000Y-86125000I-250000J0D01*
G01*
X131225000Y-86125000D01*
G75*
G02*
X130975000Y-85875000I0J250000D01*
G01*
G37*
G36*
G01*
X133775000Y-89375000D02*
X133775000Y-88125000D01*
G75*
G02*
X134025000Y-87875000I250000J0D01*
G01*
X134775000Y-87875000D01*
G75*
G02*
X135025000Y-88125000I0J-250000D01*
G01*
X135025000Y-89375000D01*
G75*
G02*
X134775000Y-89625000I-250000J0D01*
G01*
X134025000Y-89625000D01*
G75*
G02*
X133775000Y-89375000I0J250000D01*
G01*
G37*
G36*
G01*
X130975000Y-89375000D02*
X130975000Y-88125000D01*
G75*
G02*
X131225000Y-87875000I250000J0D01*
G01*
X131975000Y-87875000D01*
G75*
G02*
X132225000Y-88125000I0J-250000D01*
G01*
X132225000Y-89375000D01*
G75*
G02*
X131975000Y-89625000I-250000J0D01*
G01*
X131225000Y-89625000D01*
G75*
G02*
X130975000Y-89375000I0J250000D01*
G01*
G37*
D18*
X113950000Y-103210000D03*
X105550000Y-103210000D03*
X113950000Y-105750000D03*
X105550000Y-105750000D03*
X113950000Y-108290000D03*
X105550000Y-108290000D03*
G36*
G01*
X107375000Y-70985000D02*
X107375000Y-71285000D01*
G75*
G02*
X107225000Y-71435000I-150000J0D01*
G01*
X105900000Y-71435000D01*
G75*
G02*
X105750000Y-71285000I0J150000D01*
G01*
X105750000Y-70985000D01*
G75*
G02*
X105900000Y-70835000I150000J0D01*
G01*
X107225000Y-70835000D01*
G75*
G02*
X107375000Y-70985000I0J-150000D01*
G01*
G37*
G36*
G01*
X107375000Y-69715000D02*
X107375000Y-70015000D01*
G75*
G02*
X107225000Y-70165000I-150000J0D01*
G01*
X105900000Y-70165000D01*
G75*
G02*
X105750000Y-70015000I0J150000D01*
G01*
X105750000Y-69715000D01*
G75*
G02*
X105900000Y-69565000I150000J0D01*
G01*
X107225000Y-69565000D01*
G75*
G02*
X107375000Y-69715000I0J-150000D01*
G01*
G37*
G36*
G01*
X113750000Y-69715000D02*
X113750000Y-70015000D01*
G75*
G02*
X113600000Y-70165000I-150000J0D01*
G01*
X112275000Y-70165000D01*
G75*
G02*
X112125000Y-70015000I0J150000D01*
G01*
X112125000Y-69715000D01*
G75*
G02*
X112275000Y-69565000I150000J0D01*
G01*
X113600000Y-69565000D01*
G75*
G02*
X113750000Y-69715000I0J-150000D01*
G01*
G37*
G36*
G01*
X113750000Y-70985000D02*
X113750000Y-71285000D01*
G75*
G02*
X113600000Y-71435000I-150000J0D01*
G01*
X112275000Y-71435000D01*
G75*
G02*
X112125000Y-71285000I0J150000D01*
G01*
X112125000Y-70985000D01*
G75*
G02*
X112275000Y-70835000I150000J0D01*
G01*
X113600000Y-70835000D01*
G75*
G02*
X113750000Y-70985000I0J-150000D01*
G01*
G37*
D19*
X126720000Y-86810000D03*
X126080000Y-86810000D03*
X125420000Y-86810000D03*
X124780000Y-86810000D03*
X124780000Y-84190000D03*
X125420000Y-84190000D03*
X126080000Y-84190000D03*
X126720000Y-84190000D03*
D20*
X125850000Y-93300000D03*
X127150000Y-93300000D03*
X126500000Y-95200000D03*
X127150000Y-95200000D03*
X125850000Y-95200000D03*
G36*
G01*
X105875000Y-86545000D02*
X105875000Y-86845000D01*
G75*
G02*
X105725000Y-86995000I-150000J0D01*
G01*
X103975000Y-86995000D01*
G75*
G02*
X103825000Y-86845000I0J150000D01*
G01*
X103825000Y-86545000D01*
G75*
G02*
X103975000Y-86395000I150000J0D01*
G01*
X105725000Y-86395000D01*
G75*
G02*
X105875000Y-86545000I0J-150000D01*
G01*
G37*
G36*
G01*
X105875000Y-85275000D02*
X105875000Y-85575000D01*
G75*
G02*
X105725000Y-85725000I-150000J0D01*
G01*
X103975000Y-85725000D01*
G75*
G02*
X103825000Y-85575000I0J150000D01*
G01*
X103825000Y-85275000D01*
G75*
G02*
X103975000Y-85125000I150000J0D01*
G01*
X105725000Y-85125000D01*
G75*
G02*
X105875000Y-85275000I0J-150000D01*
G01*
G37*
G36*
G01*
X105875000Y-84005000D02*
X105875000Y-84305000D01*
G75*
G02*
X105725000Y-84455000I-150000J0D01*
G01*
X103975000Y-84455000D01*
G75*
G02*
X103825000Y-84305000I0J150000D01*
G01*
X103825000Y-84005000D01*
G75*
G02*
X103975000Y-83855000I150000J0D01*
G01*
X105725000Y-83855000D01*
G75*
G02*
X105875000Y-84005000I0J-150000D01*
G01*
G37*
G36*
G01*
X105875000Y-82735000D02*
X105875000Y-83035000D01*
G75*
G02*
X105725000Y-83185000I-150000J0D01*
G01*
X103975000Y-83185000D01*
G75*
G02*
X103825000Y-83035000I0J150000D01*
G01*
X103825000Y-82735000D01*
G75*
G02*
X103975000Y-82585000I150000J0D01*
G01*
X105725000Y-82585000D01*
G75*
G02*
X105875000Y-82735000I0J-150000D01*
G01*
G37*
G36*
G01*
X105875000Y-81465000D02*
X105875000Y-81765000D01*
G75*
G02*
X105725000Y-81915000I-150000J0D01*
G01*
X103975000Y-81915000D01*
G75*
G02*
X103825000Y-81765000I0J150000D01*
G01*
X103825000Y-81465000D01*
G75*
G02*
X103975000Y-81315000I150000J0D01*
G01*
X105725000Y-81315000D01*
G75*
G02*
X105875000Y-81465000I0J-150000D01*
G01*
G37*
G36*
G01*
X105875000Y-80195000D02*
X105875000Y-80495000D01*
G75*
G02*
X105725000Y-80645000I-150000J0D01*
G01*
X103975000Y-80645000D01*
G75*
G02*
X103825000Y-80495000I0J150000D01*
G01*
X103825000Y-80195000D01*
G75*
G02*
X103975000Y-80045000I150000J0D01*
G01*
X105725000Y-80045000D01*
G75*
G02*
X105875000Y-80195000I0J-150000D01*
G01*
G37*
G36*
G01*
X105875000Y-78925000D02*
X105875000Y-79225000D01*
G75*
G02*
X105725000Y-79375000I-150000J0D01*
G01*
X103975000Y-79375000D01*
G75*
G02*
X103825000Y-79225000I0J150000D01*
G01*
X103825000Y-78925000D01*
G75*
G02*
X103975000Y-78775000I150000J0D01*
G01*
X105725000Y-78775000D01*
G75*
G02*
X105875000Y-78925000I0J-150000D01*
G01*
G37*
G36*
G01*
X105875000Y-77655000D02*
X105875000Y-77955000D01*
G75*
G02*
X105725000Y-78105000I-150000J0D01*
G01*
X103975000Y-78105000D01*
G75*
G02*
X103825000Y-77955000I0J150000D01*
G01*
X103825000Y-77655000D01*
G75*
G02*
X103975000Y-77505000I150000J0D01*
G01*
X105725000Y-77505000D01*
G75*
G02*
X105875000Y-77655000I0J-150000D01*
G01*
G37*
G36*
G01*
X115175000Y-77655000D02*
X115175000Y-77955000D01*
G75*
G02*
X115025000Y-78105000I-150000J0D01*
G01*
X113275000Y-78105000D01*
G75*
G02*
X113125000Y-77955000I0J150000D01*
G01*
X113125000Y-77655000D01*
G75*
G02*
X113275000Y-77505000I150000J0D01*
G01*
X115025000Y-77505000D01*
G75*
G02*
X115175000Y-77655000I0J-150000D01*
G01*
G37*
G36*
G01*
X115175000Y-78925000D02*
X115175000Y-79225000D01*
G75*
G02*
X115025000Y-79375000I-150000J0D01*
G01*
X113275000Y-79375000D01*
G75*
G02*
X113125000Y-79225000I0J150000D01*
G01*
X113125000Y-78925000D01*
G75*
G02*
X113275000Y-78775000I150000J0D01*
G01*
X115025000Y-78775000D01*
G75*
G02*
X115175000Y-78925000I0J-150000D01*
G01*
G37*
G36*
G01*
X115175000Y-80195000D02*
X115175000Y-80495000D01*
G75*
G02*
X115025000Y-80645000I-150000J0D01*
G01*
X113275000Y-80645000D01*
G75*
G02*
X113125000Y-80495000I0J150000D01*
G01*
X113125000Y-80195000D01*
G75*
G02*
X113275000Y-80045000I150000J0D01*
G01*
X115025000Y-80045000D01*
G75*
G02*
X115175000Y-80195000I0J-150000D01*
G01*
G37*
G36*
G01*
X115175000Y-81465000D02*
X115175000Y-81765000D01*
G75*
G02*
X115025000Y-81915000I-150000J0D01*
G01*
X113275000Y-81915000D01*
G75*
G02*
X113125000Y-81765000I0J150000D01*
G01*
X113125000Y-81465000D01*
G75*
G02*
X113275000Y-81315000I150000J0D01*
G01*
X115025000Y-81315000D01*
G75*
G02*
X115175000Y-81465000I0J-150000D01*
G01*
G37*
G36*
G01*
X115175000Y-82735000D02*
X115175000Y-83035000D01*
G75*
G02*
X115025000Y-83185000I-150000J0D01*
G01*
X113275000Y-83185000D01*
G75*
G02*
X113125000Y-83035000I0J150000D01*
G01*
X113125000Y-82735000D01*
G75*
G02*
X113275000Y-82585000I150000J0D01*
G01*
X115025000Y-82585000D01*
G75*
G02*
X115175000Y-82735000I0J-150000D01*
G01*
G37*
G36*
G01*
X115175000Y-84005000D02*
X115175000Y-84305000D01*
G75*
G02*
X115025000Y-84455000I-150000J0D01*
G01*
X113275000Y-84455000D01*
G75*
G02*
X113125000Y-84305000I0J150000D01*
G01*
X113125000Y-84005000D01*
G75*
G02*
X113275000Y-83855000I150000J0D01*
G01*
X115025000Y-83855000D01*
G75*
G02*
X115175000Y-84005000I0J-150000D01*
G01*
G37*
G36*
G01*
X115175000Y-85275000D02*
X115175000Y-85575000D01*
G75*
G02*
X115025000Y-85725000I-150000J0D01*
G01*
X113275000Y-85725000D01*
G75*
G02*
X113125000Y-85575000I0J150000D01*
G01*
X113125000Y-85275000D01*
G75*
G02*
X113275000Y-85125000I150000J0D01*
G01*
X115025000Y-85125000D01*
G75*
G02*
X115175000Y-85275000I0J-150000D01*
G01*
G37*
G36*
G01*
X115175000Y-86545000D02*
X115175000Y-86845000D01*
G75*
G02*
X115025000Y-86995000I-150000J0D01*
G01*
X113275000Y-86995000D01*
G75*
G02*
X113125000Y-86845000I0J150000D01*
G01*
X113125000Y-86545000D01*
G75*
G02*
X113275000Y-86395000I150000J0D01*
G01*
X115025000Y-86395000D01*
G75*
G02*
X115175000Y-86545000I0J-150000D01*
G01*
G37*
G36*
G01*
X34756250Y-48400000D02*
X34243750Y-48400000D01*
G75*
G02*
X34025000Y-48181250I0J218750D01*
G01*
X34025000Y-47743750D01*
G75*
G02*
X34243750Y-47525000I218750J0D01*
G01*
X34756250Y-47525000D01*
G75*
G02*
X34975000Y-47743750I0J-218750D01*
G01*
X34975000Y-48181250D01*
G75*
G02*
X34756250Y-48400000I-218750J0D01*
G01*
G37*
G36*
G01*
X34756250Y-49975000D02*
X34243750Y-49975000D01*
G75*
G02*
X34025000Y-49756250I0J218750D01*
G01*
X34025000Y-49318750D01*
G75*
G02*
X34243750Y-49100000I218750J0D01*
G01*
X34756250Y-49100000D01*
G75*
G02*
X34975000Y-49318750I0J-218750D01*
G01*
X34975000Y-49756250D01*
G75*
G02*
X34756250Y-49975000I-218750J0D01*
G01*
G37*
G36*
G01*
X24625000Y-80275000D02*
X25875000Y-80275000D01*
G75*
G02*
X26125000Y-80525000I0J-250000D01*
G01*
X26125000Y-81275000D01*
G75*
G02*
X25875000Y-81525000I-250000J0D01*
G01*
X24625000Y-81525000D01*
G75*
G02*
X24375000Y-81275000I0J250000D01*
G01*
X24375000Y-80525000D01*
G75*
G02*
X24625000Y-80275000I250000J0D01*
G01*
G37*
G36*
G01*
X24625000Y-77475000D02*
X25875000Y-77475000D01*
G75*
G02*
X26125000Y-77725000I0J-250000D01*
G01*
X26125000Y-78475000D01*
G75*
G02*
X25875000Y-78725000I-250000J0D01*
G01*
X24625000Y-78725000D01*
G75*
G02*
X24375000Y-78475000I0J250000D01*
G01*
X24375000Y-77725000D01*
G75*
G02*
X24625000Y-77475000I250000J0D01*
G01*
G37*
G36*
G01*
X40043750Y-77200000D02*
X40956250Y-77200000D01*
G75*
G02*
X41200000Y-77443750I0J-243750D01*
G01*
X41200000Y-77931250D01*
G75*
G02*
X40956250Y-78175000I-243750J0D01*
G01*
X40043750Y-78175000D01*
G75*
G02*
X39800000Y-77931250I0J243750D01*
G01*
X39800000Y-77443750D01*
G75*
G02*
X40043750Y-77200000I243750J0D01*
G01*
G37*
G36*
G01*
X40043750Y-75325000D02*
X40956250Y-75325000D01*
G75*
G02*
X41200000Y-75568750I0J-243750D01*
G01*
X41200000Y-76056250D01*
G75*
G02*
X40956250Y-76300000I-243750J0D01*
G01*
X40043750Y-76300000D01*
G75*
G02*
X39800000Y-76056250I0J243750D01*
G01*
X39800000Y-75568750D01*
G75*
G02*
X40043750Y-75325000I243750J0D01*
G01*
G37*
G36*
G01*
X38062500Y-57756250D02*
X38062500Y-57243750D01*
G75*
G02*
X38281250Y-57025000I218750J0D01*
G01*
X38718750Y-57025000D01*
G75*
G02*
X38937500Y-57243750I0J-218750D01*
G01*
X38937500Y-57756250D01*
G75*
G02*
X38718750Y-57975000I-218750J0D01*
G01*
X38281250Y-57975000D01*
G75*
G02*
X38062500Y-57756250I0J218750D01*
G01*
G37*
G36*
G01*
X36487500Y-57756250D02*
X36487500Y-57243750D01*
G75*
G02*
X36706250Y-57025000I218750J0D01*
G01*
X37143750Y-57025000D01*
G75*
G02*
X37362500Y-57243750I0J-218750D01*
G01*
X37362500Y-57756250D01*
G75*
G02*
X37143750Y-57975000I-218750J0D01*
G01*
X36706250Y-57975000D01*
G75*
G02*
X36487500Y-57756250I0J218750D01*
G01*
G37*
G36*
G01*
X68543750Y-91450000D02*
X69456250Y-91450000D01*
G75*
G02*
X69700000Y-91693750I0J-243750D01*
G01*
X69700000Y-92181250D01*
G75*
G02*
X69456250Y-92425000I-243750J0D01*
G01*
X68543750Y-92425000D01*
G75*
G02*
X68300000Y-92181250I0J243750D01*
G01*
X68300000Y-91693750D01*
G75*
G02*
X68543750Y-91450000I243750J0D01*
G01*
G37*
G36*
G01*
X68543750Y-89575000D02*
X69456250Y-89575000D01*
G75*
G02*
X69700000Y-89818750I0J-243750D01*
G01*
X69700000Y-90306250D01*
G75*
G02*
X69456250Y-90550000I-243750J0D01*
G01*
X68543750Y-90550000D01*
G75*
G02*
X68300000Y-90306250I0J243750D01*
G01*
X68300000Y-89818750D01*
G75*
G02*
X68543750Y-89575000I243750J0D01*
G01*
G37*
G36*
G01*
X66650000Y-76993750D02*
X66650000Y-77506250D01*
G75*
G02*
X66431250Y-77725000I-218750J0D01*
G01*
X65993750Y-77725000D01*
G75*
G02*
X65775000Y-77506250I0J218750D01*
G01*
X65775000Y-76993750D01*
G75*
G02*
X65993750Y-76775000I218750J0D01*
G01*
X66431250Y-76775000D01*
G75*
G02*
X66650000Y-76993750I0J-218750D01*
G01*
G37*
G36*
G01*
X68225000Y-76993750D02*
X68225000Y-77506250D01*
G75*
G02*
X68006250Y-77725000I-218750J0D01*
G01*
X67568750Y-77725000D01*
G75*
G02*
X67350000Y-77506250I0J218750D01*
G01*
X67350000Y-76993750D01*
G75*
G02*
X67568750Y-76775000I218750J0D01*
G01*
X68006250Y-76775000D01*
G75*
G02*
X68225000Y-76993750I0J-218750D01*
G01*
G37*
G36*
G01*
X96150000Y-107993750D02*
X96150000Y-108506250D01*
G75*
G02*
X95931250Y-108725000I-218750J0D01*
G01*
X95493750Y-108725000D01*
G75*
G02*
X95275000Y-108506250I0J218750D01*
G01*
X95275000Y-107993750D01*
G75*
G02*
X95493750Y-107775000I218750J0D01*
G01*
X95931250Y-107775000D01*
G75*
G02*
X96150000Y-107993750I0J-218750D01*
G01*
G37*
G36*
G01*
X97725000Y-107993750D02*
X97725000Y-108506250D01*
G75*
G02*
X97506250Y-108725000I-218750J0D01*
G01*
X97068750Y-108725000D01*
G75*
G02*
X96850000Y-108506250I0J218750D01*
G01*
X96850000Y-107993750D01*
G75*
G02*
X97068750Y-107775000I218750J0D01*
G01*
X97506250Y-107775000D01*
G75*
G02*
X97725000Y-107993750I0J-218750D01*
G01*
G37*
G36*
G01*
X81350000Y-80756250D02*
X81350000Y-80243750D01*
G75*
G02*
X81568750Y-80025000I218750J0D01*
G01*
X82006250Y-80025000D01*
G75*
G02*
X82225000Y-80243750I0J-218750D01*
G01*
X82225000Y-80756250D01*
G75*
G02*
X82006250Y-80975000I-218750J0D01*
G01*
X81568750Y-80975000D01*
G75*
G02*
X81350000Y-80756250I0J218750D01*
G01*
G37*
G36*
G01*
X79775000Y-80756250D02*
X79775000Y-80243750D01*
G75*
G02*
X79993750Y-80025000I218750J0D01*
G01*
X80431250Y-80025000D01*
G75*
G02*
X80650000Y-80243750I0J-218750D01*
G01*
X80650000Y-80756250D01*
G75*
G02*
X80431250Y-80975000I-218750J0D01*
G01*
X79993750Y-80975000D01*
G75*
G02*
X79775000Y-80756250I0J218750D01*
G01*
G37*
G36*
G01*
X91600000Y-108506250D02*
X91600000Y-107993750D01*
G75*
G02*
X91818750Y-107775000I218750J0D01*
G01*
X92256250Y-107775000D01*
G75*
G02*
X92475000Y-107993750I0J-218750D01*
G01*
X92475000Y-108506250D01*
G75*
G02*
X92256250Y-108725000I-218750J0D01*
G01*
X91818750Y-108725000D01*
G75*
G02*
X91600000Y-108506250I0J218750D01*
G01*
G37*
G36*
G01*
X90025000Y-108506250D02*
X90025000Y-107993750D01*
G75*
G02*
X90243750Y-107775000I218750J0D01*
G01*
X90681250Y-107775000D01*
G75*
G02*
X90900000Y-107993750I0J-218750D01*
G01*
X90900000Y-108506250D01*
G75*
G02*
X90681250Y-108725000I-218750J0D01*
G01*
X90243750Y-108725000D01*
G75*
G02*
X90025000Y-108506250I0J218750D01*
G01*
G37*
G36*
G01*
X73743750Y-92350000D02*
X74256250Y-92350000D01*
G75*
G02*
X74475000Y-92568750I0J-218750D01*
G01*
X74475000Y-93006250D01*
G75*
G02*
X74256250Y-93225000I-218750J0D01*
G01*
X73743750Y-93225000D01*
G75*
G02*
X73525000Y-93006250I0J218750D01*
G01*
X73525000Y-92568750D01*
G75*
G02*
X73743750Y-92350000I218750J0D01*
G01*
G37*
G36*
G01*
X73743750Y-90775000D02*
X74256250Y-90775000D01*
G75*
G02*
X74475000Y-90993750I0J-218750D01*
G01*
X74475000Y-91431250D01*
G75*
G02*
X74256250Y-91650000I-218750J0D01*
G01*
X73743750Y-91650000D01*
G75*
G02*
X73525000Y-91431250I0J218750D01*
G01*
X73525000Y-90993750D01*
G75*
G02*
X73743750Y-90775000I218750J0D01*
G01*
G37*
G36*
G01*
X69743750Y-66600000D02*
X70256250Y-66600000D01*
G75*
G02*
X70475000Y-66818750I0J-218750D01*
G01*
X70475000Y-67256250D01*
G75*
G02*
X70256250Y-67475000I-218750J0D01*
G01*
X69743750Y-67475000D01*
G75*
G02*
X69525000Y-67256250I0J218750D01*
G01*
X69525000Y-66818750D01*
G75*
G02*
X69743750Y-66600000I218750J0D01*
G01*
G37*
G36*
G01*
X69743750Y-65025000D02*
X70256250Y-65025000D01*
G75*
G02*
X70475000Y-65243750I0J-218750D01*
G01*
X70475000Y-65681250D01*
G75*
G02*
X70256250Y-65900000I-218750J0D01*
G01*
X69743750Y-65900000D01*
G75*
G02*
X69525000Y-65681250I0J218750D01*
G01*
X69525000Y-65243750D01*
G75*
G02*
X69743750Y-65025000I218750J0D01*
G01*
G37*
G36*
G01*
X75950000Y-38956250D02*
X75950000Y-38043750D01*
G75*
G02*
X76193750Y-37800000I243750J0D01*
G01*
X76681250Y-37800000D01*
G75*
G02*
X76925000Y-38043750I0J-243750D01*
G01*
X76925000Y-38956250D01*
G75*
G02*
X76681250Y-39200000I-243750J0D01*
G01*
X76193750Y-39200000D01*
G75*
G02*
X75950000Y-38956250I0J243750D01*
G01*
G37*
G36*
G01*
X74075000Y-38956250D02*
X74075000Y-38043750D01*
G75*
G02*
X74318750Y-37800000I243750J0D01*
G01*
X74806250Y-37800000D01*
G75*
G02*
X75050000Y-38043750I0J-243750D01*
G01*
X75050000Y-38956250D01*
G75*
G02*
X74806250Y-39200000I-243750J0D01*
G01*
X74318750Y-39200000D01*
G75*
G02*
X74075000Y-38956250I0J243750D01*
G01*
G37*
G36*
G01*
X75243750Y-66600000D02*
X75756250Y-66600000D01*
G75*
G02*
X75975000Y-66818750I0J-218750D01*
G01*
X75975000Y-67256250D01*
G75*
G02*
X75756250Y-67475000I-218750J0D01*
G01*
X75243750Y-67475000D01*
G75*
G02*
X75025000Y-67256250I0J218750D01*
G01*
X75025000Y-66818750D01*
G75*
G02*
X75243750Y-66600000I218750J0D01*
G01*
G37*
G36*
G01*
X75243750Y-65025000D02*
X75756250Y-65025000D01*
G75*
G02*
X75975000Y-65243750I0J-218750D01*
G01*
X75975000Y-65681250D01*
G75*
G02*
X75756250Y-65900000I-218750J0D01*
G01*
X75243750Y-65900000D01*
G75*
G02*
X75025000Y-65681250I0J218750D01*
G01*
X75025000Y-65243750D01*
G75*
G02*
X75243750Y-65025000I218750J0D01*
G01*
G37*
G36*
G01*
X56756250Y-52900000D02*
X56243750Y-52900000D01*
G75*
G02*
X56025000Y-52681250I0J218750D01*
G01*
X56025000Y-52243750D01*
G75*
G02*
X56243750Y-52025000I218750J0D01*
G01*
X56756250Y-52025000D01*
G75*
G02*
X56975000Y-52243750I0J-218750D01*
G01*
X56975000Y-52681250D01*
G75*
G02*
X56756250Y-52900000I-218750J0D01*
G01*
G37*
G36*
G01*
X56756250Y-54475000D02*
X56243750Y-54475000D01*
G75*
G02*
X56025000Y-54256250I0J218750D01*
G01*
X56025000Y-53818750D01*
G75*
G02*
X56243750Y-53600000I218750J0D01*
G01*
X56756250Y-53600000D01*
G75*
G02*
X56975000Y-53818750I0J-218750D01*
G01*
X56975000Y-54256250D01*
G75*
G02*
X56756250Y-54475000I-218750J0D01*
G01*
G37*
G36*
G01*
X100993750Y-80600000D02*
X101506250Y-80600000D01*
G75*
G02*
X101725000Y-80818750I0J-218750D01*
G01*
X101725000Y-81256250D01*
G75*
G02*
X101506250Y-81475000I-218750J0D01*
G01*
X100993750Y-81475000D01*
G75*
G02*
X100775000Y-81256250I0J218750D01*
G01*
X100775000Y-80818750D01*
G75*
G02*
X100993750Y-80600000I218750J0D01*
G01*
G37*
G36*
G01*
X100993750Y-79025000D02*
X101506250Y-79025000D01*
G75*
G02*
X101725000Y-79243750I0J-218750D01*
G01*
X101725000Y-79681250D01*
G75*
G02*
X101506250Y-79900000I-218750J0D01*
G01*
X100993750Y-79900000D01*
G75*
G02*
X100775000Y-79681250I0J218750D01*
G01*
X100775000Y-79243750D01*
G75*
G02*
X100993750Y-79025000I218750J0D01*
G01*
G37*
G36*
G01*
X58350000Y-47506250D02*
X58350000Y-46993750D01*
G75*
G02*
X58568750Y-46775000I218750J0D01*
G01*
X59006250Y-46775000D01*
G75*
G02*
X59225000Y-46993750I0J-218750D01*
G01*
X59225000Y-47506250D01*
G75*
G02*
X59006250Y-47725000I-218750J0D01*
G01*
X58568750Y-47725000D01*
G75*
G02*
X58350000Y-47506250I0J218750D01*
G01*
G37*
G36*
G01*
X56775000Y-47506250D02*
X56775000Y-46993750D01*
G75*
G02*
X56993750Y-46775000I218750J0D01*
G01*
X57431250Y-46775000D01*
G75*
G02*
X57650000Y-46993750I0J-218750D01*
G01*
X57650000Y-47506250D01*
G75*
G02*
X57431250Y-47725000I-218750J0D01*
G01*
X56993750Y-47725000D01*
G75*
G02*
X56775000Y-47506250I0J218750D01*
G01*
G37*
G36*
G01*
X100043750Y-91450000D02*
X100956250Y-91450000D01*
G75*
G02*
X101200000Y-91693750I0J-243750D01*
G01*
X101200000Y-92181250D01*
G75*
G02*
X100956250Y-92425000I-243750J0D01*
G01*
X100043750Y-92425000D01*
G75*
G02*
X99800000Y-92181250I0J243750D01*
G01*
X99800000Y-91693750D01*
G75*
G02*
X100043750Y-91450000I243750J0D01*
G01*
G37*
G36*
G01*
X100043750Y-89575000D02*
X100956250Y-89575000D01*
G75*
G02*
X101200000Y-89818750I0J-243750D01*
G01*
X101200000Y-90306250D01*
G75*
G02*
X100956250Y-90550000I-243750J0D01*
G01*
X100043750Y-90550000D01*
G75*
G02*
X99800000Y-90306250I0J243750D01*
G01*
X99800000Y-89818750D01*
G75*
G02*
X100043750Y-89575000I243750J0D01*
G01*
G37*
G36*
G01*
X26450000Y-75462500D02*
X26450000Y-75037500D01*
G75*
G02*
X26662500Y-74825000I212500J0D01*
G01*
X27462500Y-74825000D01*
G75*
G02*
X27675000Y-75037500I0J-212500D01*
G01*
X27675000Y-75462500D01*
G75*
G02*
X27462500Y-75675000I-212500J0D01*
G01*
X26662500Y-75675000D01*
G75*
G02*
X26450000Y-75462500I0J212500D01*
G01*
G37*
G36*
G01*
X24825000Y-75462500D02*
X24825000Y-75037500D01*
G75*
G02*
X25037500Y-74825000I212500J0D01*
G01*
X25837500Y-74825000D01*
G75*
G02*
X26050000Y-75037500I0J-212500D01*
G01*
X26050000Y-75462500D01*
G75*
G02*
X25837500Y-75675000I-212500J0D01*
G01*
X25037500Y-75675000D01*
G75*
G02*
X24825000Y-75462500I0J212500D01*
G01*
G37*
G36*
G01*
X62287500Y-96450000D02*
X62712500Y-96450000D01*
G75*
G02*
X62925000Y-96662500I0J-212500D01*
G01*
X62925000Y-97462500D01*
G75*
G02*
X62712500Y-97675000I-212500J0D01*
G01*
X62287500Y-97675000D01*
G75*
G02*
X62075000Y-97462500I0J212500D01*
G01*
X62075000Y-96662500D01*
G75*
G02*
X62287500Y-96450000I212500J0D01*
G01*
G37*
G36*
G01*
X62287500Y-94825000D02*
X62712500Y-94825000D01*
G75*
G02*
X62925000Y-95037500I0J-212500D01*
G01*
X62925000Y-95837500D01*
G75*
G02*
X62712500Y-96050000I-212500J0D01*
G01*
X62287500Y-96050000D01*
G75*
G02*
X62075000Y-95837500I0J212500D01*
G01*
X62075000Y-95037500D01*
G75*
G02*
X62287500Y-94825000I212500J0D01*
G01*
G37*
G36*
G01*
X64962500Y-96050000D02*
X64537500Y-96050000D01*
G75*
G02*
X64325000Y-95837500I0J212500D01*
G01*
X64325000Y-95037500D01*
G75*
G02*
X64537500Y-94825000I212500J0D01*
G01*
X64962500Y-94825000D01*
G75*
G02*
X65175000Y-95037500I0J-212500D01*
G01*
X65175000Y-95837500D01*
G75*
G02*
X64962500Y-96050000I-212500J0D01*
G01*
G37*
G36*
G01*
X64962500Y-97675000D02*
X64537500Y-97675000D01*
G75*
G02*
X64325000Y-97462500I0J212500D01*
G01*
X64325000Y-96662500D01*
G75*
G02*
X64537500Y-96450000I212500J0D01*
G01*
X64962500Y-96450000D01*
G75*
G02*
X65175000Y-96662500I0J-212500D01*
G01*
X65175000Y-97462500D01*
G75*
G02*
X64962500Y-97675000I-212500J0D01*
G01*
G37*
D21*
X84000000Y-54050000D03*
X84000000Y-51950000D03*
G36*
G01*
X63650000Y-47700000D02*
X63650000Y-48300000D01*
G75*
G02*
X63450000Y-48500000I-200000J0D01*
G01*
X63050000Y-48500000D01*
G75*
G02*
X62850000Y-48300000I0J200000D01*
G01*
X62850000Y-47700000D01*
G75*
G02*
X63050000Y-47500000I200000J0D01*
G01*
X63450000Y-47500000D01*
G75*
G02*
X63650000Y-47700000I0J-200000D01*
G01*
G37*
G36*
G01*
X66150000Y-47725000D02*
X66150000Y-48275000D01*
G75*
G02*
X65875000Y-48550000I-275000J0D01*
G01*
X64425000Y-48550000D01*
G75*
G02*
X64150000Y-48275000I0J275000D01*
G01*
X64150000Y-47725000D01*
G75*
G02*
X64425000Y-47450000I275000J0D01*
G01*
X65875000Y-47450000D01*
G75*
G02*
X66150000Y-47725000I0J-275000D01*
G01*
G37*
D22*
X98250000Y-54250000D03*
X98900000Y-56250000D03*
X97600000Y-56250000D03*
D23*
X59750000Y-50440000D03*
X60700000Y-53060000D03*
X58800000Y-53060000D03*
G36*
G01*
X44600000Y-65256250D02*
X44600000Y-64743750D01*
G75*
G02*
X44818750Y-64525000I218750J0D01*
G01*
X45256250Y-64525000D01*
G75*
G02*
X45475000Y-64743750I0J-218750D01*
G01*
X45475000Y-65256250D01*
G75*
G02*
X45256250Y-65475000I-218750J0D01*
G01*
X44818750Y-65475000D01*
G75*
G02*
X44600000Y-65256250I0J218750D01*
G01*
G37*
G36*
G01*
X43025000Y-65256250D02*
X43025000Y-64743750D01*
G75*
G02*
X43243750Y-64525000I218750J0D01*
G01*
X43681250Y-64525000D01*
G75*
G02*
X43900000Y-64743750I0J-218750D01*
G01*
X43900000Y-65256250D01*
G75*
G02*
X43681250Y-65475000I-218750J0D01*
G01*
X43243750Y-65475000D01*
G75*
G02*
X43025000Y-65256250I0J218750D01*
G01*
G37*
G36*
G01*
X29900000Y-74993750D02*
X29900000Y-75506250D01*
G75*
G02*
X29681250Y-75725000I-218750J0D01*
G01*
X29243750Y-75725000D01*
G75*
G02*
X29025000Y-75506250I0J218750D01*
G01*
X29025000Y-74993750D01*
G75*
G02*
X29243750Y-74775000I218750J0D01*
G01*
X29681250Y-74775000D01*
G75*
G02*
X29900000Y-74993750I0J-218750D01*
G01*
G37*
G36*
G01*
X31475000Y-74993750D02*
X31475000Y-75506250D01*
G75*
G02*
X31256250Y-75725000I-218750J0D01*
G01*
X30818750Y-75725000D01*
G75*
G02*
X30600000Y-75506250I0J218750D01*
G01*
X30600000Y-74993750D01*
G75*
G02*
X30818750Y-74775000I218750J0D01*
G01*
X31256250Y-74775000D01*
G75*
G02*
X31475000Y-74993750I0J-218750D01*
G01*
G37*
G36*
G01*
X84256250Y-48650000D02*
X83743750Y-48650000D01*
G75*
G02*
X83525000Y-48431250I0J218750D01*
G01*
X83525000Y-47993750D01*
G75*
G02*
X83743750Y-47775000I218750J0D01*
G01*
X84256250Y-47775000D01*
G75*
G02*
X84475000Y-47993750I0J-218750D01*
G01*
X84475000Y-48431250D01*
G75*
G02*
X84256250Y-48650000I-218750J0D01*
G01*
G37*
G36*
G01*
X84256250Y-50225000D02*
X83743750Y-50225000D01*
G75*
G02*
X83525000Y-50006250I0J218750D01*
G01*
X83525000Y-49568750D01*
G75*
G02*
X83743750Y-49350000I218750J0D01*
G01*
X84256250Y-49350000D01*
G75*
G02*
X84475000Y-49568750I0J-218750D01*
G01*
X84475000Y-50006250D01*
G75*
G02*
X84256250Y-50225000I-218750J0D01*
G01*
G37*
G36*
G01*
X122350000Y-83006250D02*
X122350000Y-82493750D01*
G75*
G02*
X122568750Y-82275000I218750J0D01*
G01*
X123006250Y-82275000D01*
G75*
G02*
X123225000Y-82493750I0J-218750D01*
G01*
X123225000Y-83006250D01*
G75*
G02*
X123006250Y-83225000I-218750J0D01*
G01*
X122568750Y-83225000D01*
G75*
G02*
X122350000Y-83006250I0J218750D01*
G01*
G37*
G36*
G01*
X120775000Y-83006250D02*
X120775000Y-82493750D01*
G75*
G02*
X120993750Y-82275000I218750J0D01*
G01*
X121431250Y-82275000D01*
G75*
G02*
X121650000Y-82493750I0J-218750D01*
G01*
X121650000Y-83006250D01*
G75*
G02*
X121431250Y-83225000I-218750J0D01*
G01*
X120993750Y-83225000D01*
G75*
G02*
X120775000Y-83006250I0J218750D01*
G01*
G37*
G36*
G01*
X102993750Y-73850000D02*
X103506250Y-73850000D01*
G75*
G02*
X103725000Y-74068750I0J-218750D01*
G01*
X103725000Y-74506250D01*
G75*
G02*
X103506250Y-74725000I-218750J0D01*
G01*
X102993750Y-74725000D01*
G75*
G02*
X102775000Y-74506250I0J218750D01*
G01*
X102775000Y-74068750D01*
G75*
G02*
X102993750Y-73850000I218750J0D01*
G01*
G37*
G36*
G01*
X102993750Y-72275000D02*
X103506250Y-72275000D01*
G75*
G02*
X103725000Y-72493750I0J-218750D01*
G01*
X103725000Y-72931250D01*
G75*
G02*
X103506250Y-73150000I-218750J0D01*
G01*
X102993750Y-73150000D01*
G75*
G02*
X102775000Y-72931250I0J218750D01*
G01*
X102775000Y-72493750D01*
G75*
G02*
X102993750Y-72275000I218750J0D01*
G01*
G37*
G36*
G01*
X128743750Y-94600000D02*
X129256250Y-94600000D01*
G75*
G02*
X129475000Y-94818750I0J-218750D01*
G01*
X129475000Y-95256250D01*
G75*
G02*
X129256250Y-95475000I-218750J0D01*
G01*
X128743750Y-95475000D01*
G75*
G02*
X128525000Y-95256250I0J218750D01*
G01*
X128525000Y-94818750D01*
G75*
G02*
X128743750Y-94600000I218750J0D01*
G01*
G37*
G36*
G01*
X128743750Y-93025000D02*
X129256250Y-93025000D01*
G75*
G02*
X129475000Y-93243750I0J-218750D01*
G01*
X129475000Y-93681250D01*
G75*
G02*
X129256250Y-93900000I-218750J0D01*
G01*
X128743750Y-93900000D01*
G75*
G02*
X128525000Y-93681250I0J218750D01*
G01*
X128525000Y-93243750D01*
G75*
G02*
X128743750Y-93025000I218750J0D01*
G01*
G37*
D24*
X77900000Y-95750000D03*
X69100000Y-95750000D03*
D25*
X42550000Y-69225000D03*
X42550000Y-68575000D03*
X42550000Y-67925000D03*
X42550000Y-67275000D03*
X48450000Y-67275000D03*
X48450000Y-67925000D03*
X48450000Y-68575000D03*
X48450000Y-69225000D03*
D26*
X48050000Y-75600000D03*
X43450000Y-75600000D03*
X45750000Y-75600000D03*
D27*
X45750000Y-81900000D03*
G36*
G01*
X36250000Y-63255000D02*
X36250000Y-63555000D01*
G75*
G02*
X36100000Y-63705000I-150000J0D01*
G01*
X34450000Y-63705000D01*
G75*
G02*
X34300000Y-63555000I0J150000D01*
G01*
X34300000Y-63255000D01*
G75*
G02*
X34450000Y-63105000I150000J0D01*
G01*
X36100000Y-63105000D01*
G75*
G02*
X36250000Y-63255000I0J-150000D01*
G01*
G37*
G36*
G01*
X36250000Y-61985000D02*
X36250000Y-62285000D01*
G75*
G02*
X36100000Y-62435000I-150000J0D01*
G01*
X34450000Y-62435000D01*
G75*
G02*
X34300000Y-62285000I0J150000D01*
G01*
X34300000Y-61985000D01*
G75*
G02*
X34450000Y-61835000I150000J0D01*
G01*
X36100000Y-61835000D01*
G75*
G02*
X36250000Y-61985000I0J-150000D01*
G01*
G37*
G36*
G01*
X36250000Y-60715000D02*
X36250000Y-61015000D01*
G75*
G02*
X36100000Y-61165000I-150000J0D01*
G01*
X34450000Y-61165000D01*
G75*
G02*
X34300000Y-61015000I0J150000D01*
G01*
X34300000Y-60715000D01*
G75*
G02*
X34450000Y-60565000I150000J0D01*
G01*
X36100000Y-60565000D01*
G75*
G02*
X36250000Y-60715000I0J-150000D01*
G01*
G37*
G36*
G01*
X36250000Y-59445000D02*
X36250000Y-59745000D01*
G75*
G02*
X36100000Y-59895000I-150000J0D01*
G01*
X34450000Y-59895000D01*
G75*
G02*
X34300000Y-59745000I0J150000D01*
G01*
X34300000Y-59445000D01*
G75*
G02*
X34450000Y-59295000I150000J0D01*
G01*
X36100000Y-59295000D01*
G75*
G02*
X36250000Y-59445000I0J-150000D01*
G01*
G37*
G36*
G01*
X41200000Y-59445000D02*
X41200000Y-59745000D01*
G75*
G02*
X41050000Y-59895000I-150000J0D01*
G01*
X39400000Y-59895000D01*
G75*
G02*
X39250000Y-59745000I0J150000D01*
G01*
X39250000Y-59445000D01*
G75*
G02*
X39400000Y-59295000I150000J0D01*
G01*
X41050000Y-59295000D01*
G75*
G02*
X41200000Y-59445000I0J-150000D01*
G01*
G37*
G36*
G01*
X41200000Y-60715000D02*
X41200000Y-61015000D01*
G75*
G02*
X41050000Y-61165000I-150000J0D01*
G01*
X39400000Y-61165000D01*
G75*
G02*
X39250000Y-61015000I0J150000D01*
G01*
X39250000Y-60715000D01*
G75*
G02*
X39400000Y-60565000I150000J0D01*
G01*
X41050000Y-60565000D01*
G75*
G02*
X41200000Y-60715000I0J-150000D01*
G01*
G37*
G36*
G01*
X41200000Y-61985000D02*
X41200000Y-62285000D01*
G75*
G02*
X41050000Y-62435000I-150000J0D01*
G01*
X39400000Y-62435000D01*
G75*
G02*
X39250000Y-62285000I0J150000D01*
G01*
X39250000Y-61985000D01*
G75*
G02*
X39400000Y-61835000I150000J0D01*
G01*
X41050000Y-61835000D01*
G75*
G02*
X41200000Y-61985000I0J-150000D01*
G01*
G37*
G36*
G01*
X41200000Y-63255000D02*
X41200000Y-63555000D01*
G75*
G02*
X41050000Y-63705000I-150000J0D01*
G01*
X39400000Y-63705000D01*
G75*
G02*
X39250000Y-63555000I0J150000D01*
G01*
X39250000Y-63255000D01*
G75*
G02*
X39400000Y-63105000I150000J0D01*
G01*
X41050000Y-63105000D01*
G75*
G02*
X41200000Y-63255000I0J-150000D01*
G01*
G37*
D28*
X67225000Y-56550000D03*
X67875000Y-56550000D03*
X68525000Y-56550000D03*
X69175000Y-56550000D03*
X69825000Y-56550000D03*
X70475000Y-56550000D03*
X71125000Y-56550000D03*
X71775000Y-56550000D03*
X71775000Y-62450000D03*
X71125000Y-62450000D03*
X70475000Y-62450000D03*
X69825000Y-62450000D03*
X69175000Y-62450000D03*
X68525000Y-62450000D03*
X67875000Y-62450000D03*
X67225000Y-62450000D03*
G36*
G01*
X112125000Y-74015000D02*
X112125000Y-73715000D01*
G75*
G02*
X112275000Y-73565000I150000J0D01*
G01*
X113600000Y-73565000D01*
G75*
G02*
X113750000Y-73715000I0J-150000D01*
G01*
X113750000Y-74015000D01*
G75*
G02*
X113600000Y-74165000I-150000J0D01*
G01*
X112275000Y-74165000D01*
G75*
G02*
X112125000Y-74015000I0J150000D01*
G01*
G37*
G36*
G01*
X112125000Y-75285000D02*
X112125000Y-74985000D01*
G75*
G02*
X112275000Y-74835000I150000J0D01*
G01*
X113600000Y-74835000D01*
G75*
G02*
X113750000Y-74985000I0J-150000D01*
G01*
X113750000Y-75285000D01*
G75*
G02*
X113600000Y-75435000I-150000J0D01*
G01*
X112275000Y-75435000D01*
G75*
G02*
X112125000Y-75285000I0J150000D01*
G01*
G37*
G36*
G01*
X105750000Y-75285000D02*
X105750000Y-74985000D01*
G75*
G02*
X105900000Y-74835000I150000J0D01*
G01*
X107225000Y-74835000D01*
G75*
G02*
X107375000Y-74985000I0J-150000D01*
G01*
X107375000Y-75285000D01*
G75*
G02*
X107225000Y-75435000I-150000J0D01*
G01*
X105900000Y-75435000D01*
G75*
G02*
X105750000Y-75285000I0J150000D01*
G01*
G37*
G36*
G01*
X105750000Y-74015000D02*
X105750000Y-73715000D01*
G75*
G02*
X105900000Y-73565000I150000J0D01*
G01*
X107225000Y-73565000D01*
G75*
G02*
X107375000Y-73715000I0J-150000D01*
G01*
X107375000Y-74015000D01*
G75*
G02*
X107225000Y-74165000I-150000J0D01*
G01*
X105900000Y-74165000D01*
G75*
G02*
X105750000Y-74015000I0J150000D01*
G01*
G37*
D21*
X98750000Y-51300000D03*
X98750000Y-49200000D03*
X101250000Y-51300000D03*
X101250000Y-49200000D03*
X103750000Y-51300000D03*
X103750000Y-49200000D03*
D29*
X56800000Y-44100000D03*
X57600000Y-44100000D03*
X58400000Y-44100000D03*
X59200000Y-44100000D03*
X59200000Y-42400000D03*
X58400000Y-42400000D03*
X57600000Y-42400000D03*
X56800000Y-42400000D03*
X63950000Y-90650000D03*
X63150000Y-90650000D03*
X62350000Y-90650000D03*
X61550000Y-90650000D03*
X61550000Y-92350000D03*
X62350000Y-92350000D03*
X63150000Y-92350000D03*
X63950000Y-92350000D03*
G36*
G01*
X114175000Y-98245000D02*
X114175000Y-97945000D01*
G75*
G02*
X114325000Y-97795000I150000J0D01*
G01*
X115825000Y-97795000D01*
G75*
G02*
X115975000Y-97945000I0J-150000D01*
G01*
X115975000Y-98245000D01*
G75*
G02*
X115825000Y-98395000I-150000J0D01*
G01*
X114325000Y-98395000D01*
G75*
G02*
X114175000Y-98245000I0J150000D01*
G01*
G37*
G36*
G01*
X114175000Y-99515000D02*
X114175000Y-99215000D01*
G75*
G02*
X114325000Y-99065000I150000J0D01*
G01*
X115825000Y-99065000D01*
G75*
G02*
X115975000Y-99215000I0J-150000D01*
G01*
X115975000Y-99515000D01*
G75*
G02*
X115825000Y-99665000I-150000J0D01*
G01*
X114325000Y-99665000D01*
G75*
G02*
X114175000Y-99515000I0J150000D01*
G01*
G37*
G36*
G01*
X114175000Y-100785000D02*
X114175000Y-100485000D01*
G75*
G02*
X114325000Y-100335000I150000J0D01*
G01*
X115825000Y-100335000D01*
G75*
G02*
X115975000Y-100485000I0J-150000D01*
G01*
X115975000Y-100785000D01*
G75*
G02*
X115825000Y-100935000I-150000J0D01*
G01*
X114325000Y-100935000D01*
G75*
G02*
X114175000Y-100785000I0J150000D01*
G01*
G37*
G36*
G01*
X114175000Y-102055000D02*
X114175000Y-101755000D01*
G75*
G02*
X114325000Y-101605000I150000J0D01*
G01*
X115825000Y-101605000D01*
G75*
G02*
X115975000Y-101755000I0J-150000D01*
G01*
X115975000Y-102055000D01*
G75*
G02*
X115825000Y-102205000I-150000J0D01*
G01*
X114325000Y-102205000D01*
G75*
G02*
X114175000Y-102055000I0J150000D01*
G01*
G37*
G36*
G01*
X103525000Y-102055000D02*
X103525000Y-101755000D01*
G75*
G02*
X103675000Y-101605000I150000J0D01*
G01*
X105175000Y-101605000D01*
G75*
G02*
X105325000Y-101755000I0J-150000D01*
G01*
X105325000Y-102055000D01*
G75*
G02*
X105175000Y-102205000I-150000J0D01*
G01*
X103675000Y-102205000D01*
G75*
G02*
X103525000Y-102055000I0J150000D01*
G01*
G37*
G36*
G01*
X103525000Y-100785000D02*
X103525000Y-100485000D01*
G75*
G02*
X103675000Y-100335000I150000J0D01*
G01*
X105175000Y-100335000D01*
G75*
G02*
X105325000Y-100485000I0J-150000D01*
G01*
X105325000Y-100785000D01*
G75*
G02*
X105175000Y-100935000I-150000J0D01*
G01*
X103675000Y-100935000D01*
G75*
G02*
X103525000Y-100785000I0J150000D01*
G01*
G37*
G36*
G01*
X103525000Y-99515000D02*
X103525000Y-99215000D01*
G75*
G02*
X103675000Y-99065000I150000J0D01*
G01*
X105175000Y-99065000D01*
G75*
G02*
X105325000Y-99215000I0J-150000D01*
G01*
X105325000Y-99515000D01*
G75*
G02*
X105175000Y-99665000I-150000J0D01*
G01*
X103675000Y-99665000D01*
G75*
G02*
X103525000Y-99515000I0J150000D01*
G01*
G37*
G36*
G01*
X103525000Y-98245000D02*
X103525000Y-97945000D01*
G75*
G02*
X103675000Y-97795000I150000J0D01*
G01*
X105175000Y-97795000D01*
G75*
G02*
X105325000Y-97945000I0J-150000D01*
G01*
X105325000Y-98245000D01*
G75*
G02*
X105175000Y-98395000I-150000J0D01*
G01*
X103675000Y-98395000D01*
G75*
G02*
X103525000Y-98245000I0J150000D01*
G01*
G37*
G36*
G01*
X68900000Y-47743750D02*
X68900000Y-48256250D01*
G75*
G02*
X68681250Y-48475000I-218750J0D01*
G01*
X68243750Y-48475000D01*
G75*
G02*
X68025000Y-48256250I0J218750D01*
G01*
X68025000Y-47743750D01*
G75*
G02*
X68243750Y-47525000I218750J0D01*
G01*
X68681250Y-47525000D01*
G75*
G02*
X68900000Y-47743750I0J-218750D01*
G01*
G37*
G36*
G01*
X70475000Y-47743750D02*
X70475000Y-48256250D01*
G75*
G02*
X70256250Y-48475000I-218750J0D01*
G01*
X69818750Y-48475000D01*
G75*
G02*
X69600000Y-48256250I0J218750D01*
G01*
X69600000Y-47743750D01*
G75*
G02*
X69818750Y-47525000I218750J0D01*
G01*
X70256250Y-47525000D01*
G75*
G02*
X70475000Y-47743750I0J-218750D01*
G01*
G37*
G36*
G01*
X36293750Y-68700000D02*
X37206250Y-68700000D01*
G75*
G02*
X37450000Y-68943750I0J-243750D01*
G01*
X37450000Y-69431250D01*
G75*
G02*
X37206250Y-69675000I-243750J0D01*
G01*
X36293750Y-69675000D01*
G75*
G02*
X36050000Y-69431250I0J243750D01*
G01*
X36050000Y-68943750D01*
G75*
G02*
X36293750Y-68700000I243750J0D01*
G01*
G37*
G36*
G01*
X36293750Y-66825000D02*
X37206250Y-66825000D01*
G75*
G02*
X37450000Y-67068750I0J-243750D01*
G01*
X37450000Y-67556250D01*
G75*
G02*
X37206250Y-67800000I-243750J0D01*
G01*
X36293750Y-67800000D01*
G75*
G02*
X36050000Y-67556250I0J243750D01*
G01*
X36050000Y-67068750D01*
G75*
G02*
X36293750Y-66825000I243750J0D01*
G01*
G37*
G36*
G01*
X39706250Y-67800000D02*
X38793750Y-67800000D01*
G75*
G02*
X38550000Y-67556250I0J243750D01*
G01*
X38550000Y-67068750D01*
G75*
G02*
X38793750Y-66825000I243750J0D01*
G01*
X39706250Y-66825000D01*
G75*
G02*
X39950000Y-67068750I0J-243750D01*
G01*
X39950000Y-67556250D01*
G75*
G02*
X39706250Y-67800000I-243750J0D01*
G01*
G37*
G36*
G01*
X39706250Y-69675000D02*
X38793750Y-69675000D01*
G75*
G02*
X38550000Y-69431250I0J243750D01*
G01*
X38550000Y-68943750D01*
G75*
G02*
X38793750Y-68700000I243750J0D01*
G01*
X39706250Y-68700000D01*
G75*
G02*
X39950000Y-68943750I0J-243750D01*
G01*
X39950000Y-69431250D01*
G75*
G02*
X39706250Y-69675000I-243750J0D01*
G01*
G37*
G36*
G01*
X43450000Y-72706250D02*
X43450000Y-71793750D01*
G75*
G02*
X43693750Y-71550000I243750J0D01*
G01*
X44181250Y-71550000D01*
G75*
G02*
X44425000Y-71793750I0J-243750D01*
G01*
X44425000Y-72706250D01*
G75*
G02*
X44181250Y-72950000I-243750J0D01*
G01*
X43693750Y-72950000D01*
G75*
G02*
X43450000Y-72706250I0J243750D01*
G01*
G37*
G36*
G01*
X41575000Y-72706250D02*
X41575000Y-71793750D01*
G75*
G02*
X41818750Y-71550000I243750J0D01*
G01*
X42306250Y-71550000D01*
G75*
G02*
X42550000Y-71793750I0J-243750D01*
G01*
X42550000Y-72706250D01*
G75*
G02*
X42306250Y-72950000I-243750J0D01*
G01*
X41818750Y-72950000D01*
G75*
G02*
X41575000Y-72706250I0J243750D01*
G01*
G37*
G36*
G01*
X48200000Y-72706250D02*
X48200000Y-71793750D01*
G75*
G02*
X48443750Y-71550000I243750J0D01*
G01*
X48931250Y-71550000D01*
G75*
G02*
X49175000Y-71793750I0J-243750D01*
G01*
X49175000Y-72706250D01*
G75*
G02*
X48931250Y-72950000I-243750J0D01*
G01*
X48443750Y-72950000D01*
G75*
G02*
X48200000Y-72706250I0J243750D01*
G01*
G37*
G36*
G01*
X46325000Y-72706250D02*
X46325000Y-71793750D01*
G75*
G02*
X46568750Y-71550000I243750J0D01*
G01*
X47056250Y-71550000D01*
G75*
G02*
X47300000Y-71793750I0J-243750D01*
G01*
X47300000Y-72706250D01*
G75*
G02*
X47056250Y-72950000I-243750J0D01*
G01*
X46568750Y-72950000D01*
G75*
G02*
X46325000Y-72706250I0J243750D01*
G01*
G37*
G36*
G01*
X35706250Y-73050000D02*
X34793750Y-73050000D01*
G75*
G02*
X34550000Y-72806250I0J243750D01*
G01*
X34550000Y-72318750D01*
G75*
G02*
X34793750Y-72075000I243750J0D01*
G01*
X35706250Y-72075000D01*
G75*
G02*
X35950000Y-72318750I0J-243750D01*
G01*
X35950000Y-72806250D01*
G75*
G02*
X35706250Y-73050000I-243750J0D01*
G01*
G37*
G36*
G01*
X35706250Y-74925000D02*
X34793750Y-74925000D01*
G75*
G02*
X34550000Y-74681250I0J243750D01*
G01*
X34550000Y-74193750D01*
G75*
G02*
X34793750Y-73950000I243750J0D01*
G01*
X35706250Y-73950000D01*
G75*
G02*
X35950000Y-74193750I0J-243750D01*
G01*
X35950000Y-74681250D01*
G75*
G02*
X35706250Y-74925000I-243750J0D01*
G01*
G37*
G36*
G01*
X118850000Y-87506250D02*
X118850000Y-86993750D01*
G75*
G02*
X119068750Y-86775000I218750J0D01*
G01*
X119506250Y-86775000D01*
G75*
G02*
X119725000Y-86993750I0J-218750D01*
G01*
X119725000Y-87506250D01*
G75*
G02*
X119506250Y-87725000I-218750J0D01*
G01*
X119068750Y-87725000D01*
G75*
G02*
X118850000Y-87506250I0J218750D01*
G01*
G37*
G36*
G01*
X117275000Y-87506250D02*
X117275000Y-86993750D01*
G75*
G02*
X117493750Y-86775000I218750J0D01*
G01*
X117931250Y-86775000D01*
G75*
G02*
X118150000Y-86993750I0J-218750D01*
G01*
X118150000Y-87506250D01*
G75*
G02*
X117931250Y-87725000I-218750J0D01*
G01*
X117493750Y-87725000D01*
G75*
G02*
X117275000Y-87506250I0J218750D01*
G01*
G37*
G36*
G01*
X118850000Y-85256250D02*
X118850000Y-84743750D01*
G75*
G02*
X119068750Y-84525000I218750J0D01*
G01*
X119506250Y-84525000D01*
G75*
G02*
X119725000Y-84743750I0J-218750D01*
G01*
X119725000Y-85256250D01*
G75*
G02*
X119506250Y-85475000I-218750J0D01*
G01*
X119068750Y-85475000D01*
G75*
G02*
X118850000Y-85256250I0J218750D01*
G01*
G37*
G36*
G01*
X117275000Y-85256250D02*
X117275000Y-84743750D01*
G75*
G02*
X117493750Y-84525000I218750J0D01*
G01*
X117931250Y-84525000D01*
G75*
G02*
X118150000Y-84743750I0J-218750D01*
G01*
X118150000Y-85256250D01*
G75*
G02*
X117931250Y-85475000I-218750J0D01*
G01*
X117493750Y-85475000D01*
G75*
G02*
X117275000Y-85256250I0J218750D01*
G01*
G37*
G36*
G01*
X122365001Y-87506250D02*
X122365001Y-86993750D01*
G75*
G02*
X122583751Y-86775000I218750J0D01*
G01*
X123021251Y-86775000D01*
G75*
G02*
X123240001Y-86993750I0J-218750D01*
G01*
X123240001Y-87506250D01*
G75*
G02*
X123021251Y-87725000I-218750J0D01*
G01*
X122583751Y-87725000D01*
G75*
G02*
X122365001Y-87506250I0J218750D01*
G01*
G37*
G36*
G01*
X120790001Y-87506250D02*
X120790001Y-86993750D01*
G75*
G02*
X121008751Y-86775000I218750J0D01*
G01*
X121446251Y-86775000D01*
G75*
G02*
X121665001Y-86993750I0J-218750D01*
G01*
X121665001Y-87506250D01*
G75*
G02*
X121446251Y-87725000I-218750J0D01*
G01*
X121008751Y-87725000D01*
G75*
G02*
X120790001Y-87506250I0J218750D01*
G01*
G37*
G36*
G01*
X122350000Y-85256250D02*
X122350000Y-84743750D01*
G75*
G02*
X122568750Y-84525000I218750J0D01*
G01*
X123006250Y-84525000D01*
G75*
G02*
X123225000Y-84743750I0J-218750D01*
G01*
X123225000Y-85256250D01*
G75*
G02*
X123006250Y-85475000I-218750J0D01*
G01*
X122568750Y-85475000D01*
G75*
G02*
X122350000Y-85256250I0J218750D01*
G01*
G37*
G36*
G01*
X120775000Y-85256250D02*
X120775000Y-84743750D01*
G75*
G02*
X120993750Y-84525000I218750J0D01*
G01*
X121431250Y-84525000D01*
G75*
G02*
X121650000Y-84743750I0J-218750D01*
G01*
X121650000Y-85256250D01*
G75*
G02*
X121431250Y-85475000I-218750J0D01*
G01*
X120993750Y-85475000D01*
G75*
G02*
X120775000Y-85256250I0J218750D01*
G01*
G37*
G36*
G01*
X127200000Y-91206250D02*
X127200000Y-90293750D01*
G75*
G02*
X127443750Y-90050000I243750J0D01*
G01*
X127931250Y-90050000D01*
G75*
G02*
X128175000Y-90293750I0J-243750D01*
G01*
X128175000Y-91206250D01*
G75*
G02*
X127931250Y-91450000I-243750J0D01*
G01*
X127443750Y-91450000D01*
G75*
G02*
X127200000Y-91206250I0J243750D01*
G01*
G37*
G36*
G01*
X125325000Y-91206250D02*
X125325000Y-90293750D01*
G75*
G02*
X125568750Y-90050000I243750J0D01*
G01*
X126056250Y-90050000D01*
G75*
G02*
X126300000Y-90293750I0J-243750D01*
G01*
X126300000Y-91206250D01*
G75*
G02*
X126056250Y-91450000I-243750J0D01*
G01*
X125568750Y-91450000D01*
G75*
G02*
X125325000Y-91206250I0J243750D01*
G01*
G37*
G36*
G01*
X63743750Y-67600000D02*
X64256250Y-67600000D01*
G75*
G02*
X64475000Y-67818750I0J-218750D01*
G01*
X64475000Y-68256250D01*
G75*
G02*
X64256250Y-68475000I-218750J0D01*
G01*
X63743750Y-68475000D01*
G75*
G02*
X63525000Y-68256250I0J218750D01*
G01*
X63525000Y-67818750D01*
G75*
G02*
X63743750Y-67600000I218750J0D01*
G01*
G37*
G36*
G01*
X63743750Y-66025000D02*
X64256250Y-66025000D01*
G75*
G02*
X64475000Y-66243750I0J-218750D01*
G01*
X64475000Y-66681250D01*
G75*
G02*
X64256250Y-66900000I-218750J0D01*
G01*
X63743750Y-66900000D01*
G75*
G02*
X63525000Y-66681250I0J218750D01*
G01*
X63525000Y-66243750D01*
G75*
G02*
X63743750Y-66025000I218750J0D01*
G01*
G37*
G36*
G01*
X26450000Y-73462500D02*
X26450000Y-73037500D01*
G75*
G02*
X26662500Y-72825000I212500J0D01*
G01*
X27462500Y-72825000D01*
G75*
G02*
X27675000Y-73037500I0J-212500D01*
G01*
X27675000Y-73462500D01*
G75*
G02*
X27462500Y-73675000I-212500J0D01*
G01*
X26662500Y-73675000D01*
G75*
G02*
X26450000Y-73462500I0J212500D01*
G01*
G37*
G36*
G01*
X24825000Y-73462500D02*
X24825000Y-73037500D01*
G75*
G02*
X25037500Y-72825000I212500J0D01*
G01*
X25837500Y-72825000D01*
G75*
G02*
X26050000Y-73037500I0J-212500D01*
G01*
X26050000Y-73462500D01*
G75*
G02*
X25837500Y-73675000I-212500J0D01*
G01*
X25037500Y-73675000D01*
G75*
G02*
X24825000Y-73462500I0J212500D01*
G01*
G37*
G36*
G01*
X29900000Y-72993750D02*
X29900000Y-73506250D01*
G75*
G02*
X29681250Y-73725000I-218750J0D01*
G01*
X29243750Y-73725000D01*
G75*
G02*
X29025000Y-73506250I0J218750D01*
G01*
X29025000Y-72993750D01*
G75*
G02*
X29243750Y-72775000I218750J0D01*
G01*
X29681250Y-72775000D01*
G75*
G02*
X29900000Y-72993750I0J-218750D01*
G01*
G37*
G36*
G01*
X31475000Y-72993750D02*
X31475000Y-73506250D01*
G75*
G02*
X31256250Y-73725000I-218750J0D01*
G01*
X30818750Y-73725000D01*
G75*
G02*
X30600000Y-73506250I0J218750D01*
G01*
X30600000Y-72993750D01*
G75*
G02*
X30818750Y-72775000I218750J0D01*
G01*
X31256250Y-72775000D01*
G75*
G02*
X31475000Y-72993750I0J-218750D01*
G01*
G37*
G36*
G01*
X99006250Y-45900000D02*
X98493750Y-45900000D01*
G75*
G02*
X98275000Y-45681250I0J218750D01*
G01*
X98275000Y-45243750D01*
G75*
G02*
X98493750Y-45025000I218750J0D01*
G01*
X99006250Y-45025000D01*
G75*
G02*
X99225000Y-45243750I0J-218750D01*
G01*
X99225000Y-45681250D01*
G75*
G02*
X99006250Y-45900000I-218750J0D01*
G01*
G37*
G36*
G01*
X99006250Y-47475000D02*
X98493750Y-47475000D01*
G75*
G02*
X98275000Y-47256250I0J218750D01*
G01*
X98275000Y-46818750D01*
G75*
G02*
X98493750Y-46600000I218750J0D01*
G01*
X99006250Y-46600000D01*
G75*
G02*
X99225000Y-46818750I0J-218750D01*
G01*
X99225000Y-47256250D01*
G75*
G02*
X99006250Y-47475000I-218750J0D01*
G01*
G37*
G36*
G01*
X101506250Y-45900000D02*
X100993750Y-45900000D01*
G75*
G02*
X100775000Y-45681250I0J218750D01*
G01*
X100775000Y-45243750D01*
G75*
G02*
X100993750Y-45025000I218750J0D01*
G01*
X101506250Y-45025000D01*
G75*
G02*
X101725000Y-45243750I0J-218750D01*
G01*
X101725000Y-45681250D01*
G75*
G02*
X101506250Y-45900000I-218750J0D01*
G01*
G37*
G36*
G01*
X101506250Y-47475000D02*
X100993750Y-47475000D01*
G75*
G02*
X100775000Y-47256250I0J218750D01*
G01*
X100775000Y-46818750D01*
G75*
G02*
X100993750Y-46600000I218750J0D01*
G01*
X101506250Y-46600000D01*
G75*
G02*
X101725000Y-46818750I0J-218750D01*
G01*
X101725000Y-47256250D01*
G75*
G02*
X101506250Y-47475000I-218750J0D01*
G01*
G37*
G36*
G01*
X104006250Y-45900000D02*
X103493750Y-45900000D01*
G75*
G02*
X103275000Y-45681250I0J218750D01*
G01*
X103275000Y-45243750D01*
G75*
G02*
X103493750Y-45025000I218750J0D01*
G01*
X104006250Y-45025000D01*
G75*
G02*
X104225000Y-45243750I0J-218750D01*
G01*
X104225000Y-45681250D01*
G75*
G02*
X104006250Y-45900000I-218750J0D01*
G01*
G37*
G36*
G01*
X104006250Y-47475000D02*
X103493750Y-47475000D01*
G75*
G02*
X103275000Y-47256250I0J218750D01*
G01*
X103275000Y-46818750D01*
G75*
G02*
X103493750Y-46600000I218750J0D01*
G01*
X104006250Y-46600000D01*
G75*
G02*
X104225000Y-46818750I0J-218750D01*
G01*
X104225000Y-47256250D01*
G75*
G02*
X104006250Y-47475000I-218750J0D01*
G01*
G37*
G36*
G01*
X81600000Y-85237500D02*
X81600000Y-84762500D01*
G75*
G02*
X81837500Y-84525000I237500J0D01*
G01*
X82412500Y-84525000D01*
G75*
G02*
X82650000Y-84762500I0J-237500D01*
G01*
X82650000Y-85237500D01*
G75*
G02*
X82412500Y-85475000I-237500J0D01*
G01*
X81837500Y-85475000D01*
G75*
G02*
X81600000Y-85237500I0J237500D01*
G01*
G37*
G36*
G01*
X79850000Y-85237500D02*
X79850000Y-84762500D01*
G75*
G02*
X80087500Y-84525000I237500J0D01*
G01*
X80662500Y-84525000D01*
G75*
G02*
X80900000Y-84762500I0J-237500D01*
G01*
X80900000Y-85237500D01*
G75*
G02*
X80662500Y-85475000I-237500J0D01*
G01*
X80087500Y-85475000D01*
G75*
G02*
X79850000Y-85237500I0J237500D01*
G01*
G37*
G36*
G01*
X50743750Y-51100000D02*
X51256250Y-51100000D01*
G75*
G02*
X51475000Y-51318750I0J-218750D01*
G01*
X51475000Y-51756250D01*
G75*
G02*
X51256250Y-51975000I-218750J0D01*
G01*
X50743750Y-51975000D01*
G75*
G02*
X50525000Y-51756250I0J218750D01*
G01*
X50525000Y-51318750D01*
G75*
G02*
X50743750Y-51100000I218750J0D01*
G01*
G37*
G36*
G01*
X50743750Y-49525000D02*
X51256250Y-49525000D01*
G75*
G02*
X51475000Y-49743750I0J-218750D01*
G01*
X51475000Y-50181250D01*
G75*
G02*
X51256250Y-50400000I-218750J0D01*
G01*
X50743750Y-50400000D01*
G75*
G02*
X50525000Y-50181250I0J218750D01*
G01*
X50525000Y-49743750D01*
G75*
G02*
X50743750Y-49525000I218750J0D01*
G01*
G37*
G36*
G01*
X50743750Y-55600000D02*
X51256250Y-55600000D01*
G75*
G02*
X51475000Y-55818750I0J-218750D01*
G01*
X51475000Y-56256250D01*
G75*
G02*
X51256250Y-56475000I-218750J0D01*
G01*
X50743750Y-56475000D01*
G75*
G02*
X50525000Y-56256250I0J218750D01*
G01*
X50525000Y-55818750D01*
G75*
G02*
X50743750Y-55600000I218750J0D01*
G01*
G37*
G36*
G01*
X50743750Y-54025000D02*
X51256250Y-54025000D01*
G75*
G02*
X51475000Y-54243750I0J-218750D01*
G01*
X51475000Y-54681250D01*
G75*
G02*
X51256250Y-54900000I-218750J0D01*
G01*
X50743750Y-54900000D01*
G75*
G02*
X50525000Y-54681250I0J218750D01*
G01*
X50525000Y-54243750D01*
G75*
G02*
X50743750Y-54025000I218750J0D01*
G01*
G37*
G36*
G01*
X80650000Y-82493750D02*
X80650000Y-83006250D01*
G75*
G02*
X80431250Y-83225000I-218750J0D01*
G01*
X79993750Y-83225000D01*
G75*
G02*
X79775000Y-83006250I0J218750D01*
G01*
X79775000Y-82493750D01*
G75*
G02*
X79993750Y-82275000I218750J0D01*
G01*
X80431250Y-82275000D01*
G75*
G02*
X80650000Y-82493750I0J-218750D01*
G01*
G37*
G36*
G01*
X82225000Y-82493750D02*
X82225000Y-83006250D01*
G75*
G02*
X82006250Y-83225000I-218750J0D01*
G01*
X81568750Y-83225000D01*
G75*
G02*
X81350000Y-83006250I0J218750D01*
G01*
X81350000Y-82493750D01*
G75*
G02*
X81568750Y-82275000I218750J0D01*
G01*
X82006250Y-82275000D01*
G75*
G02*
X82225000Y-82493750I0J-218750D01*
G01*
G37*
G36*
G01*
X126543750Y-72950000D02*
X127456250Y-72950000D01*
G75*
G02*
X127700000Y-73193750I0J-243750D01*
G01*
X127700000Y-73681250D01*
G75*
G02*
X127456250Y-73925000I-243750J0D01*
G01*
X126543750Y-73925000D01*
G75*
G02*
X126300000Y-73681250I0J243750D01*
G01*
X126300000Y-73193750D01*
G75*
G02*
X126543750Y-72950000I243750J0D01*
G01*
G37*
G36*
G01*
X126543750Y-71075000D02*
X127456250Y-71075000D01*
G75*
G02*
X127700000Y-71318750I0J-243750D01*
G01*
X127700000Y-71806250D01*
G75*
G02*
X127456250Y-72050000I-243750J0D01*
G01*
X126543750Y-72050000D01*
G75*
G02*
X126300000Y-71806250I0J243750D01*
G01*
X126300000Y-71318750D01*
G75*
G02*
X126543750Y-71075000I243750J0D01*
G01*
G37*
G36*
G01*
X117493750Y-77350000D02*
X118006250Y-77350000D01*
G75*
G02*
X118225000Y-77568750I0J-218750D01*
G01*
X118225000Y-78006250D01*
G75*
G02*
X118006250Y-78225000I-218750J0D01*
G01*
X117493750Y-78225000D01*
G75*
G02*
X117275000Y-78006250I0J218750D01*
G01*
X117275000Y-77568750D01*
G75*
G02*
X117493750Y-77350000I218750J0D01*
G01*
G37*
G36*
G01*
X117493750Y-75775000D02*
X118006250Y-75775000D01*
G75*
G02*
X118225000Y-75993750I0J-218750D01*
G01*
X118225000Y-76431250D01*
G75*
G02*
X118006250Y-76650000I-218750J0D01*
G01*
X117493750Y-76650000D01*
G75*
G02*
X117275000Y-76431250I0J218750D01*
G01*
X117275000Y-75993750D01*
G75*
G02*
X117493750Y-75775000I218750J0D01*
G01*
G37*
D30*
X27100000Y-90700000D03*
X27100000Y-89900000D03*
X27100000Y-89100000D03*
X27100000Y-88300000D03*
X25400000Y-88300000D03*
X25400000Y-89100000D03*
X25400000Y-89900000D03*
X25400000Y-90700000D03*
D13*
X29275000Y-86800000D03*
X29925000Y-86800000D03*
X30575000Y-86800000D03*
X31225000Y-86800000D03*
X31225000Y-92700000D03*
X30575000Y-92700000D03*
X29925000Y-92700000D03*
X29275000Y-92700000D03*
G36*
G01*
X100493750Y-100600000D02*
X101006250Y-100600000D01*
G75*
G02*
X101225000Y-100818750I0J-218750D01*
G01*
X101225000Y-101256250D01*
G75*
G02*
X101006250Y-101475000I-218750J0D01*
G01*
X100493750Y-101475000D01*
G75*
G02*
X100275000Y-101256250I0J218750D01*
G01*
X100275000Y-100818750D01*
G75*
G02*
X100493750Y-100600000I218750J0D01*
G01*
G37*
G36*
G01*
X100493750Y-99025000D02*
X101006250Y-99025000D01*
G75*
G02*
X101225000Y-99243750I0J-218750D01*
G01*
X101225000Y-99681250D01*
G75*
G02*
X101006250Y-99900000I-218750J0D01*
G01*
X100493750Y-99900000D01*
G75*
G02*
X100275000Y-99681250I0J218750D01*
G01*
X100275000Y-99243750D01*
G75*
G02*
X100493750Y-99025000I218750J0D01*
G01*
G37*
G36*
G01*
X118650000Y-97243750D02*
X118650000Y-97756250D01*
G75*
G02*
X118431250Y-97975000I-218750J0D01*
G01*
X117993750Y-97975000D01*
G75*
G02*
X117775000Y-97756250I0J218750D01*
G01*
X117775000Y-97243750D01*
G75*
G02*
X117993750Y-97025000I218750J0D01*
G01*
X118431250Y-97025000D01*
G75*
G02*
X118650000Y-97243750I0J-218750D01*
G01*
G37*
G36*
G01*
X120225000Y-97243750D02*
X120225000Y-97756250D01*
G75*
G02*
X120006250Y-97975000I-218750J0D01*
G01*
X119568750Y-97975000D01*
G75*
G02*
X119350000Y-97756250I0J218750D01*
G01*
X119350000Y-97243750D01*
G75*
G02*
X119568750Y-97025000I218750J0D01*
G01*
X120006250Y-97025000D01*
G75*
G02*
X120225000Y-97243750I0J-218750D01*
G01*
G37*
G36*
G01*
X86006250Y-77725000D02*
X85493750Y-77725000D01*
G75*
G02*
X85275000Y-77506250I0J218750D01*
G01*
X85275000Y-77068750D01*
G75*
G02*
X85493750Y-76850000I218750J0D01*
G01*
X86006250Y-76850000D01*
G75*
G02*
X86225000Y-77068750I0J-218750D01*
G01*
X86225000Y-77506250D01*
G75*
G02*
X86006250Y-77725000I-218750J0D01*
G01*
G37*
G36*
G01*
X86006250Y-76150000D02*
X85493750Y-76150000D01*
G75*
G02*
X85275000Y-75931250I0J218750D01*
G01*
X85275000Y-75493750D01*
G75*
G02*
X85493750Y-75275000I218750J0D01*
G01*
X86006250Y-75275000D01*
G75*
G02*
X86225000Y-75493750I0J-218750D01*
G01*
X86225000Y-75931250D01*
G75*
G02*
X86006250Y-76150000I-218750J0D01*
G01*
G37*
G36*
G01*
X28150000Y-83993750D02*
X28150000Y-84506250D01*
G75*
G02*
X27931250Y-84725000I-218750J0D01*
G01*
X27493750Y-84725000D01*
G75*
G02*
X27275000Y-84506250I0J218750D01*
G01*
X27275000Y-83993750D01*
G75*
G02*
X27493750Y-83775000I218750J0D01*
G01*
X27931250Y-83775000D01*
G75*
G02*
X28150000Y-83993750I0J-218750D01*
G01*
G37*
G36*
G01*
X29725000Y-83993750D02*
X29725000Y-84506250D01*
G75*
G02*
X29506250Y-84725000I-218750J0D01*
G01*
X29068750Y-84725000D01*
G75*
G02*
X28850000Y-84506250I0J218750D01*
G01*
X28850000Y-83993750D01*
G75*
G02*
X29068750Y-83775000I218750J0D01*
G01*
X29506250Y-83775000D01*
G75*
G02*
X29725000Y-83993750I0J-218750D01*
G01*
G37*
D29*
X101300000Y-54400000D03*
X102100000Y-54400000D03*
X102900000Y-54400000D03*
X103700000Y-54400000D03*
X103700000Y-56100000D03*
X102900000Y-56100000D03*
X102100000Y-56100000D03*
X101300000Y-56100000D03*
D31*
X88025000Y-77100000D03*
X88675000Y-77100000D03*
X89325000Y-77100000D03*
X89975000Y-77100000D03*
X90625000Y-77100000D03*
X91275000Y-77100000D03*
X91925000Y-77100000D03*
X92575000Y-77100000D03*
X93225000Y-77100000D03*
X93875000Y-77100000D03*
X94525000Y-77100000D03*
X95175000Y-77100000D03*
X95825000Y-77100000D03*
X96475000Y-77100000D03*
X96475000Y-71400000D03*
X95825000Y-71400000D03*
X95175000Y-71400000D03*
X94525000Y-71400000D03*
X93875000Y-71400000D03*
X93225000Y-71400000D03*
X92575000Y-71400000D03*
X91925000Y-71400000D03*
X91275000Y-71400000D03*
X90625000Y-71400000D03*
X89975000Y-71400000D03*
X89325000Y-71400000D03*
X88675000Y-71400000D03*
X88025000Y-71400000D03*
D29*
X90550000Y-60900000D03*
X91350000Y-60900000D03*
X92150000Y-60900000D03*
X92950000Y-60900000D03*
X92950000Y-62600000D03*
X92150000Y-62600000D03*
X91350000Y-62600000D03*
X90550000Y-62600000D03*
X86050000Y-62600000D03*
X86850000Y-62600000D03*
X87650000Y-62600000D03*
X88450000Y-62600000D03*
X88450000Y-60900000D03*
X87650000Y-60900000D03*
X86850000Y-60900000D03*
X86050000Y-60900000D03*
X95050000Y-60900000D03*
X95850000Y-60900000D03*
X96650000Y-60900000D03*
X97450000Y-60900000D03*
X97450000Y-62600000D03*
X96650000Y-62600000D03*
X95850000Y-62600000D03*
X95050000Y-62600000D03*
X90550000Y-67100000D03*
X91350000Y-67100000D03*
X92150000Y-67100000D03*
X92950000Y-67100000D03*
X92950000Y-65400000D03*
X92150000Y-65400000D03*
X91350000Y-65400000D03*
X90550000Y-65400000D03*
X86050000Y-67100000D03*
X86850000Y-67100000D03*
X87650000Y-67100000D03*
X88450000Y-67100000D03*
X88450000Y-65400000D03*
X87650000Y-65400000D03*
X86850000Y-65400000D03*
X86050000Y-65400000D03*
X95050000Y-65400000D03*
X95850000Y-65400000D03*
X96650000Y-65400000D03*
X97450000Y-65400000D03*
X97450000Y-67100000D03*
X96650000Y-67100000D03*
X95850000Y-67100000D03*
X95050000Y-67100000D03*
X74950000Y-72100000D03*
X74150000Y-72100000D03*
X73350000Y-72100000D03*
X72550000Y-72100000D03*
X72550000Y-70400000D03*
X73350000Y-70400000D03*
X74150000Y-70400000D03*
X74950000Y-70400000D03*
X81550000Y-60900000D03*
X82350000Y-60900000D03*
X83150000Y-60900000D03*
X83950000Y-60900000D03*
X83950000Y-62600000D03*
X83150000Y-62600000D03*
X82350000Y-62600000D03*
X81550000Y-62600000D03*
G36*
G01*
X24825000Y-71462500D02*
X24825000Y-71037500D01*
G75*
G02*
X25037500Y-70825000I212500J0D01*
G01*
X25837500Y-70825000D01*
G75*
G02*
X26050000Y-71037500I0J-212500D01*
G01*
X26050000Y-71462500D01*
G75*
G02*
X25837500Y-71675000I-212500J0D01*
G01*
X25037500Y-71675000D01*
G75*
G02*
X24825000Y-71462500I0J212500D01*
G01*
G37*
G36*
G01*
X26450000Y-71462500D02*
X26450000Y-71037500D01*
G75*
G02*
X26662500Y-70825000I212500J0D01*
G01*
X27462500Y-70825000D01*
G75*
G02*
X27675000Y-71037500I0J-212500D01*
G01*
X27675000Y-71462500D01*
G75*
G02*
X27462500Y-71675000I-212500J0D01*
G01*
X26662500Y-71675000D01*
G75*
G02*
X26450000Y-71462500I0J212500D01*
G01*
G37*
G36*
G01*
X31475000Y-70993750D02*
X31475000Y-71506250D01*
G75*
G02*
X31256250Y-71725000I-218750J0D01*
G01*
X30818750Y-71725000D01*
G75*
G02*
X30600000Y-71506250I0J218750D01*
G01*
X30600000Y-70993750D01*
G75*
G02*
X30818750Y-70775000I218750J0D01*
G01*
X31256250Y-70775000D01*
G75*
G02*
X31475000Y-70993750I0J-218750D01*
G01*
G37*
G36*
G01*
X29900000Y-70993750D02*
X29900000Y-71506250D01*
G75*
G02*
X29681250Y-71725000I-218750J0D01*
G01*
X29243750Y-71725000D01*
G75*
G02*
X29025000Y-71506250I0J218750D01*
G01*
X29025000Y-70993750D01*
G75*
G02*
X29243750Y-70775000I218750J0D01*
G01*
X29681250Y-70775000D01*
G75*
G02*
X29900000Y-70993750I0J-218750D01*
G01*
G37*
D30*
X50100000Y-85300000D03*
X50100000Y-86100000D03*
X50100000Y-86900000D03*
X50100000Y-87700000D03*
X48400000Y-87700000D03*
X48400000Y-86900000D03*
X48400000Y-86100000D03*
X48400000Y-85300000D03*
G36*
G01*
X91775000Y-101256250D02*
X91775000Y-100743750D01*
G75*
G02*
X91993750Y-100525000I218750J0D01*
G01*
X92431250Y-100525000D01*
G75*
G02*
X92650000Y-100743750I0J-218750D01*
G01*
X92650000Y-101256250D01*
G75*
G02*
X92431250Y-101475000I-218750J0D01*
G01*
X91993750Y-101475000D01*
G75*
G02*
X91775000Y-101256250I0J218750D01*
G01*
G37*
G36*
G01*
X93350000Y-101256250D02*
X93350000Y-100743750D01*
G75*
G02*
X93568750Y-100525000I218750J0D01*
G01*
X94006250Y-100525000D01*
G75*
G02*
X94225000Y-100743750I0J-218750D01*
G01*
X94225000Y-101256250D01*
G75*
G02*
X94006250Y-101475000I-218750J0D01*
G01*
X93568750Y-101475000D01*
G75*
G02*
X93350000Y-101256250I0J218750D01*
G01*
G37*
G36*
G01*
X30756250Y-97725000D02*
X30243750Y-97725000D01*
G75*
G02*
X30025000Y-97506250I0J218750D01*
G01*
X30025000Y-97068750D01*
G75*
G02*
X30243750Y-96850000I218750J0D01*
G01*
X30756250Y-96850000D01*
G75*
G02*
X30975000Y-97068750I0J-218750D01*
G01*
X30975000Y-97506250D01*
G75*
G02*
X30756250Y-97725000I-218750J0D01*
G01*
G37*
G36*
G01*
X30756250Y-96150000D02*
X30243750Y-96150000D01*
G75*
G02*
X30025000Y-95931250I0J218750D01*
G01*
X30025000Y-95493750D01*
G75*
G02*
X30243750Y-95275000I218750J0D01*
G01*
X30756250Y-95275000D01*
G75*
G02*
X30975000Y-95493750I0J-218750D01*
G01*
X30975000Y-95931250D01*
G75*
G02*
X30756250Y-96150000I-218750J0D01*
G01*
G37*
D32*
G36*
X26259755Y-86025961D02*
G01*
X26269134Y-86028806D01*
X26277779Y-86033427D01*
X26285355Y-86039645D01*
X26291573Y-86047221D01*
X26296194Y-86055866D01*
X26299039Y-86065245D01*
X26300000Y-86075000D01*
X26299039Y-86084755D01*
X26296194Y-86094134D01*
X26291573Y-86102779D01*
X26288597Y-86106785D01*
X25964773Y-86500000D01*
X26288597Y-86893215D01*
X26294056Y-86901355D01*
X26297822Y-86910404D01*
X26299751Y-86920015D01*
X26299768Y-86929816D01*
X26297872Y-86939433D01*
X26294136Y-86948495D01*
X26288704Y-86956654D01*
X26281785Y-86963597D01*
X26273645Y-86969056D01*
X26264596Y-86972822D01*
X26254985Y-86974751D01*
X26250000Y-86975000D01*
X25075000Y-86975000D01*
X25065245Y-86974039D01*
X25055866Y-86971194D01*
X25047221Y-86966573D01*
X25039645Y-86960355D01*
X25033427Y-86952779D01*
X25028806Y-86944134D01*
X25025961Y-86934755D01*
X25025000Y-86925000D01*
X25025000Y-86075000D01*
X25025961Y-86065245D01*
X25028806Y-86055866D01*
X25033427Y-86047221D01*
X25039645Y-86039645D01*
X25047221Y-86033427D01*
X25055866Y-86028806D01*
X25065245Y-86025961D01*
X25075000Y-86025000D01*
X26250000Y-86025000D01*
X26259755Y-86025961D01*
G37*
G36*
X27436705Y-86016153D02*
G01*
X27447961Y-86019567D01*
X27458334Y-86025112D01*
X27467426Y-86032574D01*
X27474888Y-86041666D01*
X27480433Y-86052039D01*
X27483847Y-86063295D01*
X27485000Y-86075000D01*
X27485000Y-86925000D01*
X27483847Y-86936705D01*
X27480433Y-86947961D01*
X27474888Y-86958334D01*
X27467426Y-86967426D01*
X27458334Y-86974888D01*
X27447961Y-86980433D01*
X27436705Y-86983847D01*
X27425000Y-86985000D01*
X26625000Y-86985000D01*
X26613295Y-86983847D01*
X26602039Y-86980433D01*
X26591666Y-86974888D01*
X26578684Y-86963142D01*
X26228684Y-86538142D01*
X26222133Y-86528374D01*
X26217613Y-86517515D01*
X26215299Y-86505983D01*
X26215279Y-86494221D01*
X26217554Y-86482681D01*
X26222037Y-86471806D01*
X26228684Y-86461858D01*
X26578684Y-86036858D01*
X26587015Y-86028555D01*
X26596806Y-86022037D01*
X26607681Y-86017554D01*
X26625000Y-86015000D01*
X27425000Y-86015000D01*
X27436705Y-86016153D01*
G37*
G36*
G01*
X39743750Y-86525000D02*
X40256250Y-86525000D01*
G75*
G02*
X40475000Y-86743750I0J-218750D01*
G01*
X40475000Y-87181250D01*
G75*
G02*
X40256250Y-87400000I-218750J0D01*
G01*
X39743750Y-87400000D01*
G75*
G02*
X39525000Y-87181250I0J218750D01*
G01*
X39525000Y-86743750D01*
G75*
G02*
X39743750Y-86525000I218750J0D01*
G01*
G37*
G36*
G01*
X39743750Y-88100000D02*
X40256250Y-88100000D01*
G75*
G02*
X40475000Y-88318750I0J-218750D01*
G01*
X40475000Y-88756250D01*
G75*
G02*
X40256250Y-88975000I-218750J0D01*
G01*
X39743750Y-88975000D01*
G75*
G02*
X39525000Y-88756250I0J218750D01*
G01*
X39525000Y-88318750D01*
G75*
G02*
X39743750Y-88100000I218750J0D01*
G01*
G37*
G36*
G01*
X117793750Y-102825000D02*
X118706250Y-102825000D01*
G75*
G02*
X118950000Y-103068750I0J-243750D01*
G01*
X118950000Y-103556250D01*
G75*
G02*
X118706250Y-103800000I-243750J0D01*
G01*
X117793750Y-103800000D01*
G75*
G02*
X117550000Y-103556250I0J243750D01*
G01*
X117550000Y-103068750D01*
G75*
G02*
X117793750Y-102825000I243750J0D01*
G01*
G37*
G36*
G01*
X117793750Y-104700000D02*
X118706250Y-104700000D01*
G75*
G02*
X118950000Y-104943750I0J-243750D01*
G01*
X118950000Y-105431250D01*
G75*
G02*
X118706250Y-105675000I-243750J0D01*
G01*
X117793750Y-105675000D01*
G75*
G02*
X117550000Y-105431250I0J243750D01*
G01*
X117550000Y-104943750D01*
G75*
G02*
X117793750Y-104700000I243750J0D01*
G01*
G37*
G36*
G01*
X116493750Y-71275000D02*
X117006250Y-71275000D01*
G75*
G02*
X117225000Y-71493750I0J-218750D01*
G01*
X117225000Y-71931250D01*
G75*
G02*
X117006250Y-72150000I-218750J0D01*
G01*
X116493750Y-72150000D01*
G75*
G02*
X116275000Y-71931250I0J218750D01*
G01*
X116275000Y-71493750D01*
G75*
G02*
X116493750Y-71275000I218750J0D01*
G01*
G37*
G36*
G01*
X116493750Y-72850000D02*
X117006250Y-72850000D01*
G75*
G02*
X117225000Y-73068750I0J-218750D01*
G01*
X117225000Y-73506250D01*
G75*
G02*
X117006250Y-73725000I-218750J0D01*
G01*
X116493750Y-73725000D01*
G75*
G02*
X116275000Y-73506250I0J218750D01*
G01*
X116275000Y-73068750D01*
G75*
G02*
X116493750Y-72850000I218750J0D01*
G01*
G37*
G36*
G01*
X58150000Y-65993750D02*
X58150000Y-66506250D01*
G75*
G02*
X57931250Y-66725000I-218750J0D01*
G01*
X57493750Y-66725000D01*
G75*
G02*
X57275000Y-66506250I0J218750D01*
G01*
X57275000Y-65993750D01*
G75*
G02*
X57493750Y-65775000I218750J0D01*
G01*
X57931250Y-65775000D01*
G75*
G02*
X58150000Y-65993750I0J-218750D01*
G01*
G37*
G36*
G01*
X59725000Y-65993750D02*
X59725000Y-66506250D01*
G75*
G02*
X59506250Y-66725000I-218750J0D01*
G01*
X59068750Y-66725000D01*
G75*
G02*
X58850000Y-66506250I0J218750D01*
G01*
X58850000Y-65993750D01*
G75*
G02*
X59068750Y-65775000I218750J0D01*
G01*
X59506250Y-65775000D01*
G75*
G02*
X59725000Y-65993750I0J-218750D01*
G01*
G37*
D33*
X120400000Y-71675000D03*
D34*
X119250000Y-71675000D03*
D33*
X119100000Y-73325000D03*
X120400000Y-73325000D03*
X123100000Y-71675000D03*
X124400000Y-71675000D03*
D34*
X124250000Y-73325000D03*
D33*
X123100000Y-73325000D03*
G36*
G01*
X24299999Y-50550000D02*
X27200001Y-50550000D01*
G75*
G02*
X27450000Y-50799999I0J-249999D01*
G01*
X27450000Y-51425001D01*
G75*
G02*
X27200001Y-51675000I-249999J0D01*
G01*
X24299999Y-51675000D01*
G75*
G02*
X24050000Y-51425001I0J249999D01*
G01*
X24050000Y-50799999D01*
G75*
G02*
X24299999Y-50550000I249999J0D01*
G01*
G37*
G36*
G01*
X24299999Y-54825000D02*
X27200001Y-54825000D01*
G75*
G02*
X27450000Y-55074999I0J-249999D01*
G01*
X27450000Y-55700001D01*
G75*
G02*
X27200001Y-55950000I-249999J0D01*
G01*
X24299999Y-55950000D01*
G75*
G02*
X24050000Y-55700001I0J249999D01*
G01*
X24050000Y-55074999D01*
G75*
G02*
X24299999Y-54825000I249999J0D01*
G01*
G37*
G36*
G01*
X69525000Y-38756250D02*
X69525000Y-38243750D01*
G75*
G02*
X69743750Y-38025000I218750J0D01*
G01*
X70181250Y-38025000D01*
G75*
G02*
X70400000Y-38243750I0J-218750D01*
G01*
X70400000Y-38756250D01*
G75*
G02*
X70181250Y-38975000I-218750J0D01*
G01*
X69743750Y-38975000D01*
G75*
G02*
X69525000Y-38756250I0J218750D01*
G01*
G37*
G36*
G01*
X71100000Y-38756250D02*
X71100000Y-38243750D01*
G75*
G02*
X71318750Y-38025000I218750J0D01*
G01*
X71756250Y-38025000D01*
G75*
G02*
X71975000Y-38243750I0J-218750D01*
G01*
X71975000Y-38756250D01*
G75*
G02*
X71756250Y-38975000I-218750J0D01*
G01*
X71318750Y-38975000D01*
G75*
G02*
X71100000Y-38756250I0J218750D01*
G01*
G37*
G36*
G01*
X59725000Y-68493750D02*
X59725000Y-69006250D01*
G75*
G02*
X59506250Y-69225000I-218750J0D01*
G01*
X59068750Y-69225000D01*
G75*
G02*
X58850000Y-69006250I0J218750D01*
G01*
X58850000Y-68493750D01*
G75*
G02*
X59068750Y-68275000I218750J0D01*
G01*
X59506250Y-68275000D01*
G75*
G02*
X59725000Y-68493750I0J-218750D01*
G01*
G37*
G36*
G01*
X58150000Y-68493750D02*
X58150000Y-69006250D01*
G75*
G02*
X57931250Y-69225000I-218750J0D01*
G01*
X57493750Y-69225000D01*
G75*
G02*
X57275000Y-69006250I0J218750D01*
G01*
X57275000Y-68493750D01*
G75*
G02*
X57493750Y-68275000I218750J0D01*
G01*
X57931250Y-68275000D01*
G75*
G02*
X58150000Y-68493750I0J-218750D01*
G01*
G37*
G36*
G01*
X59925000Y-38287500D02*
X59925000Y-38712500D01*
G75*
G02*
X59712500Y-38925000I-212500J0D01*
G01*
X58912500Y-38925000D01*
G75*
G02*
X58700000Y-38712500I0J212500D01*
G01*
X58700000Y-38287500D01*
G75*
G02*
X58912500Y-38075000I212500J0D01*
G01*
X59712500Y-38075000D01*
G75*
G02*
X59925000Y-38287500I0J-212500D01*
G01*
G37*
G36*
G01*
X58300000Y-38287500D02*
X58300000Y-38712500D01*
G75*
G02*
X58087500Y-38925000I-212500J0D01*
G01*
X57287500Y-38925000D01*
G75*
G02*
X57075000Y-38712500I0J212500D01*
G01*
X57075000Y-38287500D01*
G75*
G02*
X57287500Y-38075000I212500J0D01*
G01*
X58087500Y-38075000D01*
G75*
G02*
X58300000Y-38287500I0J-212500D01*
G01*
G37*
G36*
G01*
X66725000Y-38243750D02*
X66725000Y-38756250D01*
G75*
G02*
X66506250Y-38975000I-218750J0D01*
G01*
X66068750Y-38975000D01*
G75*
G02*
X65850000Y-38756250I0J218750D01*
G01*
X65850000Y-38243750D01*
G75*
G02*
X66068750Y-38025000I218750J0D01*
G01*
X66506250Y-38025000D01*
G75*
G02*
X66725000Y-38243750I0J-218750D01*
G01*
G37*
G36*
G01*
X65150000Y-38243750D02*
X65150000Y-38756250D01*
G75*
G02*
X64931250Y-38975000I-218750J0D01*
G01*
X64493750Y-38975000D01*
G75*
G02*
X64275000Y-38756250I0J218750D01*
G01*
X64275000Y-38243750D01*
G75*
G02*
X64493750Y-38025000I218750J0D01*
G01*
X64931250Y-38025000D01*
G75*
G02*
X65150000Y-38243750I0J-218750D01*
G01*
G37*
D13*
X56550000Y-62450000D03*
X57200000Y-62450000D03*
X57850000Y-62450000D03*
X58500000Y-62450000D03*
X59150000Y-62450000D03*
X59800000Y-62450000D03*
X60450000Y-62450000D03*
X60450000Y-56550000D03*
X59800000Y-56550000D03*
X59150000Y-56550000D03*
X58500000Y-56550000D03*
X57850000Y-56550000D03*
X57200000Y-56550000D03*
X56550000Y-56550000D03*
G36*
G01*
X103506250Y-70725000D02*
X102993750Y-70725000D01*
G75*
G02*
X102775000Y-70506250I0J218750D01*
G01*
X102775000Y-70068750D01*
G75*
G02*
X102993750Y-69850000I218750J0D01*
G01*
X103506250Y-69850000D01*
G75*
G02*
X103725000Y-70068750I0J-218750D01*
G01*
X103725000Y-70506250D01*
G75*
G02*
X103506250Y-70725000I-218750J0D01*
G01*
G37*
G36*
G01*
X103506250Y-69150000D02*
X102993750Y-69150000D01*
G75*
G02*
X102775000Y-68931250I0J218750D01*
G01*
X102775000Y-68493750D01*
G75*
G02*
X102993750Y-68275000I218750J0D01*
G01*
X103506250Y-68275000D01*
G75*
G02*
X103725000Y-68493750I0J-218750D01*
G01*
X103725000Y-68931250D01*
G75*
G02*
X103506250Y-69150000I-218750J0D01*
G01*
G37*
D29*
X89450000Y-88850000D03*
X88650000Y-88850000D03*
X87850000Y-88850000D03*
X87050000Y-88850000D03*
X87050000Y-87150000D03*
X87850000Y-87150000D03*
X88650000Y-87150000D03*
X89450000Y-87150000D03*
G36*
G01*
X98743750Y-77775000D02*
X99256250Y-77775000D01*
G75*
G02*
X99475000Y-77993750I0J-218750D01*
G01*
X99475000Y-78431250D01*
G75*
G02*
X99256250Y-78650000I-218750J0D01*
G01*
X98743750Y-78650000D01*
G75*
G02*
X98525000Y-78431250I0J218750D01*
G01*
X98525000Y-77993750D01*
G75*
G02*
X98743750Y-77775000I218750J0D01*
G01*
G37*
G36*
G01*
X98743750Y-79350000D02*
X99256250Y-79350000D01*
G75*
G02*
X99475000Y-79568750I0J-218750D01*
G01*
X99475000Y-80006250D01*
G75*
G02*
X99256250Y-80225000I-218750J0D01*
G01*
X98743750Y-80225000D01*
G75*
G02*
X98525000Y-80006250I0J218750D01*
G01*
X98525000Y-79568750D01*
G75*
G02*
X98743750Y-79350000I218750J0D01*
G01*
G37*
G36*
G01*
X98850000Y-85006250D02*
X98850000Y-84493750D01*
G75*
G02*
X99068750Y-84275000I218750J0D01*
G01*
X99506250Y-84275000D01*
G75*
G02*
X99725000Y-84493750I0J-218750D01*
G01*
X99725000Y-85006250D01*
G75*
G02*
X99506250Y-85225000I-218750J0D01*
G01*
X99068750Y-85225000D01*
G75*
G02*
X98850000Y-85006250I0J218750D01*
G01*
G37*
G36*
G01*
X97275000Y-85006250D02*
X97275000Y-84493750D01*
G75*
G02*
X97493750Y-84275000I218750J0D01*
G01*
X97931250Y-84275000D01*
G75*
G02*
X98150000Y-84493750I0J-218750D01*
G01*
X98150000Y-85006250D01*
G75*
G02*
X97931250Y-85225000I-218750J0D01*
G01*
X97493750Y-85225000D01*
G75*
G02*
X97275000Y-85006250I0J218750D01*
G01*
G37*
G36*
G01*
X97275000Y-83006250D02*
X97275000Y-82493750D01*
G75*
G02*
X97493750Y-82275000I218750J0D01*
G01*
X97931250Y-82275000D01*
G75*
G02*
X98150000Y-82493750I0J-218750D01*
G01*
X98150000Y-83006250D01*
G75*
G02*
X97931250Y-83225000I-218750J0D01*
G01*
X97493750Y-83225000D01*
G75*
G02*
X97275000Y-83006250I0J218750D01*
G01*
G37*
G36*
G01*
X98850000Y-83006250D02*
X98850000Y-82493750D01*
G75*
G02*
X99068750Y-82275000I218750J0D01*
G01*
X99506250Y-82275000D01*
G75*
G02*
X99725000Y-82493750I0J-218750D01*
G01*
X99725000Y-83006250D01*
G75*
G02*
X99506250Y-83225000I-218750J0D01*
G01*
X99068750Y-83225000D01*
G75*
G02*
X98850000Y-83006250I0J218750D01*
G01*
G37*
M02*
